LibraSans-Italic.ufo
<glyph name="numbersign" format="1">
  <advance width="556"/>
  <unicode hex="0023"/>
  <outline>
    <contour>
      <point x="566" y="432" type="line"/>
      <point x="452" y="432" type="line"/>
      <point x="414" y="252" type="line"/>
      <point x="541" y="252" type="line"/>
      <point x="541" y="199" type="line"/>
      <point x="403" y="199" type="line"/>
      <point x="360" y="0" type="line"/>
      <point x="306" y="0" type="line"/>
      <point x="348" y="199" type="line"/>
      <point x="171" y="199" type="line"/>
      <point x="130" y="0" type="line"/>
      <point x="76" y="0" type="line"/>
      <point x="117" y="199" type="line"/>
      <point x="19" y="199" type="line"/>
      <point x="19" y="252" type="line"/>
      <point x="129" y="252" type="line"/>
      <point x="167" y="432" type="line"/>
      <point x="44" y="432" type="line"/>
      <point x="44" y="485" type="line"/>
      <point x="178" y="485" type="line"/>
      <point x="221" y="684" type="line"/>
      <point x="275" y="684" type="line"/>
      <point x="232" y="485" type="line"/>
      <point x="409" y="485" type="line"/>
      <point x="452" y="684" type="line"/>
      <point x="506" y="684" type="line"/>
      <point x="463" y="485" type="line"/>
      <point x="566" y="485" type="line"/>
    </contour>
    <contour>
      <point x="398" y="432" type="line"/>
      <point x="222" y="432" type="line"/>
      <point x="183" y="252" type="line"/>
      <point x="360" y="252" type="line"/>
    </contour>
  </outline>
</glyph>
<glyph name="percent" format="1">
  <advance width="889"/>
  <unicode hex="0025"/>
  <outline>
    <contour>
      <point x="788" y="688" type="line"/>
      <point x="208" y="0" type="line"/>
      <point x="127" y="0" type="line"/>
      <point x="706" y="688" type="line"/>
    </contour>
    <contour>
      <point x="266" y="694" type="curve" smooth="yes"/>
      <point x="347" y="694"/>
      <point x="393" y="642"/>
      <point x="393" y="543" type="curve" smooth="yes"/>
      <point x="393" y="475"/>
      <point x="375" y="393"/>
      <point x="339" y="338" type="curve" smooth="yes"/>
      <point x="304" y="283"/>
      <point x="257" y="256"/>
      <point x="198" y="256" type="curve" smooth="yes"/>
      <point x="118" y="256"/>
      <point x="71" y="311"/>
      <point x="71" y="411" type="curve" smooth="yes"/>
      <point x="71" y="458"/>
      <point x="79" y="505"/>
      <point x="94" y="552" type="curve" smooth="yes"/>
      <point x="125" y="645"/>
      <point x="182" y="694"/>
    </contour>
    <contour>
      <point x="266" y="641" type="curve" smooth="yes"/>
      <point x="222" y="641"/>
      <point x="196" y="622"/>
      <point x="175" y="578" type="curve" smooth="yes"/>
      <point x="165" y="557"/>
      <point x="156" y="528"/>
      <point x="149" y="493" type="curve" smooth="yes"/>
      <point x="142" y="458"/>
      <point x="139" y="429"/>
      <point x="139" y="404" type="curve" smooth="yes"/>
      <point x="139" y="342"/>
      <point x="159" y="311"/>
      <point x="200" y="311" type="curve" smooth="yes"/>
      <point x="228" y="311"/>
      <point x="251" y="322"/>
      <point x="268" y="343" type="curve" smooth="yes"/>
      <point x="286" y="365"/>
      <point x="300" y="397"/>
      <point x="310" y="440" type="curve" smooth="yes"/>
      <point x="320" y="483"/>
      <point x="325" y="521"/>
      <point x="325" y="552" type="curve" smooth="yes"/>
      <point x="325" y="611"/>
      <point x="305" y="641"/>
    </contour>
    <contour>
      <point x="720" y="432" type="curve" smooth="yes"/>
      <point x="801" y="432"/>
      <point x="846" y="379"/>
      <point x="846" y="282" type="curve" smooth="yes"/>
      <point x="846" y="213"/>
      <point x="829" y="131"/>
      <point x="793" y="76" type="curve" smooth="yes"/>
      <point x="757" y="23"/>
      <point x="709" y="-6"/>
      <point x="652" y="-6" type="curve" smooth="yes"/>
      <point x="571" y="-6"/>
      <point x="525" y="50"/>
      <point x="525" y="149" type="curve" smooth="yes"/>
      <point x="525" y="197"/>
      <point x="532" y="244"/>
      <point x="547" y="290" type="curve" smooth="yes"/>
      <point x="578" y="383"/>
      <point x="635" y="432"/>
    </contour>
    <contour>
      <point x="719" y="379" type="curve" smooth="yes"/>
      <point x="676" y="379"/>
      <point x="650" y="360"/>
      <point x="629" y="316" type="curve" smooth="yes"/>
      <point x="618" y="295"/>
      <point x="609" y="267"/>
      <point x="602" y="232" type="curve" smooth="yes"/>
      <point x="595" y="197"/>
      <point x="592" y="167"/>
      <point x="592" y="142" type="curve" smooth="yes"/>
      <point x="592" y="80"/>
      <point x="613" y="49"/>
      <point x="654" y="49" type="curve" smooth="yes"/>
      <point x="681" y="49"/>
      <point x="704" y="60"/>
      <point x="722" y="82" type="curve" smooth="yes"/>
      <point x="740" y="104"/>
      <point x="754" y="136"/>
      <point x="763" y="179" type="curve" smooth="yes"/>
      <point x="773" y="222"/>
      <point x="778" y="260"/>
      <point x="778" y="291" type="curve" smooth="yes"/>
      <point x="778" y="350"/>
      <point x="758" y="379"/>
    </contour>
  </outline>
</glyph>
<glyph name="ampersand" format="1">
  <advance width="667"/>
  <unicode hex="0026"/>
  <outline>
    <contour>
      <point x="545" y="361" type="curve"/>
      <point x="609" y="334" type="line"/>
      <point x="564" y="231"/>
      <point x="517" y="154"/>
      <point x="467" y="102" type="curve"/>
      <point x="494" y="77"/>
      <point x="528" y="63"/>
      <point x="559" y="63" type="curve" smooth="yes"/>
      <point x="578" y="63"/>
      <point x="596" y="66"/>
      <point x="613" y="71" type="curve"/>
      <point x="607" y="5" type="line"/>
      <point x="588" y="-2"/>
      <point x="567" y="-6"/>
      <point x="546" y="-6" type="curve" smooth="yes"/>
      <point x="497" y="-6"/>
      <point x="453" y="14"/>
      <point x="414" y="54" type="curve"/>
      <point x="356" y="11"/>
      <point x="290" y="-10"/>
      <point x="215" y="-10" type="curve" smooth="yes"/>
      <point x="92" y="-10"/>
      <point x="16" y="60"/>
      <point x="16" y="171" type="curve" smooth="yes"/>
      <point x="16" y="222"/>
      <point x="31" y="265"/>
      <point x="61" y="298" type="curve" smooth="yes"/>
      <point x="92" y="331"/>
      <point x="147" y="363"/>
      <point x="226" y="394" type="curve"/>
      <point x="217" y="433"/>
      <point x="212" y="470"/>
      <point x="212" y="506" type="curve" smooth="yes"/>
      <point x="212" y="618"/>
      <point x="288" y="692"/>
      <point x="407" y="692" type="curve" smooth="yes"/>
      <point x="496" y="692"/>
      <point x="559" y="641"/>
      <point x="559" y="564" type="curve" smooth="yes"/>
      <point x="559" y="526"/>
      <point x="546" y="493"/>
      <point x="519" y="465" type="curve" smooth="yes"/>
      <point x="492" y="437"/>
      <point x="445" y="410"/>
      <point x="376" y="383" type="curve" smooth="yes"/>
      <point x="315" y="358" type="line"/>
      <point x="340" y="285"/>
      <point x="376" y="217"/>
      <point x="422" y="154" type="curve"/>
      <point x="461" y="198"/>
      <point x="494" y="252"/>
    </contour>
    <contour>
      <point x="221" y="54" type="curve" smooth="yes"/>
      <point x="274" y="54"/>
      <point x="323" y="71"/>
      <point x="368" y="104" type="curve"/>
      <point x="320" y="161"/>
      <point x="274" y="246"/>
      <point x="245" y="330" type="curve"/>
      <point x="136" y="286"/>
      <point x="99" y="245"/>
      <point x="99" y="173" type="curve" smooth="yes"/>
      <point x="99" y="101"/>
      <point x="148" y="54"/>
    </contour>
    <contour>
      <point x="289" y="508" type="curve" smooth="yes"/>
      <point x="289" y="483"/>
      <point x="292" y="454"/>
      <point x="298" y="421" type="curve"/>
      <point x="402" y="461"/>
      <point x="483" y="483"/>
      <point x="483" y="561" type="curve" smooth="yes"/>
      <point x="483" y="602"/>
      <point x="451" y="633"/>
      <point x="403" y="633" type="curve" smooth="yes"/>
      <point x="331" y="633"/>
      <point x="289" y="587"/>
    </contour>
  </outline>
</glyph>
<glyph name="parenleft" format="1">
  <advance width="333"/>
  <unicode hex="0028"/>
  <outline>
    <contour>
      <point x="333" y="725" type="curve"/>
      <point x="417" y="725" type="line"/>
      <point x="229" y="559"/>
      <point x="135" y="360"/>
      <point x="135" y="128" type="curve" smooth="yes"/>
      <point x="135" y="1"/>
      <point x="169" y="-110"/>
      <point x="236" y="-207" type="curve"/>
      <point x="151" y="-207" type="line"/>
      <point x="82" y="-111"/>
      <point x="47" y="3"/>
      <point x="47" y="136" type="curve" smooth="yes"/>
      <point x="47" y="377"/>
      <point x="146" y="581"/>
    </contour>
  </outline>
</glyph>
<glyph name="parenright" format="1">
  <advance width="333"/>
  <unicode hex="0029"/>
  <outline>
    <contour>
      <point x="-12" y="-207" type="curve"/>
      <point x="-97" y="-207" type="line"/>
      <point x="91" y="-41"/>
      <point x="185" y="158"/>
      <point x="185" y="390" type="curve" smooth="yes"/>
      <point x="185" y="517"/>
      <point x="151" y="628"/>
      <point x="84" y="725" type="curve"/>
      <point x="169" y="725" type="line"/>
      <point x="238" y="628"/>
      <point x="273" y="514"/>
      <point x="273" y="382" type="curve" smooth="yes"/>
      <point x="273" y="139"/>
      <point x="173" y="-64"/>
    </contour>
  </outline>
</glyph>
<glyph name="comma" format="1">
  <advance width="278"/>
  <unicode hex="002C"/>
  <outline>
    <contour>
      <point x="78" y="-128" type="curve"/>
      <point x="18" y="-128" type="line"/>
      <point x="57" y="-83"/>
      <point x="81" y="-41"/>
      <point x="89" y="0" type="curve"/>
      <point x="46" y="0" type="line"/>
      <point x="66" y="107" type="line"/>
      <point x="162" y="107" type="line"/>
      <point x="146" y="25" type="line" smooth="yes"/>
      <point x="134" y="-36"/>
      <point x="114" y="-84"/>
    </contour>
  </outline>
</glyph>
<glyph name="hyphen" format="1">
  <advance width="333"/>
  <unicode hex="002D"/>
  <outline>
    <contour>
      <point x="295" y="227" type="line"/>
      <point x="51" y="227" type="line"/>
      <point x="66" y="305" type="line"/>
      <point x="311" y="305" type="line"/>
    </contour>
  </outline>
</glyph>
<glyph name="slash" format="1">
  <advance width="278"/>
  <unicode hex="002F"/>
  <outline>
    <contour>
      <point x="22" y="-10" type="line"/>
      <point x="-57" y="-10" type="line"/>
      <point x="287" y="725" type="line"/>
      <point x="364" y="725" type="line"/>
    </contour>
  </outline>
</glyph>
<glyph name="zero" format="1">
  <advance width="556"/>
  <unicode hex="0030"/>
  <outline>
    <contour>
      <point x="357" y="698" type="curve" smooth="yes"/>
      <point x="477" y="698"/>
      <point x="548" y="614"/>
      <point x="548" y="471" type="curve" smooth="yes"/>
      <point x="548" y="388"/>
      <point x="535" y="307"/>
      <point x="510" y="229" type="curve" smooth="yes"/>
      <point x="459" y="73"/>
      <point x="365" y="-10"/>
      <point x="232" y="-10" type="curve" smooth="yes"/>
      <point x="115" y="-10"/>
      <point x="43" y="79"/>
      <point x="43" y="227" type="curve" smooth="yes"/>
      <point x="43" y="286"/>
      <point x="50" y="345"/>
      <point x="65" y="406" type="curve" smooth="yes"/>
      <point x="80" y="467"/>
      <point x="100" y="519"/>
      <point x="126" y="563" type="curve" smooth="yes"/>
      <point x="178" y="651"/>
      <point x="253" y="698"/>
    </contour>
    <contour>
      <point x="240" y="62" type="curve" smooth="yes"/>
      <point x="289" y="62"/>
      <point x="329" y="79"/>
      <point x="360" y="114" type="curve" smooth="yes"/>
      <point x="391" y="149"/>
      <point x="416" y="202"/>
      <point x="434" y="275" type="curve" smooth="yes"/>
      <point x="453" y="348"/>
      <point x="462" y="414"/>
      <point x="462" y="475" type="curve" smooth="yes"/>
      <point x="462" y="576"/>
      <point x="421" y="627"/>
      <point x="352" y="627" type="curve" smooth="yes"/>
      <point x="303" y="627"/>
      <point x="262" y="610"/>
      <point x="231" y="575" type="curve" smooth="yes"/>
      <point x="200" y="540"/>
      <point x="176" y="487"/>
      <point x="157" y="414" type="curve" smooth="yes"/>
      <point x="138" y="341"/>
      <point x="129" y="275"/>
      <point x="129" y="214" type="curve" smooth="yes"/>
      <point x="129" y="113"/>
      <point x="169" y="62"/>
    </contour>
  </outline>
</glyph>
<glyph name="one" format="1">
  <advance width="556"/>
  <unicode hex="0031"/>
  <outline>
    <contour>
      <point x="457" y="0" type="line"/>
      <point x="26" y="0" type="line"/>
      <point x="41" y="75" type="line"/>
      <point x="216" y="75" type="line"/>
      <point x="317" y="597" type="line"/>
      <point x="141" y="488" type="line"/>
      <point x="158" y="576" type="line"/>
      <point x="342" y="688" type="line"/>
      <point x="423" y="688" type="line"/>
      <point x="304" y="75" type="line"/>
      <point x="472" y="75" type="line"/>
    </contour>
  </outline>
</glyph>
<glyph name="three" format="1">
  <advance width="556"/>
  <unicode hex="0033"/>
  <outline>
    <contour>
      <point x="229" y="388" type="line"/>
      <point x="276" y="388" type="line" smooth="yes"/>
      <point x="396" y="388"/>
      <point x="454" y="436"/>
      <point x="454" y="528" type="curve" smooth="yes"/>
      <point x="454" y="588"/>
      <point x="411" y="626"/>
      <point x="346" y="626" type="curve" smooth="yes"/>
      <point x="269" y="626"/>
      <point x="209" y="584"/>
      <point x="188" y="512" type="curve"/>
      <point x="101" y="519" type="line"/>
      <point x="138" y="640"/>
      <point x="228" y="698"/>
      <point x="351" y="698" type="curve" smooth="yes"/>
      <point x="472" y="698"/>
      <point x="547" y="634"/>
      <point x="547" y="530" type="curve" smooth="yes"/>
      <point x="547" y="431"/>
      <point x="481" y="365"/>
      <point x="368" y="350" type="curve"/>
      <point x="367" y="348" type="line"/>
      <point x="452" y="331"/>
      <point x="502" y="279"/>
      <point x="502" y="199" type="curve" smooth="yes"/>
      <point x="502" y="75"/>
      <point x="408" y="-10"/>
      <point x="257" y="-10" type="curve" smooth="yes"/>
      <point x="132" y="-10"/>
      <point x="49" y="59"/>
      <point x="23" y="165" type="curve"/>
      <point x="104" y="188" type="line"/>
      <point x="123" y="113"/>
      <point x="184" y="63"/>
      <point x="264" y="63" type="curve" smooth="yes"/>
      <point x="356" y="63"/>
      <point x="411" y="116"/>
      <point x="411" y="197" type="curve" smooth="yes"/>
      <point x="411" y="270"/>
      <point x="358" y="312"/>
      <point x="274" y="312" type="curve" smooth="yes"/>
      <point x="214" y="312" type="line"/>
    </contour>
  </outline>
</glyph>
<glyph name="four" format="1">
  <advance width="556"/>
  <unicode hex="0034"/>
  <outline>
    <contour>
      <point x="505" y="156" type="line"/>
      <point x="413" y="156" type="line"/>
      <point x="383" y="0" type="line"/>
      <point x="295" y="0" type="line"/>
      <point x="325" y="156" type="line"/>
      <point x="6" y="156" type="line"/>
      <point x="20" y="224" type="line"/>
      <point x="419" y="688" type="line"/>
      <point x="517" y="688" type="line"/>
      <point x="427" y="225" type="line"/>
      <point x="519" y="225" type="line"/>
    </contour>
    <contour>
      <point x="339" y="225" type="line"/>
      <point x="403" y="565" type="line"/>
      <point x="111" y="225" type="line"/>
    </contour>
  </outline>
</glyph>
<glyph name="five" format="1">
  <advance width="556"/>
  <unicode hex="0035"/>
  <outline>
    <contour>
      <point x="73" y="318" type="line"/>
      <point x="167" y="688" type="line"/>
      <point x="559" y="688" type="line"/>
      <point x="544" y="613" type="line"/>
      <point x="233" y="613" type="line"/>
      <point x="178" y="395" type="line"/>
      <point x="210" y="423"/>
      <point x="258" y="439"/>
      <point x="313" y="439" type="curve" smooth="yes"/>
      <point x="433" y="439"/>
      <point x="513" y="364"/>
      <point x="513" y="247" type="curve" smooth="yes"/>
      <point x="513" y="87"/>
      <point x="415" y="-10"/>
      <point x="247" y="-10" type="curve" smooth="yes"/>
      <point x="126" y="-10"/>
      <point x="51" y="44"/>
      <point x="22" y="151" type="curve"/>
      <point x="102" y="172" type="line"/>
      <point x="122" y="97"/>
      <point x="175" y="62"/>
      <point x="251" y="62" type="curve" smooth="yes"/>
      <point x="360" y="62"/>
      <point x="420" y="125"/>
      <point x="420" y="237" type="curve" smooth="yes"/>
      <point x="420" y="317"/>
      <point x="372" y="367"/>
      <point x="296" y="367" type="curve" smooth="yes"/>
      <point x="243" y="367"/>
      <point x="198" y="351"/>
      <point x="159" y="318" type="curve"/>
    </contour>
  </outline>
</glyph>
<glyph name="seven" format="1">
  <advance width="556"/>
  <unicode hex="0037"/>
  <outline>
    <contour>
      <point x="212" y="0" type="curve"/>
      <point x="121" y="0" type="line"/>
      <point x="134" y="67"/>
      <point x="154" y="130"/>
      <point x="181" y="189" type="curve" smooth="yes"/>
      <point x="208" y="249"/>
      <point x="242" y="308"/>
      <point x="283" y="367" type="curve" smooth="yes"/>
      <point x="324" y="426"/>
      <point x="390" y="508"/>
      <point x="481" y="613" type="curve"/>
      <point x="104" y="613" type="line"/>
      <point x="118" y="688" type="line"/>
      <point x="587" y="688" type="line"/>
      <point x="573" y="617" type="line"/>
      <point x="500" y="532"/>
      <point x="450" y="471"/>
      <point x="422" y="435" type="curve" smooth="yes"/>
      <point x="395" y="399"/>
      <point x="370" y="364"/>
      <point x="348" y="330" type="curve" smooth="yes"/>
      <point x="282" y="229"/>
      <point x="238" y="127"/>
    </contour>
  </outline>
</glyph>
<glyph name="semicolon" format="1">
  <advance width="278"/>
  <unicode hex="003B"/>
  <outline>
    <contour>
      <point x="79" y="-128" type="curve"/>
      <point x="19" y="-128" type="line"/>
      <point x="58" y="-83"/>
      <point x="81" y="-41"/>
      <point x="89" y="0" type="curve"/>
      <point x="46" y="0" type="line"/>
      <point x="66" y="101" type="line"/>
      <point x="161" y="101" type="line"/>
      <point x="146" y="25" type="line" smooth="yes"/>
      <point x="135" y="-36"/>
      <point x="114" y="-84"/>
    </contour>
    <contour>
      <point x="225" y="427" type="line"/>
      <point x="129" y="427" type="line"/>
      <point x="149" y="528" type="line"/>
      <point x="244" y="528" type="line"/>
    </contour>
  </outline>
</glyph>
<glyph name="question" format="1">
  <advance width="556"/>
  <unicode hex="003F"/>
  <outline>
    <contour>
      <point x="342" y="698" type="curve" smooth="yes"/>
      <point x="406" y="698"/>
      <point x="457" y="682"/>
      <point x="495" y="649" type="curve" smooth="yes"/>
      <point x="534" y="617"/>
      <point x="553" y="575"/>
      <point x="553" y="524" type="curve" smooth="yes"/>
      <point x="553" y="398"/>
      <point x="465" y="352"/>
      <point x="388" y="307" type="curve" smooth="yes"/>
      <point x="347" y="284"/>
      <point x="318" y="263"/>
      <point x="302" y="244" type="curve" smooth="yes"/>
      <point x="286" y="226"/>
      <point x="276" y="206"/>
      <point x="271" y="184" type="curve"/>
      <point x="186" y="184" type="line"/>
      <point x="190" y="210"/>
      <point x="198" y="233"/>
      <point x="209" y="252" type="curve" smooth="yes"/>
      <point x="220" y="271"/>
      <point x="234" y="289"/>
      <point x="251" y="304" type="curve" smooth="yes"/>
      <point x="268" y="319"/>
      <point x="299" y="339"/>
      <point x="343" y="364" type="curve" smooth="yes"/>
      <point x="378" y="384"/>
      <point x="402" y="401"/>
      <point x="417" y="414" type="curve" smooth="yes"/>
      <point x="446" y="441"/>
      <point x="462" y="473"/>
      <point x="462" y="514" type="curve" smooth="yes"/>
      <point x="462" y="578"/>
      <point x="410" y="620"/>
      <point x="334" y="620" type="curve" smooth="yes"/>
      <point x="243" y="620"/>
      <point x="183" y="572"/>
      <point x="158" y="492" type="curve"/>
      <point x="78" y="512" type="line"/>
      <point x="118" y="639"/>
      <point x="209" y="698"/>
    </contour>
    <contour>
      <point x="241" y="0" type="line"/>
      <point x="146" y="0" type="line"/>
      <point x="165" y="98" type="line"/>
      <point x="260" y="98" type="line"/>
    </contour>
  </outline>
</glyph>
<glyph name="bracketleft" format="1">
  <advance width="278"/>
  <unicode hex="005B"/>
  <outline>
    <contour>
      <point x="179" y="-208" type="line"/>
      <point x="-19" y="-208" type="line"/>
      <point x="162" y="725" type="line"/>
      <point x="360" y="725" type="line"/>
      <point x="348" y="662" type="line"/>
      <point x="234" y="662" type="line"/>
      <point x="78" y="-145" type="line"/>
      <point x="191" y="-145" type="line"/>
    </contour>
  </outline>
</glyph>
<glyph name="asciicircum" format="1">
  <advance width="469"/>
  <unicode hex="005E"/>
  <outline>
    <contour>
      <point x="479" y="329" type="line"/>
      <point x="399" y="329" type="line"/>
      <point x="248" y="638" type="line"/>
      <point x="99" y="329" type="line"/>
      <point x="20" y="329" type="line"/>
      <point x="199" y="688" type="line"/>
      <point x="298" y="688" type="line"/>
    </contour>
  </outline>
</glyph>
<glyph name="underscore" format="1">
  <advance width="556"/>
  <unicode hex="005F"/>
  <outline>
    <contour>
      <point x="497" y="-122" type="line"/>
      <point x="-78" y="-122" type="line"/>
      <point x="-78" y="-85" type="line"/>
      <point x="497" y="-85" type="line"/>
    </contour>
  </outline>
</glyph>
<glyph name="s" format="1">
  <advance width="500"/>
  <unicode hex="0073"/>
  <outline>
    <contour>
      <point x="443" y="155" type="curve"/>
      <point x="443" y="50"/>
      <point x="360" y="-10"/>
      <point x="208" y="-10" type="curve" smooth="yes"/>
      <point x="95" y="-10"/>
      <point x="29" y="26"/>
      <point x="2" y="109" type="curve"/>
      <point x="74" y="136" type="line"/>
      <point x="95" y="79"/>
      <point x="139" y="54"/>
      <point x="215" y="54" type="curve" smooth="yes"/>
      <point x="308" y="54"/>
      <point x="357" y="87"/>
      <point x="357" y="147" type="curve" smooth="yes"/>
      <point x="357" y="167"/>
      <point x="349" y="184"/>
      <point x="332" y="197" type="curve" smooth="yes"/>
      <point x="316" y="211"/>
      <point x="281" y="226"/>
      <point x="227" y="243" type="curve" smooth="yes"/>
      <point x="106" y="283"/>
      <point x="74" y="317"/>
      <point x="69" y="389" type="curve"/>
      <point x="69" y="484"/>
      <point x="148" y="537"/>
      <point x="285" y="537" type="curve" smooth="yes"/>
      <point x="400" y="537"/>
      <point x="465" y="495"/>
      <point x="479" y="412" type="curve"/>
      <point x="400" y="400" type="line"/>
      <point x="385" y="451"/>
      <point x="347" y="473"/>
      <point x="279" y="473" type="curve" smooth="yes"/>
      <point x="199" y="473"/>
      <point x="154" y="446"/>
      <point x="154" y="399" type="curve" smooth="yes"/>
      <point x="154" y="385"/>
      <point x="157" y="373"/>
      <point x="164" y="364" type="curve" smooth="yes"/>
      <point x="171" y="355"/>
      <point x="180" y="346"/>
      <point x="193" y="339" type="curve" smooth="yes"/>
      <point x="206" y="332"/>
      <point x="236" y="321"/>
      <point x="283" y="306" type="curve" smooth="yes"/>
      <point x="403" y="268"/>
      <point x="437" y="231"/>
    </contour>
  </outline>
</glyph>
<glyph name="v" format="1">
  <advance width="500"/>
  <unicode hex="0076"/>
  <outline>
    <contour>
      <point x="548" y="528" type="line"/>
      <point x="248" y="0" type="line"/>
      <point x="144" y="0" type="line"/>
      <point x="55" y="528" type="line"/>
      <point x="146" y="528" type="line"/>
      <point x="195" y="185" type="line" smooth="yes"/>
      <point x="198" y="162"/>
      <point x="202" y="132"/>
      <point x="205" y="95" type="curve" smooth="yes"/>
      <point x="207" y="69" type="line"/>
      <point x="219" y="95" type="line" smooth="yes"/>
      <point x="234" y="126"/>
      <point x="249" y="155"/>
      <point x="265" y="184" type="curve" smooth="yes"/>
      <point x="452" y="528" type="line"/>
    </contour>
  </outline>
</glyph>
<glyph name="bar" format="1">
  <advance width="260"/>
  <unicode hex="007C"/>
  <outline>
    <contour>
      <point x="185" y="-222" type="line"/>
      <point x="104" y="-222" type="line"/>
      <point x="104" y="725" type="line"/>
      <point x="185" y="725" type="line"/>
    </contour>
  </outline>
</glyph>
<glyph name="braceright" format="1">
  <advance width="334"/>
  <unicode hex="007D"/>
  <outline>
    <contour>
      <point x="104" y="725" type="line"/>
      <point x="150" y="725" type="line" smooth="yes"/>
      <point x="223" y="725"/>
      <point x="269" y="679"/>
      <point x="269" y="603" type="curve" smooth="yes"/>
      <point x="269" y="582"/>
      <point x="267" y="563"/>
      <point x="264" y="545" type="curve" smooth="yes"/>
      <point x="236" y="405" type="line" smooth="yes"/>
      <point x="233" y="391"/>
      <point x="232" y="379"/>
      <point x="232" y="368" type="curve" smooth="yes"/>
      <point x="232" y="313"/>
      <point x="263" y="293"/>
      <point x="319" y="290" type="curve"/>
      <point x="307" y="228" type="line"/>
      <point x="235" y="225"/>
      <point x="194" y="188"/>
      <point x="179" y="112" type="curve" smooth="yes"/>
      <point x="145" y="-64" type="line" smooth="yes"/>
      <point x="126" y="-157"/>
      <point x="81" y="-208"/>
      <point x="-12" y="-208" type="curve" smooth="yes"/>
      <point x="-78" y="-208" type="line"/>
      <point x="-65" y="-145" type="line"/>
      <point x="-35" y="-145" type="line" smooth="yes"/>
      <point x="24" y="-145"/>
      <point x="52" y="-119"/>
      <point x="68" y="-40" type="curve" smooth="yes"/>
      <point x="102" y="134" type="line" smooth="yes"/>
      <point x="114" y="197"/>
      <point x="160" y="244"/>
      <point x="220" y="257" type="curve"/>
      <point x="220" y="258" type="line"/>
      <point x="176" y="270"/>
      <point x="147" y="302"/>
      <point x="147" y="354" type="curve" smooth="yes"/>
      <point x="147" y="363"/>
      <point x="148" y="372"/>
      <point x="150" y="382" type="curve" smooth="yes"/>
      <point x="180" y="538" type="line" smooth="yes"/>
      <point x="183" y="554"/>
      <point x="186" y="586"/>
      <point x="186" y="598" type="curve" smooth="yes"/>
      <point x="186" y="601" type="line" smooth="yes"/>
      <point x="186" y="637"/>
      <point x="164" y="662"/>
      <point x="115" y="662" type="curve" smooth="yes"/>
      <point x="91" y="662" type="line"/>
    </contour>
  </outline>
</glyph>
<glyph name="exclamdown" format="1">
  <advance width="333"/>
  <unicode hex="00A1"/>
  <outline>
    <contour>
      <point x="31" y="-159" type="line"/>
      <point x="139" y="335" type="line"/>
      <point x="211" y="335" type="line"/>
      <point x="127" y="-159" type="line"/>
    </contour>
    <contour>
      <point x="167" y="529" type="line"/>
      <point x="262" y="529" type="line"/>
      <point x="242" y="431" type="line"/>
      <point x="147" y="431" type="line"/>
    </contour>
  </outline>
</glyph>
<glyph name="cent" format="1">
  <advance width="556"/>
  <unicode hex="00A2"/>
  <outline>
    <contour>
      <point x="273" y="136" type="curve" smooth="yes"/>
      <point x="340" y="136"/>
      <point x="388" y="173"/>
      <point x="415" y="248" type="curve"/>
      <point x="491" y="224" type="line"/>
      <point x="453" y="124"/>
      <point x="385" y="71"/>
      <point x="287" y="66" type="curve"/>
      <point x="271" y="-15" type="line"/>
      <point x="211" y="-15" type="line"/>
      <point x="228" y="69" type="line"/>
      <point x="131" y="84"/>
      <point x="77" y="156"/>
      <point x="77" y="269" type="curve" smooth="yes"/>
      <point x="77" y="357"/>
      <point x="103" y="454"/>
      <point x="146" y="515" type="curve" smooth="yes"/>
      <point x="189" y="576"/>
      <point x="248" y="610"/>
      <point x="333" y="614" type="curve"/>
      <point x="347" y="688" type="line"/>
      <point x="408" y="688" type="line"/>
      <point x="394" y="611" type="line"/>
      <point x="479" y="599"/>
      <point x="528" y="542"/>
      <point x="533" y="459" type="curve"/>
      <point x="447" y="447" type="line"/>
      <point x="443" y="510"/>
      <point x="406" y="545"/>
      <point x="347" y="545" type="curve" smooth="yes"/>
      <point x="306" y="545"/>
      <point x="272" y="534"/>
      <point x="247" y="512" type="curve" smooth="yes"/>
      <point x="222" y="490"/>
      <point x="202" y="455"/>
      <point x="188" y="407" type="curve" smooth="yes"/>
      <point x="174" y="360"/>
      <point x="167" y="313"/>
      <point x="167" y="266" type="curve" smooth="yes"/>
      <point x="167" y="179"/>
      <point x="202" y="136"/>
    </contour>
  </outline>
</glyph>
<glyph name="sterling" format="1">
  <advance width="556"/>
  <unicode hex="00A3"/>
  <outline>
    <contour>
      <point x="451" y="163" type="curve"/>
      <point x="525" y="151" type="line"/>
      <point x="501" y="52"/>
      <point x="433" y="0"/>
      <point x="336" y="0" type="curve" smooth="yes"/>
      <point x="-6" y="0" type="line"/>
      <point x="8" y="75" type="line"/>
      <point x="72" y="106"/>
      <point x="109" y="154"/>
      <point x="125" y="235" type="curve" smooth="yes"/>
      <point x="138" y="305" type="line"/>
      <point x="47" y="305" type="line"/>
      <point x="60" y="368" type="line"/>
      <point x="150" y="368" type="line"/>
      <point x="177" y="505" type="line" smooth="yes"/>
      <point x="204" y="638"/>
      <point x="277" y="698"/>
      <point x="398" y="698" type="curve" smooth="yes"/>
      <point x="495" y="698"/>
      <point x="560" y="654"/>
      <point x="575" y="586" type="curve"/>
      <point x="495" y="562" type="line"/>
      <point x="482" y="603"/>
      <point x="443" y="626"/>
      <point x="395" y="626" type="curve" smooth="yes"/>
      <point x="320" y="626"/>
      <point x="281" y="590"/>
      <point x="266" y="509" type="curve" smooth="yes"/>
      <point x="238" y="368" type="line"/>
      <point x="438" y="368" type="line"/>
      <point x="425" y="305" type="line"/>
      <point x="226" y="305" type="line"/>
      <point x="213" y="233" type="line" smooth="yes"/>
      <point x="200" y="161"/>
      <point x="156" y="102"/>
      <point x="99" y="75" type="curve"/>
      <point x="325" y="75" type="line" smooth="yes"/>
      <point x="392" y="75"/>
      <point x="434" y="100"/>
    </contour>
  </outline>
</glyph>
<glyph name="brokenbar" format="1">
  <advance width="260"/>
  <unicode hex="00A6"/>
  <outline>
    <contour>
      <point x="185" y="345" type="line"/>
      <point x="104" y="345" type="line"/>
      <point x="104" y="725" type="line"/>
      <point x="185" y="725" type="line"/>
    </contour>
    <contour>
      <point x="185" y="-222" type="line"/>
      <point x="104" y="-222" type="line"/>
      <point x="104" y="158" type="line"/>
      <point x="185" y="158" type="line"/>
    </contour>
  </outline>
</glyph>
<glyph name="section" format="1">
  <advance width="556"/>
  <unicode hex="00A7"/>
  <outline>
    <contour>
      <point x="493" y="329" type="curve" smooth="yes"/>
      <point x="493" y="256"/>
      <point x="448" y="209"/>
      <point x="359" y="189" type="curve"/>
      <point x="402" y="162"/>
      <point x="424" y="126"/>
      <point x="424" y="81" type="curve" smooth="yes"/>
      <point x="424" y="-26"/>
      <point x="342" y="-84"/>
      <point x="187" y="-84" type="curve" smooth="yes"/>
      <point x="76" y="-84"/>
      <point x="10" y="-48"/>
      <point x="-17" y="35" type="curve"/>
      <point x="55" y="62" type="line"/>
      <point x="76" y="5"/>
      <point x="120" y="-20"/>
      <point x="196" y="-20" type="curve" smooth="yes"/>
      <point x="289" y="-20"/>
      <point x="338" y="12"/>
      <point x="338" y="73" type="curve" smooth="yes"/>
      <point x="338" y="94"/>
      <point x="329" y="111"/>
      <point x="312" y="125" type="curve" smooth="yes"/>
      <point x="295" y="139"/>
      <point x="261" y="154"/>
      <point x="208" y="170" type="curve" smooth="yes"/>
      <point x="103" y="203"/>
      <point x="50" y="256"/>
      <point x="50" y="329" type="curve" smooth="yes"/>
      <point x="50" y="400"/>
      <point x="97" y="448"/>
      <point x="185" y="467" type="curve"/>
      <point x="141" y="495"/>
      <point x="119" y="532"/>
      <point x="119" y="577" type="curve" smooth="yes"/>
      <point x="119" y="672"/>
      <point x="198" y="725"/>
      <point x="339" y="725" type="curve" smooth="yes"/>
      <point x="452" y="725"/>
      <point x="515" y="683"/>
      <point x="530" y="600" type="curve"/>
      <point x="450" y="588" type="line"/>
      <point x="437" y="637"/>
      <point x="399" y="661"/>
      <point x="336" y="661" type="curve" smooth="yes"/>
      <point x="248" y="661"/>
      <point x="204" y="634"/>
      <point x="204" y="581" type="curve" smooth="yes"/>
      <point x="204" y="563"/>
      <point x="213" y="547"/>
      <point x="230" y="533" type="curve" smooth="yes"/>
      <point x="247" y="519"/>
      <point x="281" y="504"/>
      <point x="332" y="488" type="curve" smooth="yes"/>
      <point x="451" y="451"/>
      <point x="493" y="400"/>
    </contour>
    <contour>
      <point x="135" y="336" type="curve" smooth="yes"/>
      <point x="135" y="291"/>
      <point x="170" y="258"/>
      <point x="269" y="229" type="curve"/>
      <point x="354" y="232"/>
      <point x="408" y="266"/>
      <point x="408" y="323" type="curve" smooth="yes"/>
      <point x="408" y="340"/>
      <point x="403" y="354"/>
      <point x="394" y="366" type="curve" smooth="yes"/>
      <point x="385" y="379"/>
      <point x="371" y="390"/>
      <point x="353" y="399" type="curve" smooth="yes"/>
      <point x="336" y="408"/>
      <point x="305" y="420"/>
      <point x="260" y="433" type="curve"/>
      <point x="184" y="429"/>
      <point x="135" y="391"/>
    </contour>
  </outline>
</glyph>
<glyph name="dieresis" format="1">
  <advance width="333"/>
  <unicode hex="00A8"/>
  <outline>
    <contour>
      <point x="339" y="595" type="line"/>
      <point x="254" y="595" type="line"/>
      <point x="271" y="685" type="line"/>
      <point x="356" y="685" type="line"/>
    </contour>
    <contour>
      <point x="152" y="595" type="line"/>
      <point x="67" y="595" type="line"/>
      <point x="84" y="685" type="line"/>
      <point x="169" y="685" type="line"/>
    </contour>
  </outline>
</glyph>
<glyph name="ordfeminine" format="1">
  <advance width="370"/>
  <unicode hex="00AA"/>
  <outline>
    <contour>
      <point x="353" y="321" type="curve" smooth="yes"/>
      <point x="310" y="321"/>
      <point x="286" y="342"/>
      <point x="286" y="374" type="curve" smooth="yes"/>
      <point x="288" y="393" type="line"/>
      <point x="286" y="393" type="line"/>
      <point x="243" y="338"/>
      <point x="203" y="318"/>
      <point x="152" y="318" type="curve" smooth="yes"/>
      <point x="87" y="318"/>
      <point x="43" y="358"/>
      <point x="43" y="419" type="curve" smooth="yes"/>
      <point x="43" y="500"/>
      <point x="102" y="542"/>
      <point x="221" y="543" type="curve" smooth="yes"/>
      <point x="309" y="545" type="line"/>
      <point x="314" y="574"/>
      <point x="317" y="593"/>
      <point x="317" y="600" type="curve" smooth="yes"/>
      <point x="317" y="633"/>
      <point x="296" y="650"/>
      <point x="255" y="650" type="curve" smooth="yes"/>
      <point x="206" y="650"/>
      <point x="176" y="628"/>
      <point x="166" y="584" type="curve"/>
      <point x="101" y="592" type="line"/>
      <point x="120" y="663"/>
      <point x="171" y="699"/>
      <point x="256" y="699" type="curve" smooth="yes"/>
      <point x="339" y="699"/>
      <point x="386" y="662"/>
      <point x="386" y="602" type="curve" smooth="yes"/>
      <point x="386" y="589"/>
      <point x="384" y="576"/>
      <point x="381" y="561" type="curve" smooth="yes"/>
      <point x="355" y="427" type="line" smooth="yes"/>
      <point x="354" y="417"/>
      <point x="353" y="408"/>
      <point x="353" y="401" type="curve" smooth="yes"/>
      <point x="353" y="383"/>
      <point x="361" y="374"/>
      <point x="376" y="374" type="curve" smooth="yes"/>
      <point x="383" y="374"/>
      <point x="390" y="375"/>
      <point x="397" y="378" type="curve"/>
      <point x="390" y="327" type="line"/>
      <point x="378" y="323"/>
      <point x="366" y="321"/>
    </contour>
    <contour>
      <point x="295" y="475" type="curve" smooth="yes"/>
      <point x="300" y="500" type="line"/>
      <point x="232" y="498" type="line" smooth="yes"/>
      <point x="152" y="497"/>
      <point x="119" y="471"/>
      <point x="119" y="422" type="curve" smooth="yes"/>
      <point x="119" y="391"/>
      <point x="139" y="372"/>
      <point x="172" y="372" type="curve" smooth="yes"/>
      <point x="201" y="372"/>
      <point x="227" y="382"/>
      <point x="251" y="402" type="curve" smooth="yes"/>
      <point x="275" y="423"/>
      <point x="290" y="447"/>
    </contour>
  </outline>
</glyph>
<glyph name="guillemotleft" format="1">
  <advance width="556"/>
  <unicode hex="00AB"/>
  <outline>
    <contour>
      <point x="478" y="69" type="line"/>
      <point x="399" y="69" type="line"/>
      <point x="269" y="247" type="line"/>
      <point x="275" y="278" type="line"/>
      <point x="475" y="459" type="line"/>
      <point x="552" y="459" type="line"/>
      <point x="549" y="441" type="line"/>
      <point x="349" y="259" type="line"/>
      <point x="480" y="80" type="line"/>
    </contour>
    <contour>
      <point x="244" y="69" type="line"/>
      <point x="167" y="69" type="line"/>
      <point x="37" y="247" type="line"/>
      <point x="43" y="278" type="line"/>
      <point x="242" y="459" type="line"/>
      <point x="319" y="459" type="line"/>
      <point x="316" y="440" type="line"/>
      <point x="117" y="259" type="line"/>
      <point x="247" y="80" type="line"/>
    </contour>
  </outline>
</glyph>
<glyph name="registered" format="1">
  <advance width="737"/>
  <unicode hex="00AE"/>
  <outline>
    <contour>
      <point x="737" y="345" type="curve"/>
      <point x="743" y="157"/>
      <point x="572" y="-14"/>
      <point x="384" y="-8" type="curve" smooth="yes"/>
      <point x="320" y="-8"/>
      <point x="260" y="8"/>
      <point x="205" y="41" type="curve" smooth="yes"/>
      <point x="94" y="106"/>
      <point x="31" y="222"/>
      <point x="31" y="345" type="curve" smooth="yes"/>
      <point x="25" y="533"/>
      <point x="196" y="704"/>
      <point x="384" y="698" type="curve"/>
      <point x="574" y="703"/>
      <point x="742" y="534"/>
    </contour>
    <contour>
      <point x="692" y="345" type="curve"/>
      <point x="697" y="508"/>
      <point x="547" y="656"/>
      <point x="384" y="652" type="curve"/>
      <point x="220" y="656"/>
      <point x="72" y="508"/>
      <point x="77" y="345" type="curve"/>
      <point x="74" y="181"/>
      <point x="219" y="33"/>
      <point x="384" y="38" type="curve"/>
      <point x="550" y="34"/>
      <point x="697" y="182"/>
    </contour>
    <contour>
      <point x="553" y="141" type="line"/>
      <point x="482" y="141" type="line"/>
      <point x="385" y="305" type="line"/>
      <point x="306" y="305" type="line"/>
      <point x="306" y="141" type="line"/>
      <point x="244" y="141" type="line"/>
      <point x="244" y="547" type="line"/>
      <point x="394" y="547" type="line" smooth="yes"/>
      <point x="486" y="547"/>
      <point x="537" y="503"/>
      <point x="537" y="431" type="curve" smooth="yes"/>
      <point x="537" y="364"/>
      <point x="500" y="324"/>
      <point x="445" y="312" type="curve"/>
    </contour>
    <contour>
      <point x="475" y="430" type="curve" smooth="yes"/>
      <point x="475" y="475"/>
      <point x="442" y="499"/>
      <point x="389" y="499" type="curve" smooth="yes"/>
      <point x="306" y="499" type="line"/>
      <point x="306" y="352" type="line"/>
      <point x="395" y="352" type="line" smooth="yes"/>
      <point x="447" y="352"/>
      <point x="475" y="382"/>
    </contour>
  </outline>
</glyph>
<glyph name="overscore" format="1">
  <advance width="552"/>
  <unicode hex="00AF"/>
  <outline>
    <contour>
      <point x="561" y="791" type="line"/>
      <point x="561" y="734" type="line"/>
      <point x="-8" y="734" type="line"/>
      <point x="-8" y="791" type="line"/>
    </contour>
  </outline>
</glyph>
<glyph name="degree" format="1">
  <advance width="400"/>
  <unicode hex="00B0"/>
  <outline>
    <contour>
      <point x="376" y="559" type="curve" smooth="yes"/>
      <point x="376" y="520"/>
      <point x="362" y="487"/>
      <point x="334" y="460" type="curve" smooth="yes"/>
      <point x="307" y="433"/>
      <point x="274" y="420"/>
      <point x="236" y="420" type="curve" smooth="yes"/>
      <point x="197" y="420"/>
      <point x="164" y="434"/>
      <point x="137" y="461" type="curve" smooth="yes"/>
      <point x="110" y="488"/>
      <point x="96" y="521"/>
      <point x="96" y="559" type="curve" smooth="yes"/>
      <point x="96" y="597"/>
      <point x="109" y="630"/>
      <point x="136" y="657" type="curve" smooth="yes"/>
      <point x="163" y="684"/>
      <point x="197" y="698"/>
      <point x="236" y="698" type="curve" smooth="yes"/>
      <point x="275" y="698"/>
      <point x="308" y="684"/>
      <point x="335" y="657" type="curve" smooth="yes"/>
      <point x="362" y="630"/>
      <point x="376" y="598"/>
    </contour>
    <contour>
      <point x="323" y="559" type="curve" smooth="yes"/>
      <point x="323" y="608"/>
      <point x="284" y="647"/>
      <point x="236" y="647" type="curve" smooth="yes"/>
      <point x="187" y="647"/>
      <point x="149" y="607"/>
      <point x="149" y="559" type="curve" smooth="yes"/>
      <point x="149" y="511"/>
      <point x="188" y="471"/>
      <point x="236" y="471" type="curve" smooth="yes"/>
      <point x="284" y="471"/>
      <point x="323" y="510"/>
    </contour>
  </outline>
</glyph>
<glyph name="plusminus" format="1">
  <advance width="549"/>
  <unicode hex="00B1"/>
  <outline>
    <contour>
      <point x="518" y="332" type="line"/>
      <point x="311" y="332" type="line"/>
      <point x="311" y="139" type="line"/>
      <point x="239" y="139" type="line"/>
      <point x="239" y="332" type="line"/>
      <point x="32" y="332" type="line"/>
      <point x="32" y="403" type="line"/>
      <point x="239" y="403" type="line"/>
      <point x="239" y="595" type="line"/>
      <point x="311" y="595" type="line"/>
      <point x="311" y="403" type="line"/>
      <point x="518" y="403" type="line"/>
    </contour>
    <contour>
      <point x="518" y="0" type="line"/>
      <point x="32" y="0" type="line"/>
      <point x="32" y="71" type="line"/>
      <point x="518" y="71" type="line"/>
    </contour>
  </outline>
</glyph>
<glyph name="threesuperior" format="1">
  <advance width="333"/>
  <unicode hex="00B3"/>
  <outline>
    <contour>
      <point x="152" y="459" type="line"/>
      <point x="162" y="512" type="line"/>
      <point x="190" y="512" type="line" smooth="yes"/>
      <point x="253" y="512"/>
      <point x="288" y="541"/>
      <point x="288" y="588" type="curve" smooth="yes"/>
      <point x="288" y="619"/>
      <point x="265" y="642"/>
      <point x="228" y="642" type="curve" smooth="yes"/>
      <point x="184" y="642"/>
      <point x="150" y="619"/>
      <point x="138" y="576" type="curve"/>
      <point x="77" y="588" type="line"/>
      <point x="99" y="659"/>
      <point x="151" y="694"/>
      <point x="233" y="694" type="curve" smooth="yes"/>
      <point x="305" y="694"/>
      <point x="355" y="654"/>
      <point x="355" y="595" type="curve" smooth="yes"/>
      <point x="355" y="536"/>
      <point x="320" y="500"/>
      <point x="249" y="486" type="curve"/>
      <point x="249" y="485" type="line"/>
      <point x="297" y="477"/>
      <point x="329" y="443"/>
      <point x="329" y="399" type="curve" smooth="yes"/>
      <point x="329" y="320"/>
      <point x="266" y="269"/>
      <point x="171" y="269" type="curve" smooth="yes"/>
      <point x="86" y="269"/>
      <point x="37" y="307"/>
      <point x="26" y="383" type="curve"/>
      <point x="89" y="391" type="line"/>
      <point x="94" y="344"/>
      <point x="126" y="320"/>
      <point x="174" y="320" type="curve" smooth="yes"/>
      <point x="230" y="320"/>
      <point x="262" y="351"/>
      <point x="262" y="400" type="curve" smooth="yes"/>
      <point x="262" y="436"/>
      <point x="231" y="459"/>
      <point x="182" y="459" type="curve" smooth="yes"/>
    </contour>
  </outline>
</glyph>
<glyph name="paragraph" format="1">
  <advance width="537"/>
  <unicode hex="00B6"/>
  <outline>
    <contour>
      <point x="526" y="638" type="line"/>
      <point x="463" y="638" type="line"/>
      <point x="463" y="-129" type="line"/>
      <point x="408" y="-129" type="line"/>
      <point x="408" y="638" type="line"/>
      <point x="302" y="638" type="line"/>
      <point x="302" y="-129" type="line"/>
      <point x="247" y="-129" type="line"/>
      <point x="247" y="339" type="line"/>
      <point x="138" y="339"/>
      <point x="70" y="401"/>
      <point x="70" y="512" type="curve" smooth="yes"/>
      <point x="70" y="623"/>
      <point x="139" y="688"/>
      <point x="251" y="688" type="curve" smooth="yes"/>
      <point x="526" y="688" type="line"/>
    </contour>
  </outline>
</glyph>
<glyph name="guillemotright" format="1">
  <advance width="556"/>
  <unicode hex="00BB"/>
  <outline>
    <contour>
      <point x="512" y="247" type="line"/>
      <point x="313" y="69" type="line"/>
      <point x="235" y="69" type="line"/>
      <point x="239" y="88" type="line"/>
      <point x="439" y="267" type="line"/>
      <point x="310" y="449" type="line"/>
      <point x="312" y="459" type="line"/>
      <point x="388" y="459" type="line"/>
      <point x="518" y="278" type="line"/>
    </contour>
    <contour>
      <point x="279" y="247" type="line"/>
      <point x="81" y="69" type="line"/>
      <point x="2" y="69" type="line"/>
      <point x="6" y="88" type="line"/>
      <point x="206" y="267" type="line"/>
      <point x="77" y="449" type="line"/>
      <point x="79" y="459" type="line"/>
      <point x="156" y="459" type="line"/>
      <point x="285" y="278" type="line"/>
    </contour>
  </outline>
</glyph>
<glyph name="onequarter" format="1">
  <advance width="834"/>
  <unicode hex="00BC"/>
  <outline>
    <contour>
      <point x="318" y="275" type="line"/>
      <point x="47" y="275" type="line"/>
      <point x="57" y="327" type="line"/>
      <point x="160" y="327" type="line"/>
      <point x="217" y="625" type="line"/>
      <point x="105" y="557" type="line"/>
      <point x="118" y="621" type="line"/>
      <point x="234" y="688" type="line"/>
      <point x="294" y="688" type="line"/>
      <point x="224" y="327" type="line"/>
      <point x="329" y="327" type="line"/>
    </contour>
    <contour>
      <point x="771" y="688" type="line"/>
      <point x="208" y="0" type="line"/>
      <point x="134" y="0" type="line"/>
      <point x="695" y="688" type="line"/>
    </contour>
    <contour>
      <point x="763" y="87" type="line"/>
      <point x="702" y="87" type="line"/>
      <point x="685" y="0" type="line"/>
      <point x="621" y="0" type="line"/>
      <point x="638" y="87" type="line"/>
      <point x="440" y="87" type="line"/>
      <point x="450" y="142" type="line"/>
      <point x="687" y="414" type="line"/>
      <point x="765" y="414" type="line"/>
      <point x="712" y="143" type="line"/>
      <point x="773" y="143" type="line"/>
    </contour>
    <contour>
      <point x="679" y="300" type="line"/>
      <point x="689" y="349" type="line"/>
      <point x="637" y="283" type="line"/>
      <point x="517" y="143" type="line"/>
      <point x="648" y="143" type="line"/>
    </contour>
  </outline>
</glyph>
<glyph name="Acircumflex" format="1">
  <advance width="667"/>
  <unicode hex="00C2"/>
  <outline>
    <contour>
      <point x="622" y="0" type="line"/>
      <point x="527" y="0" type="line"/>
      <point x="490" y="201" type="line"/>
      <point x="178" y="201" type="line"/>
      <point x="61" y="0" type="line"/>
      <point x="-41" y="0" type="line"/>
      <point x="374" y="688" type="line"/>
      <point x="479" y="688" type="line"/>
    </contour>
    <contour>
      <point x="427" y="544" type="line"/>
      <point x="414" y="618" type="line"/>
      <point x="410" y="609"/>
      <point x="404" y="598"/>
      <point x="396" y="584" type="curve" smooth="yes"/>
      <point x="219" y="274" type="line"/>
      <point x="477" y="274" type="line"/>
    </contour>
    <contour>
      <point x="498" y="874" type="line"/>
      <point x="584" y="757" type="line"/>
      <point x="583" y="747" type="line"/>
      <point x="536" y="747" type="line"/>
      <point x="442" y="815" type="line"/>
      <point x="441" y="815" type="line"/>
      <point x="315" y="747" type="line"/>
      <point x="260" y="747" type="line"/>
      <point x="262" y="757" type="line"/>
      <point x="398" y="874" type="line"/>
    </contour>
  </outline>
</glyph>
<glyph name="Adieresis" format="1">
  <advance width="667"/>
  <unicode hex="00C4"/>
  <outline>
    <contour>
      <point x="622" y="0" type="line"/>
      <point x="527" y="0" type="line"/>
      <point x="490" y="201" type="line"/>
      <point x="178" y="201" type="line"/>
      <point x="61" y="0" type="line"/>
      <point x="-41" y="0" type="line"/>
      <point x="374" y="688" type="line"/>
      <point x="479" y="688" type="line"/>
    </contour>
    <contour>
      <point x="427" y="544" type="line"/>
      <point x="414" y="618" type="line"/>
      <point x="410" y="609"/>
      <point x="404" y="598"/>
      <point x="396" y="584" type="curve" smooth="yes"/>
      <point x="219" y="274" type="line"/>
      <point x="477" y="274" type="line"/>
    </contour>
    <contour>
      <point x="568" y="747" type="line"/>
      <point x="483" y="747" type="line"/>
      <point x="500" y="837" type="line"/>
      <point x="585" y="837" type="line"/>
    </contour>
    <contour>
      <point x="381" y="747" type="line"/>
      <point x="296" y="747" type="line"/>
      <point x="313" y="837" type="line"/>
      <point x="398" y="837" type="line"/>
    </contour>
  </outline>
</glyph>
<glyph name="Aring" format="1">
  <advance width="667"/>
  <unicode hex="00C5"/>
  <outline>
    <contour>
      <point x="613" y="0" type="line"/>
      <point x="518" y="0" type="line"/>
      <point x="481" y="201" type="line"/>
      <point x="169" y="201" type="line"/>
      <point x="52" y="0" type="line"/>
      <point x="-49" y="0" type="line"/>
      <point x="365" y="688" type="line"/>
      <point x="471" y="688" type="line"/>
    </contour>
    <contour>
      <point x="418" y="544" type="line"/>
      <point x="405" y="618" type="line"/>
      <point x="401" y="609"/>
      <point x="395" y="598"/>
      <point x="387" y="584" type="curve" smooth="yes"/>
      <point x="210" y="274" type="line"/>
      <point x="468" y="274" type="line"/>
    </contour>
    <contour>
      <point x="537" y="755" type="curve" smooth="yes"/>
      <point x="537" y="722"/>
      <point x="525" y="694"/>
      <point x="502" y="671" type="curve" smooth="yes"/>
      <point x="479" y="648"/>
      <point x="452" y="637"/>
      <point x="419" y="637" type="curve" smooth="yes"/>
      <point x="386" y="637"/>
      <point x="358" y="648"/>
      <point x="335" y="671" type="curve" smooth="yes"/>
      <point x="312" y="694"/>
      <point x="301" y="722"/>
      <point x="301" y="755" type="curve" smooth="yes"/>
      <point x="301" y="788"/>
      <point x="312" y="815"/>
      <point x="335" y="838" type="curve" smooth="yes"/>
      <point x="358" y="861"/>
      <point x="386" y="873"/>
      <point x="419" y="873" type="curve" smooth="yes"/>
      <point x="451" y="873"/>
      <point x="479" y="861"/>
      <point x="502" y="838" type="curve" smooth="yes"/>
      <point x="525" y="815"/>
      <point x="537" y="788"/>
    </contour>
    <contour>
      <point x="484" y="755" type="curve" smooth="yes"/>
      <point x="484" y="792"/>
      <point x="456" y="820"/>
      <point x="419" y="820" type="curve" smooth="yes"/>
      <point x="380" y="820"/>
      <point x="353" y="791"/>
      <point x="353" y="755" type="curve" smooth="yes"/>
      <point x="353" y="719"/>
      <point x="380" y="688"/>
      <point x="419" y="688" type="curve" smooth="yes"/>
      <point x="456" y="688"/>
      <point x="484" y="718"/>
    </contour>
  </outline>
</glyph>
<glyph name="Ccedilla" format="1">
  <advance width="722"/>
  <unicode hex="00C7"/>
  <outline>
    <contour>
      <point x="593" y="208" type="curve"/>
      <point x="663" y="165" type="line"/>
      <point x="582" y="42"/>
      <point x="479" y="-10"/>
      <point x="342" y="-10" type="curve" smooth="yes"/>
      <point x="162" y="-10"/>
      <point x="55" y="104"/>
      <point x="55" y="278" type="curve" smooth="yes"/>
      <point x="55" y="358"/>
      <point x="72" y="430"/>
      <point x="106" y="495" type="curve" smooth="yes"/>
      <point x="175" y="624"/>
      <point x="303" y="698"/>
      <point x="452" y="698" type="curve" smooth="yes"/>
      <point x="593" y="698"/>
      <point x="696" y="637"/>
      <point x="728" y="530" type="curve"/>
      <point x="640" y="503" type="line"/>
      <point x="616" y="576"/>
      <point x="546" y="622"/>
      <point x="447" y="622" type="curve" smooth="yes"/>
      <point x="266" y="622"/>
      <point x="147" y="483"/>
      <point x="147" y="276" type="curve" smooth="yes"/>
      <point x="147" y="147"/>
      <point x="223" y="66"/>
      <point x="348" y="66" type="curve" smooth="yes"/>
      <point x="444" y="66"/>
      <point x="529" y="115"/>
    </contour>
    <contour>
      <point x="375" y="0" type="line"/>
      <point x="346" y="-47" type="line"/>
      <point x="398" y="-50"/>
      <point x="425" y="-74"/>
      <point x="425" y="-113" type="curve" smooth="yes"/>
      <point x="425" y="-176"/>
      <point x="376" y="-208"/>
      <point x="277" y="-208" type="curve" smooth="yes"/>
      <point x="260" y="-208"/>
      <point x="243" y="-207"/>
      <point x="225" y="-204" type="curve"/>
      <point x="235" y="-160" type="line"/>
      <point x="251" y="-162"/>
      <point x="265" y="-163"/>
      <point x="278" y="-163" type="curve" smooth="yes"/>
      <point x="338" y="-163"/>
      <point x="359" y="-148"/>
      <point x="359" y="-119" type="curve" smooth="yes"/>
      <point x="359" y="-96"/>
      <point x="340" y="-84"/>
      <point x="301" y="-84" type="curve" smooth="yes"/>
      <point x="287" y="-84"/>
      <point x="278" y="-84"/>
      <point x="273" y="-85" type="curve" smooth="yes"/>
      <point x="322" y="0" type="line"/>
    </contour>
  </outline>
</glyph>
<glyph name="Egrave" format="1">
  <advance width="667"/>
  <unicode hex="00C8"/>
  <outline>
    <contour>
      <point x="563" y="0" type="line"/>
      <point x="31" y="0" type="line"/>
      <point x="164" y="688" type="line"/>
      <point x="676" y="688" type="line"/>
      <point x="662" y="612" type="line"/>
      <point x="243" y="612" type="line"/>
      <point x="200" y="391" type="line"/>
      <point x="589" y="391" type="line"/>
      <point x="575" y="316" type="line"/>
      <point x="185" y="316" type="line"/>
      <point x="139" y="76" type="line"/>
      <point x="578" y="76" type="line"/>
    </contour>
    <contour>
      <point x="501" y="747" type="line"/>
      <point x="458" y="747" type="line"/>
      <point x="314" y="853" type="line"/>
      <point x="317" y="867" type="line"/>
      <point x="418" y="867" type="line"/>
      <point x="502" y="757" type="line"/>
    </contour>
  </outline>
</glyph>
<glyph name="Ecircumflex" format="1">
  <advance width="667"/>
  <unicode hex="00CA"/>
  <outline>
    <contour>
      <point x="563" y="0" type="line"/>
      <point x="31" y="0" type="line"/>
      <point x="164" y="688" type="line"/>
      <point x="676" y="688" type="line"/>
      <point x="662" y="612" type="line"/>
      <point x="243" y="612" type="line"/>
      <point x="200" y="391" type="line"/>
      <point x="589" y="391" type="line"/>
      <point x="575" y="316" type="line"/>
      <point x="185" y="316" type="line"/>
      <point x="139" y="76" type="line"/>
      <point x="578" y="76" type="line"/>
    </contour>
    <contour>
      <point x="502" y="874" type="line"/>
      <point x="589" y="757" type="line"/>
      <point x="587" y="747" type="line"/>
      <point x="541" y="747" type="line"/>
      <point x="447" y="815" type="line"/>
      <point x="446" y="815" type="line"/>
      <point x="319" y="747" type="line"/>
      <point x="264" y="747" type="line"/>
      <point x="266" y="757" type="line"/>
      <point x="403" y="874" type="line"/>
    </contour>
  </outline>
</glyph>
<glyph name="Igrave" format="1">
  <advance width="278"/>
  <unicode hex="00CC"/>
  <outline>
    <contour>
      <point x="133" y="0" type="line"/>
      <point x="40" y="0" type="line"/>
      <point x="173" y="688" type="line"/>
      <point x="267" y="688" type="line"/>
    </contour>
    <contour>
      <point x="290" y="747" type="line"/>
      <point x="246" y="747" type="line"/>
      <point x="103" y="853" type="line"/>
      <point x="105" y="867" type="line"/>
      <point x="207" y="867" type="line"/>
      <point x="291" y="757" type="line"/>
    </contour>
  </outline>
</glyph>
<glyph name="Iacute" format="1">
  <advance width="278"/>
  <unicode hex="00CD"/>
  <outline>
    <contour>
      <point x="133" y="0" type="line"/>
      <point x="40" y="0" type="line"/>
      <point x="173" y="688" type="line"/>
      <point x="267" y="688" type="line"/>
    </contour>
    <contour>
      <point x="234" y="747" type="line"/>
      <point x="178" y="747" type="line"/>
      <point x="180" y="757" type="line"/>
      <point x="307" y="867" type="line"/>
      <point x="408" y="867" type="line"/>
      <point x="406" y="853" type="line"/>
    </contour>
  </outline>
</glyph>
<glyph name="Ntilde" format="1">
  <advance width="722"/>
  <unicode hex="00D1"/>
  <outline>
    <contour>
      <point x="589" y="0" type="line"/>
      <point x="482" y="0" type="line"/>
      <point x="223" y="591" type="line"/>
      <point x="216" y="535"/>
      <point x="209" y="491"/>
      <point x="202" y="460" type="curve" smooth="yes"/>
      <point x="114" y="0" type="line"/>
      <point x="31" y="0" type="line"/>
      <point x="164" y="688" type="line"/>
      <point x="268" y="688" type="line"/>
      <point x="528" y="95" type="line"/>
      <point x="537" y="156"/>
      <point x="544" y="202"/>
      <point x="550" y="233" type="curve" smooth="yes"/>
      <point x="639" y="688" type="line"/>
      <point x="723" y="688" type="line"/>
    </contour>
    <contour>
      <point x="530" y="747" type="curve"/>
      <point x="474" y="747"/>
      <point x="432" y="810"/>
      <point x="393" y="810" type="curve" smooth="yes"/>
      <point x="362" y="810"/>
      <point x="344" y="792"/>
      <point x="328" y="747" type="curve"/>
      <point x="279" y="747" type="line"/>
      <point x="310" y="846"/>
      <point x="348" y="878"/>
      <point x="401" y="878" type="curve" smooth="yes"/>
      <point x="460" y="878"/>
      <point x="498" y="815"/>
      <point x="538" y="815" type="curve" smooth="yes"/>
      <point x="568" y="815"/>
      <point x="590" y="836"/>
      <point x="603" y="878" type="curve"/>
      <point x="652" y="878" type="line"/>
      <point x="619" y="776"/>
      <point x="592" y="753"/>
    </contour>
  </outline>
</glyph>
<glyph name="Thorn" format="1">
  <advance width="667"/>
  <unicode hex="00DE"/>
  <outline>
    <contour>
      <point x="153" y="145" type="line"/>
      <point x="124" y="0" type="line"/>
      <point x="31" y="0" type="line"/>
      <point x="165" y="688" type="line"/>
      <point x="258" y="688" type="line"/>
      <point x="234" y="565" type="line"/>
      <point x="394" y="565" type="line" smooth="yes"/>
      <point x="547" y="565"/>
      <point x="638" y="495"/>
      <point x="638" y="375" type="curve" smooth="yes"/>
      <point x="638" y="232"/>
      <point x="532" y="145"/>
      <point x="360" y="145" type="curve" smooth="yes"/>
    </contour>
    <contour>
      <point x="221" y="490" type="line"/>
      <point x="168" y="219" type="line"/>
      <point x="357" y="219" type="line" smooth="yes"/>
      <point x="481" y="219"/>
      <point x="543" y="270"/>
      <point x="543" y="371" type="curve" smooth="yes"/>
      <point x="543" y="448"/>
      <point x="491" y="490"/>
      <point x="391" y="490" type="curve" smooth="yes"/>
    </contour>
  </outline>
</glyph>
<glyph name="germandbls" format="1">
  <advance width="611"/>
  <unicode hex="00DF"/>
  <outline>
    <contour>
      <point x="104" y="0" type="line"/>
      <point x="17" y="0" type="line"/>
      <point x="114" y="501" type="line" smooth="yes"/>
      <point x="145" y="656"/>
      <point x="229" y="725"/>
      <point x="372" y="725" type="curve" smooth="yes"/>
      <point x="487" y="725"/>
      <point x="563" y="667"/>
      <point x="563" y="584" type="curve" smooth="yes"/>
      <point x="563" y="535"/>
      <point x="538" y="493"/>
      <point x="487" y="459" type="curve" smooth="yes"/>
      <point x="456" y="438"/>
      <point x="435" y="422"/>
      <point x="425" y="412" type="curve" smooth="yes"/>
      <point x="416" y="402"/>
      <point x="411" y="391"/>
      <point x="411" y="379" type="curve" smooth="yes"/>
      <point x="411" y="354"/>
      <point x="428" y="330"/>
      <point x="480" y="283" type="curve" smooth="yes"/>
      <point x="525" y="240"/>
      <point x="548" y="196"/>
      <point x="548" y="150" type="curve" smooth="yes"/>
      <point x="548" y="47"/>
      <point x="474" y="-14"/>
      <point x="349" y="-14" type="curve" smooth="yes"/>
      <point x="293" y="-14"/>
      <point x="235" y="-3"/>
      <point x="204" y="13" type="curve"/>
      <point x="231" y="83" type="line"/>
      <point x="269" y="65"/>
      <point x="309" y="56"/>
      <point x="351" y="56" type="curve" smooth="yes"/>
      <point x="423" y="56"/>
      <point x="462" y="89"/>
      <point x="462" y="149" type="curve" smooth="yes"/>
      <point x="462" y="185"/>
      <point x="443" y="217"/>
      <point x="395" y="258" type="curve" smooth="yes"/>
      <point x="347" y="299"/>
      <point x="327" y="332"/>
      <point x="327" y="369" type="curve" smooth="yes"/>
      <point x="327" y="418"/>
      <point x="353" y="455"/>
      <point x="402" y="484" type="curve" smooth="yes"/>
      <point x="455" y="515"/>
      <point x="476" y="542"/>
      <point x="476" y="579" type="curve" smooth="yes"/>
      <point x="476" y="624"/>
      <point x="433" y="656"/>
      <point x="368" y="656" type="curve" smooth="yes"/>
      <point x="273" y="656"/>
      <point x="222" y="604"/>
      <point x="201" y="499" type="curve" smooth="yes"/>
    </contour>
  </outline>
</glyph>
<glyph name="agrave" format="1">
  <advance width="556"/>
  <unicode hex="00E0"/>
  <outline>
    <contour>
      <point x="456" y="-5" type="curve" smooth="yes"/>
      <point x="395" y="-5"/>
      <point x="369" y="21"/>
      <point x="369" y="70" type="curve" smooth="yes"/>
      <point x="371" y="101" type="line"/>
      <point x="368" y="101" type="line"/>
      <point x="315" y="20"/>
      <point x="262" y="-10"/>
      <point x="179" y="-10" type="curve" smooth="yes"/>
      <point x="134" y="-10"/>
      <point x="97" y="4"/>
      <point x="68" y="31" type="curve" smooth="yes"/>
      <point x="39" y="58"/>
      <point x="25" y="93"/>
      <point x="25" y="136" type="curve" smooth="yes"/>
      <point x="25" y="256"/>
      <point x="108" y="318"/>
      <point x="296" y="321" type="curve" smooth="yes"/>
      <point x="410" y="322" type="line"/>
      <point x="416" y="354"/>
      <point x="419" y="375"/>
      <point x="419" y="384" type="curve" smooth="yes"/>
      <point x="419" y="444"/>
      <point x="382" y="471"/>
      <point x="321" y="471" type="curve" smooth="yes"/>
      <point x="244" y="471"/>
      <point x="209" y="444"/>
      <point x="190" y="387" type="curve"/>
      <point x="104" y="401" type="line"/>
      <point x="132" y="497"/>
      <point x="203" y="538"/>
      <point x="326" y="538" type="curve" smooth="yes"/>
      <point x="438" y="538"/>
      <point x="507" y="482"/>
      <point x="507" y="394" type="curve" smooth="yes"/>
      <point x="507" y="373"/>
      <point x="504" y="348"/>
      <point x="498" y="317" type="curve" smooth="yes"/>
      <point x="461" y="133" type="line" smooth="yes"/>
      <point x="458" y="117"/>
      <point x="456" y="103"/>
      <point x="456" y="90" type="curve" smooth="yes"/>
      <point x="456" y="66"/>
      <point x="469" y="54"/>
      <point x="496" y="54" type="curve" smooth="yes"/>
      <point x="505" y="54"/>
      <point x="514" y="55"/>
      <point x="525" y="58" type="curve"/>
      <point x="518" y="3" type="line"/>
      <point x="497" y="-2"/>
      <point x="476" y="-5"/>
    </contour>
    <contour>
      <point x="385" y="201" type="curve" smooth="yes"/>
      <point x="398" y="262" type="line"/>
      <point x="301" y="260" type="line" smooth="yes"/>
      <point x="224" y="257"/>
      <point x="182" y="245"/>
      <point x="158" y="226" type="curve" smooth="yes"/>
      <point x="134" y="207"/>
      <point x="119" y="180"/>
      <point x="119" y="140" type="curve" smooth="yes"/>
      <point x="119" y="91"/>
      <point x="153" y="57"/>
      <point x="204" y="57" type="curve" smooth="yes"/>
      <point x="298" y="57"/>
      <point x="369" y="126"/>
    </contour>
    <contour>
      <point x="411" y="586" type="line"/>
      <point x="368" y="586" type="line"/>
      <point x="230" y="722" type="line"/>
      <point x="232" y="736" type="line"/>
      <point x="333" y="736" type="line"/>
      <point x="412" y="596" type="line"/>
    </contour>
  </outline>
</glyph>
<glyph name="acircumflex" format="1">
  <advance width="556"/>
  <unicode hex="00E2"/>
  <outline>
    <contour>
      <point x="456" y="-5" type="curve" smooth="yes"/>
      <point x="395" y="-5"/>
      <point x="369" y="21"/>
      <point x="369" y="70" type="curve" smooth="yes"/>
      <point x="371" y="101" type="line"/>
      <point x="368" y="101" type="line"/>
      <point x="315" y="20"/>
      <point x="262" y="-10"/>
      <point x="179" y="-10" type="curve" smooth="yes"/>
      <point x="134" y="-10"/>
      <point x="97" y="4"/>
      <point x="68" y="31" type="curve" smooth="yes"/>
      <point x="39" y="58"/>
      <point x="25" y="93"/>
      <point x="25" y="136" type="curve" smooth="yes"/>
      <point x="25" y="256"/>
      <point x="108" y="318"/>
      <point x="296" y="321" type="curve" smooth="yes"/>
      <point x="410" y="322" type="line"/>
      <point x="416" y="354"/>
      <point x="419" y="375"/>
      <point x="419" y="384" type="curve" smooth="yes"/>
      <point x="419" y="444"/>
      <point x="382" y="471"/>
      <point x="321" y="471" type="curve" smooth="yes"/>
      <point x="244" y="471"/>
      <point x="209" y="444"/>
      <point x="190" y="387" type="curve"/>
      <point x="104" y="401" type="line"/>
      <point x="132" y="497"/>
      <point x="203" y="538"/>
      <point x="326" y="538" type="curve" smooth="yes"/>
      <point x="438" y="538"/>
      <point x="507" y="482"/>
      <point x="507" y="394" type="curve" smooth="yes"/>
      <point x="507" y="373"/>
      <point x="504" y="348"/>
      <point x="498" y="317" type="curve" smooth="yes"/>
      <point x="461" y="133" type="line" smooth="yes"/>
      <point x="458" y="117"/>
      <point x="456" y="103"/>
      <point x="456" y="90" type="curve" smooth="yes"/>
      <point x="456" y="66"/>
      <point x="469" y="54"/>
      <point x="496" y="54" type="curve" smooth="yes"/>
      <point x="505" y="54"/>
      <point x="514" y="55"/>
      <point x="525" y="58" type="curve"/>
      <point x="518" y="3" type="line"/>
      <point x="497" y="-2"/>
      <point x="476" y="-5"/>
    </contour>
    <contour>
      <point x="385" y="201" type="curve" smooth="yes"/>
      <point x="398" y="262" type="line"/>
      <point x="301" y="260" type="line" smooth="yes"/>
      <point x="224" y="257"/>
      <point x="182" y="245"/>
      <point x="158" y="226" type="curve" smooth="yes"/>
      <point x="134" y="207"/>
      <point x="119" y="180"/>
      <point x="119" y="140" type="curve" smooth="yes"/>
      <point x="119" y="91"/>
      <point x="153" y="57"/>
      <point x="204" y="57" type="curve" smooth="yes"/>
      <point x="298" y="57"/>
      <point x="369" y="126"/>
    </contour>
    <contour>
      <point x="408" y="728" type="line"/>
      <point x="492" y="596" type="line"/>
      <point x="490" y="586" type="line"/>
      <point x="445" y="586" type="line"/>
      <point x="354" y="669" type="line"/>
      <point x="353" y="669" type="line"/>
      <point x="224" y="586" type="line"/>
      <point x="167" y="586" type="line"/>
      <point x="169" y="596" type="line"/>
      <point x="309" y="728" type="line"/>
    </contour>
  </outline>
</glyph>
<glyph name="igrave" format="1">
  <advance width="278"/>
  <unicode hex="00EC"/>
  <outline>
    <contour>
      <point x="131" y="0" type="line"/>
      <point x="43" y="0" type="line"/>
      <point x="146" y="528" type="line"/>
      <point x="234" y="528" type="line"/>
    </contour>
    <contour>
      <point x="242" y="586" type="line"/>
      <point x="199" y="586" type="line"/>
      <point x="62" y="722" type="line"/>
      <point x="64" y="736" type="line"/>
      <point x="165" y="736" type="line"/>
      <point x="244" y="596" type="line"/>
    </contour>
  </outline>
</glyph>
<glyph name="icircumflex" format="1">
  <advance width="278"/>
  <unicode hex="00EE"/>
  <outline>
    <contour>
      <point x="131" y="0" type="line"/>
      <point x="43" y="0" type="line"/>
      <point x="146" y="528" type="line"/>
      <point x="234" y="528" type="line"/>
    </contour>
    <contour>
      <point x="270" y="728" type="line"/>
      <point x="353" y="596" type="line"/>
      <point x="351" y="586" type="line"/>
      <point x="306" y="586" type="line"/>
      <point x="215" y="669" type="line"/>
      <point x="214" y="669" type="line"/>
      <point x="85" y="586" type="line"/>
      <point x="28" y="586" type="line"/>
      <point x="30" y="596" type="line"/>
      <point x="170" y="728" type="line"/>
    </contour>
  </outline>
</glyph>
<glyph name="idieresis" format="1">
  <advance width="278"/>
  <unicode hex="00EF"/>
  <outline>
    <contour>
      <point x="131" y="0" type="line"/>
      <point x="43" y="0" type="line"/>
      <point x="146" y="528" type="line"/>
      <point x="234" y="528" type="line"/>
    </contour>
    <contour>
      <point x="335" y="595" type="line"/>
      <point x="251" y="595" type="line"/>
      <point x="268" y="685" type="line"/>
      <point x="353" y="685" type="line"/>
    </contour>
    <contour>
      <point x="149" y="595" type="line"/>
      <point x="63" y="595" type="line"/>
      <point x="81" y="685" type="line"/>
      <point x="166" y="685" type="line"/>
    </contour>
  </outline>
</glyph>
<glyph name="eth" format="1">
  <advance width="556"/>
  <unicode hex="00F0"/>
  <outline>
    <contour>
      <point x="218" y="613" type="line"/>
      <point x="305" y="648" type="line"/>
      <point x="274" y="677"/>
      <point x="242" y="703"/>
      <point x="210" y="725" type="curve"/>
      <point x="296" y="725" type="line"/>
      <point x="321" y="712"/>
      <point x="346" y="696"/>
      <point x="372" y="675" type="curve"/>
      <point x="500" y="725" type="line"/>
      <point x="491" y="672" type="line"/>
      <point x="409" y="639" type="line"/>
      <point x="485" y="548"/>
      <point x="515" y="463"/>
      <point x="515" y="355" type="curve" smooth="yes"/>
      <point x="515" y="287"/>
      <point x="504" y="223"/>
      <point x="483" y="164" type="curve" smooth="yes"/>
      <point x="442" y="47"/>
      <point x="365" y="-7"/>
      <point x="240" y="-7" type="curve" smooth="yes"/>
      <point x="111" y="-7"/>
      <point x="33" y="72"/>
      <point x="33" y="197" type="curve" smooth="yes"/>
      <point x="33" y="249"/>
      <point x="43" y="297"/>
      <point x="64" y="342" type="curve" smooth="yes"/>
      <point x="107" y="431"/>
      <point x="183" y="478"/>
      <point x="295" y="478" type="curve" smooth="yes"/>
      <point x="347" y="478"/>
      <point x="399" y="456"/>
      <point x="422" y="427" type="curve"/>
      <point x="410" y="500"/>
      <point x="378" y="567"/>
      <point x="341" y="610" type="curve"/>
      <point x="208" y="555" type="line"/>
    </contour>
    <contour>
      <point x="294" y="413" type="curve" smooth="yes"/>
      <point x="255" y="413"/>
      <point x="224" y="404"/>
      <point x="199" y="385" type="curve" smooth="yes"/>
      <point x="174" y="367"/>
      <point x="155" y="339"/>
      <point x="142" y="301" type="curve" smooth="yes"/>
      <point x="129" y="263"/>
      <point x="123" y="226"/>
      <point x="123" y="189" type="curve" smooth="yes"/>
      <point x="123" y="105"/>
      <point x="165" y="58"/>
      <point x="241" y="58" type="curve" smooth="yes"/>
      <point x="302" y="58"/>
      <point x="344" y="80"/>
      <point x="372" y="125" type="curve" smooth="yes"/>
      <point x="387" y="148"/>
      <point x="398" y="178"/>
      <point x="406" y="215" type="curve" smooth="yes"/>
      <point x="415" y="252"/>
      <point x="419" y="283"/>
      <point x="419" y="310" type="curve" smooth="yes"/>
      <point x="419" y="365"/>
      <point x="368" y="413"/>
    </contour>
  </outline>
</glyph>
<glyph name="otilde" format="1">
  <advance width="556"/>
  <unicode hex="00F5"/>
  <outline>
    <contour>
      <point x="527" y="333" type="curve" smooth="yes"/>
      <point x="527" y="249"/>
      <point x="500" y="149"/>
      <point x="452" y="85" type="curve" smooth="yes"/>
      <point x="404" y="22"/>
      <point x="332" y="-10"/>
      <point x="243" y="-10" type="curve" smooth="yes"/>
      <point x="115" y="-10"/>
      <point x="36" y="72"/>
      <point x="36" y="205" type="curve"/>
      <point x="42" y="404"/>
      <point x="140" y="542"/>
      <point x="316" y="538" type="curve" smooth="yes"/>
      <point x="453" y="538"/>
      <point x="527" y="464"/>
    </contour>
    <contour>
      <point x="437" y="333" type="curve"/>
      <point x="437" y="426"/>
      <point x="396" y="473"/>
      <point x="315" y="473" type="curve" smooth="yes"/>
      <point x="272" y="473"/>
      <point x="237" y="462"/>
      <point x="210" y="439" type="curve" smooth="yes"/>
      <point x="183" y="416"/>
      <point x="163" y="382"/>
      <point x="148" y="336" type="curve" smooth="yes"/>
      <point x="133" y="291"/>
      <point x="126" y="246"/>
      <point x="126" y="203" type="curve" smooth="yes"/>
      <point x="126" y="107"/>
      <point x="168" y="55"/>
      <point x="248" y="55" type="curve" smooth="yes"/>
      <point x="315" y="55"/>
      <point x="351" y="77"/>
      <point x="382" y="125" type="curve" smooth="yes"/>
      <point x="413" y="173"/>
      <point x="433" y="252"/>
    </contour>
    <contour>
      <point x="397" y="586" type="curve" smooth="yes"/>
      <point x="343" y="586"/>
      <point x="299" y="645"/>
      <point x="260" y="645" type="curve" smooth="yes"/>
      <point x="227" y="645"/>
      <point x="204" y="625"/>
      <point x="190" y="586" type="curve"/>
      <point x="146" y="586" type="line"/>
      <point x="177" y="686"/>
      <point x="216" y="717"/>
      <point x="269" y="717" type="curve" smooth="yes"/>
      <point x="327" y="717"/>
      <point x="367" y="659"/>
      <point x="406" y="659" type="curve" smooth="yes"/>
      <point x="439" y="659"/>
      <point x="462" y="678"/>
      <point x="475" y="717" type="curve"/>
      <point x="520" y="717" type="line"/>
      <point x="509" y="682"/>
      <point x="498" y="656"/>
      <point x="487" y="639" type="curve" smooth="yes"/>
      <point x="467" y="607"/>
      <point x="438" y="586"/>
    </contour>
  </outline>
</glyph>
<glyph name="divide" format="1">
  <advance width="549"/>
  <unicode hex="00F7"/>
  <outline>
    <contour>
      <point x="324" y="468" type="line"/>
      <point x="242" y="468" type="line"/>
      <point x="242" y="557" type="line"/>
      <point x="324" y="557" type="line"/>
    </contour>
    <contour>
      <point x="526" y="297" type="line"/>
      <point x="40" y="297" type="line"/>
      <point x="40" y="368" type="line"/>
      <point x="526" y="368" type="line"/>
    </contour>
    <contour>
      <point x="324" y="109" type="line"/>
      <point x="242" y="109" type="line"/>
      <point x="242" y="198" type="line"/>
      <point x="324" y="198" type="line"/>
    </contour>
  </outline>
</glyph>
<glyph name="oslash" format="1">
  <advance width="611"/>
  <unicode hex="00F8"/>
  <outline>
    <contour>
      <point x="21" y="-19" type="line"/>
      <point x="98" y="71" type="line"/>
      <point x="73" y="106"/>
      <point x="61" y="151"/>
      <point x="61" y="205" type="curve" smooth="yes"/>
      <point x="67" y="404"/>
      <point x="164" y="542"/>
      <point x="342" y="538" type="curve" smooth="yes"/>
      <point x="395" y="538"/>
      <point x="438" y="527"/>
      <point x="472" y="505" type="curve"/>
      <point x="506" y="545" type="line"/>
      <point x="588" y="545" type="line"/>
      <point x="517" y="462" type="line"/>
      <point x="541" y="429"/>
      <point x="553" y="386"/>
      <point x="553" y="333" type="curve" smooth="yes"/>
      <point x="553" y="299"/>
      <point x="549" y="264"/>
      <point x="540" y="228" type="curve" smooth="yes"/>
      <point x="504" y="71"/>
      <point x="413" y="-7"/>
      <point x="268" y="-7" type="curve" smooth="yes"/>
      <point x="218" y="-7"/>
      <point x="176" y="4"/>
      <point x="142" y="27" type="curve"/>
      <point x="103" y="-19" type="line"/>
    </contour>
    <contour>
      <point x="151" y="203" type="curve" smooth="yes"/>
      <point x="151" y="179"/>
      <point x="154" y="158"/>
      <point x="159" y="141" type="curve"/>
      <point x="422" y="447" type="line"/>
      <point x="402" y="464"/>
      <point x="375" y="473"/>
      <point x="341" y="473" type="curve" smooth="yes"/>
      <point x="297" y="473"/>
      <point x="262" y="462"/>
      <point x="235" y="439" type="curve" smooth="yes"/>
      <point x="208" y="416"/>
      <point x="188" y="382"/>
      <point x="173" y="336" type="curve" smooth="yes"/>
      <point x="158" y="291"/>
      <point x="151" y="246"/>
    </contour>
    <contour>
      <point x="462" y="333" type="curve" smooth="yes"/>
      <point x="462" y="355"/>
      <point x="460" y="374"/>
      <point x="455" y="391" type="curve"/>
      <point x="191" y="84" type="line"/>
      <point x="212" y="67"/>
      <point x="239" y="58"/>
      <point x="273" y="58" type="curve" smooth="yes"/>
      <point x="318" y="58"/>
      <point x="353" y="69"/>
      <point x="378" y="90" type="curve" smooth="yes"/>
      <point x="429" y="134"/>
      <point x="458" y="229"/>
    </contour>
  </outline>
</glyph>
<glyph name="Aogonek" format="1">
  <advance width="667"/>
  <unicode hex="0104"/>
  <outline>
    <contour>
      <point x="613" y="0" type="line"/>
      <point x="518" y="0" type="line"/>
      <point x="481" y="201" type="line"/>
      <point x="169" y="201" type="line"/>
      <point x="52" y="0" type="line"/>
      <point x="-49" y="0" type="line"/>
      <point x="365" y="688" type="line"/>
      <point x="471" y="688" type="line"/>
    </contour>
    <contour>
      <point x="418" y="544" type="line"/>
      <point x="405" y="618" type="line"/>
      <point x="401" y="609"/>
      <point x="395" y="598"/>
      <point x="387" y="584" type="curve" smooth="yes"/>
      <point x="210" y="274" type="line"/>
      <point x="468" y="274" type="line"/>
    </contour>
    <contour>
      <point x="505" y="-208" type="curve" smooth="yes"/>
      <point x="448" y="-208"/>
      <point x="418" y="-175"/>
      <point x="418" y="-126" type="curve" smooth="yes"/>
      <point x="418" y="-73"/>
      <point x="459" y="-23"/>
      <point x="519" y="0" type="curve"/>
      <point x="583" y="0" type="line"/>
      <point x="523" y="-31"/>
      <point x="489" y="-74"/>
      <point x="489" y="-115" type="curve" smooth="yes"/>
      <point x="489" y="-138"/>
      <point x="503" y="-155"/>
      <point x="527" y="-155" type="curve" smooth="yes"/>
      <point x="545" y="-155"/>
      <point x="564" y="-151"/>
      <point x="583" y="-144" type="curve"/>
      <point x="576" y="-195" type="line"/>
      <point x="554" y="-204"/>
      <point x="530" y="-208"/>
    </contour>
  </outline>
</glyph>
<glyph name="Ccaron" format="1">
  <advance width="722"/>
  <unicode hex="010C"/>
  <outline>
    <contour>
      <point x="593" y="208" type="curve"/>
      <point x="663" y="165" type="line"/>
      <point x="582" y="42"/>
      <point x="479" y="-10"/>
      <point x="342" y="-10" type="curve" smooth="yes"/>
      <point x="162" y="-10"/>
      <point x="55" y="104"/>
      <point x="55" y="278" type="curve" smooth="yes"/>
      <point x="55" y="358"/>
      <point x="72" y="430"/>
      <point x="106" y="495" type="curve" smooth="yes"/>
      <point x="175" y="624"/>
      <point x="303" y="698"/>
      <point x="452" y="698" type="curve" smooth="yes"/>
      <point x="593" y="698"/>
      <point x="696" y="637"/>
      <point x="728" y="530" type="curve"/>
      <point x="640" y="503" type="line"/>
      <point x="616" y="576"/>
      <point x="546" y="622"/>
      <point x="447" y="622" type="curve" smooth="yes"/>
      <point x="266" y="622"/>
      <point x="147" y="483"/>
      <point x="147" y="276" type="curve" smooth="yes"/>
      <point x="147" y="147"/>
      <point x="223" y="66"/>
      <point x="348" y="66" type="curve" smooth="yes"/>
      <point x="444" y="66"/>
      <point x="529" y="115"/>
    </contour>
    <contour>
      <point x="648" y="864" type="line"/>
      <point x="516" y="747" type="line"/>
      <point x="416" y="747" type="line"/>
      <point x="325" y="864" type="line"/>
      <point x="327" y="874" type="line"/>
      <point x="372" y="874" type="line"/>
      <point x="472" y="806" type="line"/>
      <point x="473" y="806" type="line"/>
      <point x="593" y="874" type="line"/>
      <point x="650" y="874" type="line"/>
    </contour>
  </outline>
</glyph>
<glyph name="Ebreve" format="1">
  <advance width="667"/>
  <unicode hex="0114"/>
  <outline>
    <contour>
      <point x="563" y="0" type="line"/>
      <point x="31" y="0" type="line"/>
      <point x="164" y="688" type="line"/>
      <point x="676" y="688" type="line"/>
      <point x="662" y="612" type="line"/>
      <point x="243" y="612" type="line"/>
      <point x="200" y="391" type="line"/>
      <point x="589" y="391" type="line"/>
      <point x="575" y="316" type="line"/>
      <point x="185" y="316" type="line"/>
      <point x="139" y="76" type="line"/>
      <point x="578" y="76" type="line"/>
    </contour>
    <contour>
      <point x="414" y="742" type="curve" smooth="yes"/>
      <point x="327" y="742"/>
      <point x="270" y="792"/>
      <point x="269" y="864" type="curve"/>
      <point x="326" y="864" type="line"/>
      <point x="327" y="825"/>
      <point x="363" y="809"/>
      <point x="418" y="809" type="curve" smooth="yes"/>
      <point x="476" y="809"/>
      <point x="516" y="827"/>
      <point x="537" y="864" type="curve"/>
      <point x="594" y="864" type="line"/>
      <point x="559" y="785"/>
      <point x="495" y="742"/>
    </contour>
  </outline>
</glyph>
<glyph name="ebreve" format="1">
  <advance width="556"/>
  <unicode hex="0115"/>
  <outline>
    <contour>
      <point x="507" y="246" type="curve"/>
      <point x="125" y="246" type="line"/>
      <point x="123" y="235"/>
      <point x="122" y="216"/>
      <point x="121" y="190" type="curve" smooth="yes"/>
      <point x="121" y="103"/>
      <point x="164" y="56"/>
      <point x="251" y="56" type="curve" smooth="yes"/>
      <point x="314" y="56"/>
      <point x="368" y="89"/>
      <point x="397" y="144" type="curve"/>
      <point x="464" y="113" type="line"/>
      <point x="417" y="28"/>
      <point x="345" y="-10"/>
      <point x="241" y="-10" type="curve" smooth="yes"/>
      <point x="110" y="-10"/>
      <point x="34" y="66"/>
      <point x="34" y="198" type="curve" smooth="yes"/>
      <point x="31" y="394"/>
      <point x="150" y="542"/>
      <point x="308" y="538" type="curve" smooth="yes"/>
      <point x="441" y="538"/>
      <point x="519" y="469"/>
      <point x="519" y="346" type="curve" smooth="yes"/>
      <point x="519" y="311"/>
      <point x="515" y="278"/>
    </contour>
    <contour>
      <point x="137" y="313" type="curve"/>
      <point x="430" y="313" type="line"/>
      <point x="432" y="348" type="line"/>
      <point x="432" y="429"/>
      <point x="389" y="473"/>
      <point x="310" y="473" type="curve" smooth="yes"/>
      <point x="222" y="473"/>
      <point x="161" y="416"/>
    </contour>
    <contour>
      <point x="341" y="586" type="curve" smooth="yes"/>
      <point x="254" y="586"/>
      <point x="197" y="648"/>
      <point x="196" y="737" type="curve"/>
      <point x="253" y="737" type="line"/>
      <point x="254" y="682"/>
      <point x="292" y="658"/>
      <point x="345" y="658" type="curve" smooth="yes"/>
      <point x="404" y="658"/>
      <point x="443" y="684"/>
      <point x="464" y="737" type="curve"/>
      <point x="521" y="737" type="line"/>
      <point x="488" y="641"/>
      <point x="424" y="586"/>
    </contour>
  </outline>
</glyph>
<glyph name="edotaccent" format="1">
  <advance width="556"/>
  <unicode hex="0117"/>
  <outline>
    <contour>
      <point x="507" y="246" type="curve"/>
      <point x="125" y="246" type="line"/>
      <point x="123" y="235"/>
      <point x="122" y="216"/>
      <point x="121" y="190" type="curve" smooth="yes"/>
      <point x="121" y="103"/>
      <point x="164" y="56"/>
      <point x="251" y="56" type="curve" smooth="yes"/>
      <point x="314" y="56"/>
      <point x="368" y="89"/>
      <point x="397" y="144" type="curve"/>
      <point x="464" y="113" type="line"/>
      <point x="417" y="28"/>
      <point x="345" y="-10"/>
      <point x="241" y="-10" type="curve" smooth="yes"/>
      <point x="110" y="-10"/>
      <point x="34" y="66"/>
      <point x="34" y="198" type="curve" smooth="yes"/>
      <point x="31" y="394"/>
      <point x="150" y="542"/>
      <point x="308" y="538" type="curve" smooth="yes"/>
      <point x="441" y="538"/>
      <point x="519" y="469"/>
      <point x="519" y="346" type="curve" smooth="yes"/>
      <point x="519" y="311"/>
      <point x="515" y="278"/>
    </contour>
    <contour>
      <point x="137" y="313" type="curve"/>
      <point x="430" y="313" type="line"/>
      <point x="432" y="348" type="line"/>
      <point x="432" y="429"/>
      <point x="389" y="473"/>
      <point x="310" y="473" type="curve" smooth="yes"/>
      <point x="222" y="473"/>
      <point x="161" y="416"/>
    </contour>
    <contour>
      <point x="383" y="641" type="line"/>
      <point x="295" y="641" type="line"/>
      <point x="312" y="725" type="line"/>
      <point x="399" y="725" type="line"/>
    </contour>
  </outline>
</glyph>
<glyph name="gbreve" format="1">
  <advance width="556"/>
  <unicode hex="011F"/>
  <outline>
    <contour>
      <point x="194" y="-208" type="curve" smooth="yes"/>
      <point x="83" y="-208"/>
      <point x="19" y="-167"/>
      <point x="2" y="-84" type="curve"/>
      <point x="82" y="-64" type="line"/>
      <point x="93" y="-115"/>
      <point x="131" y="-141"/>
      <point x="196" y="-141" type="curve" smooth="yes"/>
      <point x="288" y="-141"/>
      <point x="336" y="-96"/>
      <point x="357" y="13" type="curve" smooth="yes"/>
      <point x="374" y="98" type="line"/>
      <point x="373" y="98" type="line"/>
      <point x="352" y="69"/>
      <point x="334" y="49"/>
      <point x="319" y="36" type="curve" smooth="yes"/>
      <point x="288" y="11"/>
      <point x="251" y="-4"/>
      <point x="200" y="-4" type="curve" smooth="yes"/>
      <point x="100" y="-4"/>
      <point x="34" y="67"/>
      <point x="34" y="175" type="curve" smooth="yes"/>
      <point x="34" y="218"/>
      <point x="40" y="265"/>
      <point x="52" y="315" type="curve" smooth="yes"/>
      <point x="65" y="366"/>
      <point x="81" y="407"/>
      <point x="102" y="440" type="curve" smooth="yes"/>
      <point x="145" y="507"/>
      <point x="204" y="538"/>
      <point x="287" y="538" type="curve" smooth="yes"/>
      <point x="366" y="538"/>
      <point x="424" y="497"/>
      <point x="439" y="438" type="curve"/>
      <point x="440" y="438" type="line"/>
      <point x="452" y="490" type="line" smooth="yes"/>
      <point x="458" y="513"/>
      <point x="462" y="525"/>
      <point x="464" y="528" type="curve" smooth="yes"/>
      <point x="547" y="528" type="line"/>
      <point x="538" y="488" type="line"/>
      <point x="523" y="419" type="line"/>
      <point x="445" y="15" type="line" smooth="yes"/>
      <point x="413" y="-142"/>
      <point x="335" y="-208"/>
    </contour>
    <contour>
      <point x="126" y="182" type="curve" smooth="yes"/>
      <point x="126" y="103"/>
      <point x="161" y="61"/>
      <point x="228" y="61" type="curve" smooth="yes"/>
      <point x="332" y="56"/>
      <point x="416" y="198"/>
      <point x="414" y="344" type="curve" smooth="yes"/>
      <point x="414" y="425"/>
      <point x="369" y="473"/>
      <point x="296" y="473" type="curve" smooth="yes"/>
      <point x="237" y="473"/>
      <point x="201" y="450"/>
      <point x="174" y="398" type="curve" smooth="yes"/>
      <point x="161" y="372"/>
      <point x="149" y="338"/>
      <point x="140" y="295" type="curve" smooth="yes"/>
      <point x="131" y="252"/>
      <point x="126" y="215"/>
    </contour>
    <contour>
      <point x="330" y="586" type="curve" smooth="yes"/>
      <point x="243" y="586"/>
      <point x="186" y="648"/>
      <point x="185" y="737" type="curve"/>
      <point x="242" y="737" type="line"/>
      <point x="243" y="682"/>
      <point x="279" y="658"/>
      <point x="334" y="658" type="curve" smooth="yes"/>
      <point x="392" y="658"/>
      <point x="432" y="684"/>
      <point x="453" y="737" type="curve"/>
      <point x="510" y="737" type="line"/>
      <point x="477" y="641"/>
      <point x="413" y="586"/>
    </contour>
  </outline>
</glyph>
<glyph name="Hcircumflex" format="1">
  <advance width="722"/>
  <unicode hex="0124"/>
  <outline>
    <contour>
      <point x="589" y="0" type="line"/>
      <point x="499" y="0" type="line"/>
      <point x="561" y="319" type="line"/>
      <point x="186" y="319" type="line"/>
      <point x="124" y="0" type="line"/>
      <point x="31" y="0" type="line"/>
      <point x="165" y="688" type="line"/>
      <point x="258" y="688" type="line"/>
      <point x="201" y="397" type="line"/>
      <point x="576" y="397" type="line"/>
      <point x="632" y="688" type="line"/>
      <point x="723" y="688" type="line"/>
    </contour>
    <contour>
      <point x="528" y="874" type="line"/>
      <point x="614" y="757" type="line"/>
      <point x="612" y="747" type="line"/>
      <point x="566" y="747" type="line"/>
      <point x="472" y="815" type="line"/>
      <point x="471" y="815" type="line"/>
      <point x="345" y="747" type="line"/>
      <point x="290" y="747" type="line"/>
      <point x="292" y="757" type="line"/>
      <point x="428" y="874" type="line"/>
    </contour>
  </outline>
</glyph>
<glyph name="hbar" format="1">
  <advance width="556"/>
  <unicode hex="0127"/>
  <outline>
    <contour>
      <point x="182" y="418" type="curve"/>
      <point x="183" y="418" type="line"/>
      <point x="238" y="494"/>
      <point x="286" y="518"/>
      <point x="361" y="518" type="curve" smooth="yes"/>
      <point x="458" y="518"/>
      <point x="506" y="470"/>
      <point x="506" y="379" type="curve" smooth="yes"/>
      <point x="506" y="358"/>
      <point x="503" y="332"/>
      <point x="496" y="299" type="curve" smooth="yes"/>
      <point x="438" y="0" type="line"/>
      <point x="350" y="0" type="line"/>
      <point x="407" y="295" type="line" smooth="yes"/>
      <point x="413" y="324"/>
      <point x="416" y="348"/>
      <point x="416" y="369" type="curve" smooth="yes"/>
      <point x="416" y="423"/>
      <point x="387" y="450"/>
      <point x="329" y="450" type="curve" smooth="yes"/>
      <point x="246" y="450"/>
      <point x="178" y="383"/>
      <point x="158" y="276" type="curve" smooth="yes"/>
      <point x="104" y="0" type="line"/>
      <point x="17" y="0" type="line"/>
      <point x="131" y="589" type="line"/>
      <point x="67" y="589" type="line"/>
      <point x="79" y="653" type="line"/>
      <point x="143" y="653" type="line"/>
      <point x="157" y="725" type="line"/>
      <point x="245" y="725" type="line"/>
      <point x="231" y="653" type="line"/>
      <point x="378" y="653" type="line"/>
      <point x="366" y="589" type="line"/>
      <point x="219" y="589" type="line"/>
      <point x="205" y="517"/>
      <point x="196" y="472"/>
      <point x="191" y="454" type="curve" smooth="yes"/>
      <point x="186" y="437"/>
      <point x="183" y="425"/>
    </contour>
  </outline>
</glyph>
<glyph name="Imacron" format="1">
  <advance width="278"/>
  <unicode hex="012A"/>
  <outline>
    <contour>
      <point x="133" y="0" type="line"/>
      <point x="40" y="0" type="line"/>
      <point x="173" y="688" type="line"/>
      <point x="267" y="688" type="line"/>
    </contour>
    <contour>
      <point x="376" y="829" type="line"/>
      <point x="363" y="767" type="line"/>
      <point x="95" y="767" type="line"/>
      <point x="107" y="829" type="line"/>
    </contour>
  </outline>
</glyph>
<glyph name="ibreve" format="1">
  <advance width="222"/>
  <unicode hex="012D"/>
  <outline>
    <contour>
      <point x="104" y="0" type="line"/>
      <point x="17" y="0" type="line"/>
      <point x="119" y="528" type="line"/>
      <point x="207" y="528" type="line"/>
    </contour>
    <contour>
      <point x="175" y="586" type="curve" smooth="yes"/>
      <point x="88" y="586"/>
      <point x="31" y="648"/>
      <point x="30" y="737" type="curve"/>
      <point x="87" y="737" type="line"/>
      <point x="88" y="682"/>
      <point x="126" y="658"/>
      <point x="179" y="658" type="curve" smooth="yes"/>
      <point x="238" y="658"/>
      <point x="277" y="684"/>
      <point x="298" y="737" type="curve"/>
      <point x="355" y="737" type="line"/>
      <point x="322" y="641"/>
      <point x="258" y="586"/>
    </contour>
  </outline>
</glyph>
<glyph name="iogonek" format="1">
  <advance width="222"/>
  <unicode hex="012F"/>
  <outline>
    <contour>
      <point x="228" y="641" type="line"/>
      <point x="140" y="641" type="line"/>
      <point x="157" y="725" type="line"/>
      <point x="245" y="725" type="line"/>
    </contour>
    <contour>
      <point x="104" y="0" type="line"/>
      <point x="16" y="0" type="line"/>
      <point x="119" y="528" type="line"/>
      <point x="207" y="528" type="line"/>
    </contour>
    <contour>
      <point x="26" y="-208" type="curve" smooth="yes"/>
      <point x="-31" y="-208"/>
      <point x="-61" y="-175"/>
      <point x="-61" y="-126" type="curve" smooth="yes"/>
      <point x="-61" y="-73"/>
      <point x="-20" y="-23"/>
      <point x="39" y="0" type="curve"/>
      <point x="104" y="0" type="line"/>
      <point x="44" y="-31"/>
      <point x="10" y="-74"/>
      <point x="10" y="-115" type="curve" smooth="yes"/>
      <point x="10" y="-138"/>
      <point x="23" y="-155"/>
      <point x="48" y="-155" type="curve" smooth="yes"/>
      <point x="65" y="-155"/>
      <point x="84" y="-151"/>
      <point x="104" y="-144" type="curve"/>
      <point x="96" y="-195" type="line"/>
      <point x="74" y="-204"/>
      <point x="51" y="-208"/>
    </contour>
  </outline>
</glyph>
<glyph name="Kcommaaccent" format="1">
  <advance width="667"/>
  <unicode hex="0136"/>
  <outline>
    <contour>
      <point x="609" y="0" type="line"/>
      <point x="499" y="0" type="line"/>
      <point x="269" y="329" type="line"/>
      <point x="176" y="266" type="line"/>
      <point x="124" y="0" type="line"/>
      <point x="31" y="0" type="line"/>
      <point x="164" y="688" type="line"/>
      <point x="257" y="688" type="line"/>
      <point x="191" y="351" type="line"/>
      <point x="259" y="414" type="line"/>
      <point x="584" y="688" type="line"/>
      <point x="704" y="688" type="line"/>
      <point x="337" y="380" type="line"/>
    </contour>
    <contour>
      <point x="276" y="-222" type="curve"/>
      <point x="219" y="-222" type="line"/>
      <point x="256" y="-189"/>
      <point x="278" y="-158"/>
      <point x="283" y="-129" type="curve"/>
      <point x="240" y="-129" type="line"/>
      <point x="256" y="-48" type="line"/>
      <point x="351" y="-48" type="line"/>
      <point x="341" y="-100" type="line" smooth="yes"/>
      <point x="330" y="-156"/>
      <point x="308" y="-191"/>
    </contour>
  </outline>
</glyph>
<glyph name="kcommaaccent" format="1">
  <advance width="500"/>
  <unicode hex="0137"/>
  <outline>
    <contour>
      <point x="447" y="0" type="line"/>
      <point x="352" y="0" type="line"/>
      <point x="221" y="245" type="line"/>
      <point x="139" y="185" type="line"/>
      <point x="104" y="0" type="line"/>
      <point x="17" y="0" type="line"/>
      <point x="157" y="725" type="line"/>
      <point x="245" y="725" type="line"/>
      <point x="158" y="277" type="line"/>
      <point x="257" y="370" type="line"/>
      <point x="434" y="528" type="line"/>
      <point x="542" y="528" type="line"/>
      <point x="283" y="301" type="line"/>
    </contour>
    <contour>
      <point x="202" y="-222" type="curve"/>
      <point x="145" y="-222" type="line"/>
      <point x="182" y="-189"/>
      <point x="204" y="-158"/>
      <point x="209" y="-129" type="curve"/>
      <point x="166" y="-129" type="line"/>
      <point x="182" y="-48" type="line"/>
      <point x="277" y="-48" type="line"/>
      <point x="267" y="-100" type="line" smooth="yes"/>
      <point x="256" y="-156"/>
      <point x="234" y="-191"/>
    </contour>
  </outline>
</glyph>
<glyph name="Lacute" format="1">
  <advance width="556"/>
  <unicode hex="0139"/>
  <outline>
    <contour>
      <point x="472" y="0" type="line"/>
      <point x="31" y="0" type="line"/>
      <point x="164" y="688" type="line"/>
      <point x="257" y="688" type="line"/>
      <point x="139" y="76" type="line"/>
      <point x="486" y="76" type="line"/>
    </contour>
    <contour>
      <point x="271" y="747" type="line"/>
      <point x="215" y="747" type="line"/>
      <point x="217" y="757" type="line"/>
      <point x="344" y="867" type="line"/>
      <point x="445" y="867" type="line"/>
      <point x="443" y="853" type="line"/>
    </contour>
  </outline>
</glyph>
<glyph name="lacute" format="1">
  <advance width="222"/>
  <unicode hex="013A"/>
  <outline>
    <contour>
      <point x="104" y="0" type="line"/>
      <point x="16" y="0" type="line"/>
      <point x="157" y="725" type="line"/>
      <point x="245" y="725" type="line"/>
    </contour>
    <contour>
      <point x="207" y="786" type="line"/>
      <point x="151" y="786" type="line"/>
      <point x="152" y="795" type="line"/>
      <point x="280" y="906" type="line"/>
      <point x="381" y="906" type="line"/>
      <point x="378" y="892" type="line"/>
    </contour>
  </outline>
</glyph>
<glyph name="Lcommaaccent" format="1">
  <advance width="556"/>
  <unicode hex="013B"/>
  <outline>
    <contour>
      <point x="472" y="0" type="line"/>
      <point x="31" y="0" type="line"/>
      <point x="164" y="688" type="line"/>
      <point x="257" y="688" type="line"/>
      <point x="139" y="76" type="line"/>
      <point x="486" y="76" type="line"/>
    </contour>
    <contour>
      <point x="229" y="-222" type="curve"/>
      <point x="172" y="-222" type="line"/>
      <point x="209" y="-189"/>
      <point x="231" y="-158"/>
      <point x="236" y="-129" type="curve"/>
      <point x="193" y="-129" type="line"/>
      <point x="208" y="-48" type="line"/>
      <point x="304" y="-48" type="line"/>
      <point x="294" y="-100" type="line" smooth="yes"/>
      <point x="283" y="-156"/>
      <point x="261" y="-191"/>
    </contour>
  </outline>
</glyph>
<glyph name="lcommaaccent" format="1">
  <advance width="222"/>
  <unicode hex="013C"/>
  <outline>
    <contour>
      <point x="104" y="0" type="line"/>
      <point x="16" y="0" type="line"/>
      <point x="157" y="725" type="line"/>
      <point x="245" y="725" type="line"/>
    </contour>
    <contour>
      <point x="24" y="-222" type="curve"/>
      <point x="-33" y="-222" type="line"/>
      <point x="4" y="-189"/>
      <point x="25" y="-158"/>
      <point x="31" y="-129" type="curve"/>
      <point x="-12" y="-129" type="line"/>
      <point x="3" y="-48" type="line"/>
      <point x="99" y="-48" type="line"/>
      <point x="89" y="-100" type="line" smooth="yes"/>
      <point x="78" y="-156"/>
      <point x="56" y="-191"/>
    </contour>
  </outline>
</glyph>
<glyph name="Lcaron" format="1">
  <advance width="556"/>
  <unicode hex="013D"/>
  <outline>
    <contour>
      <point x="472" y="0" type="line"/>
      <point x="31" y="0" type="line"/>
      <point x="164" y="688" type="line"/>
      <point x="257" y="688" type="line"/>
      <point x="139" y="76" type="line"/>
      <point x="486" y="76" type="line"/>
    </contour>
    <contour>
      <point x="438" y="514" type="curve"/>
      <point x="381" y="514" type="line"/>
      <point x="418" y="547"/>
      <point x="440" y="577"/>
      <point x="445" y="606" type="curve"/>
      <point x="402" y="606" type="line"/>
      <point x="418" y="688" type="line"/>
      <point x="513" y="688" type="line"/>
      <point x="503" y="636" type="line" smooth="yes"/>
      <point x="492" y="580"/>
      <point x="470" y="545"/>
    </contour>
  </outline>
</glyph>
<glyph name="Ldot" format="1">
  <advance width="556"/>
  <unicode hex="013F"/>
  <outline>
    <contour>
      <point x="472" y="0" type="line"/>
      <point x="31" y="0" type="line"/>
      <point x="164" y="688" type="line"/>
      <point x="257" y="688" type="line"/>
      <point x="139" y="76" type="line"/>
      <point x="486" y="76" type="line"/>
    </contour>
    <contour>
      <point x="418" y="335" type="line"/>
      <point x="331" y="335" type="line"/>
      <point x="347" y="419" type="line"/>
      <point x="435" y="419" type="line"/>
    </contour>
  </outline>
</glyph>
<glyph name="lslash" format="1">
  <advance width="222"/>
  <unicode hex="0142"/>
  <outline>
    <contour>
      <point x="103" y="0" type="line"/>
      <point x="16" y="0" type="line"/>
      <point x="67" y="265" type="line"/>
      <point x="1" y="231" type="line"/>
      <point x="16" y="309" type="line"/>
      <point x="82" y="342" type="line"/>
      <point x="156" y="725" type="line"/>
      <point x="244" y="725" type="line"/>
      <point x="180" y="393" type="line"/>
      <point x="247" y="428" type="line"/>
      <point x="232" y="350" type="line"/>
      <point x="165" y="315" type="line"/>
    </contour>
  </outline>
</glyph>
<glyph name="nacute" format="1">
  <advance width="556"/>
  <unicode hex="0144"/>
  <outline>
    <contour>
      <point x="440" y="0" type="line"/>
      <point x="352" y="0" type="line"/>
      <point x="414" y="315" type="line" smooth="yes"/>
      <point x="419" y="344"/>
      <point x="422" y="368"/>
      <point x="422" y="388" type="curve" smooth="yes"/>
      <point x="422" y="443"/>
      <point x="393" y="470"/>
      <point x="335" y="470" type="curve" smooth="yes"/>
      <point x="252" y="470"/>
      <point x="185" y="403"/>
      <point x="164" y="296" type="curve" smooth="yes"/>
      <point x="106" y="0" type="line"/>
      <point x="19" y="0" type="line"/>
      <point x="100" y="416" type="line" smooth="yes"/>
      <point x="106" y="447"/>
      <point x="112" y="484"/>
      <point x="119" y="528" type="curve"/>
      <point x="202" y="528" type="line" smooth="yes"/>
      <point x="202" y="525"/>
      <point x="200" y="512"/>
      <point x="196" y="490" type="curve" smooth="yes"/>
      <point x="188" y="438" type="line"/>
      <point x="189" y="438" type="line"/>
      <point x="244" y="513"/>
      <point x="293" y="538"/>
      <point x="368" y="538" type="curve" smooth="yes"/>
      <point x="464" y="538"/>
      <point x="513" y="488"/>
      <point x="513" y="399" type="curve" smooth="yes"/>
      <point x="513" y="378"/>
      <point x="509" y="352"/>
      <point x="502" y="319" type="curve" smooth="yes"/>
    </contour>
    <contour>
      <point x="321" y="586" type="line"/>
      <point x="275" y="586" type="line"/>
      <point x="276" y="596" type="line"/>
      <point x="400" y="736" type="line"/>
      <point x="506" y="736" type="line"/>
      <point x="503" y="722" type="line"/>
    </contour>
  </outline>
</glyph>
<glyph name="ncommaaccent" format="1">
  <advance width="556"/>
  <unicode hex="0146"/>
  <outline>
    <contour>
      <point x="440" y="0" type="line"/>
      <point x="352" y="0" type="line"/>
      <point x="414" y="315" type="line" smooth="yes"/>
      <point x="419" y="344"/>
      <point x="422" y="368"/>
      <point x="422" y="388" type="curve" smooth="yes"/>
      <point x="422" y="443"/>
      <point x="393" y="470"/>
      <point x="335" y="470" type="curve" smooth="yes"/>
      <point x="252" y="470"/>
      <point x="185" y="403"/>
      <point x="164" y="296" type="curve" smooth="yes"/>
      <point x="106" y="0" type="line"/>
      <point x="19" y="0" type="line"/>
      <point x="100" y="416" type="line" smooth="yes"/>
      <point x="106" y="447"/>
      <point x="112" y="484"/>
      <point x="119" y="528" type="curve"/>
      <point x="202" y="528" type="line" smooth="yes"/>
      <point x="202" y="525"/>
      <point x="200" y="512"/>
      <point x="196" y="490" type="curve" smooth="yes"/>
      <point x="188" y="438" type="line"/>
      <point x="189" y="438" type="line"/>
      <point x="244" y="513"/>
      <point x="293" y="538"/>
      <point x="368" y="538" type="curve" smooth="yes"/>
      <point x="464" y="538"/>
      <point x="513" y="488"/>
      <point x="513" y="399" type="curve" smooth="yes"/>
      <point x="513" y="378"/>
      <point x="509" y="352"/>
      <point x="502" y="319" type="curve" smooth="yes"/>
    </contour>
    <contour>
      <point x="202" y="-222" type="curve"/>
      <point x="145" y="-222" type="line"/>
      <point x="182" y="-189"/>
      <point x="204" y="-158"/>
      <point x="209" y="-129" type="curve"/>
      <point x="166" y="-129" type="line"/>
      <point x="182" y="-48" type="line"/>
      <point x="277" y="-48" type="line"/>
      <point x="267" y="-100" type="line" smooth="yes"/>
      <point x="256" y="-156"/>
      <point x="234" y="-191"/>
    </contour>
  </outline>
</glyph>
<glyph name="Ncaron" format="1">
  <advance width="722"/>
  <unicode hex="0147"/>
  <outline>
    <contour>
      <point x="589" y="0" type="line"/>
      <point x="482" y="0" type="line"/>
      <point x="223" y="591" type="line"/>
      <point x="216" y="535"/>
      <point x="209" y="491"/>
      <point x="202" y="460" type="curve" smooth="yes"/>
      <point x="114" y="0" type="line"/>
      <point x="31" y="0" type="line"/>
      <point x="164" y="688" type="line"/>
      <point x="268" y="688" type="line"/>
      <point x="528" y="95" type="line"/>
      <point x="537" y="156"/>
      <point x="544" y="202"/>
      <point x="550" y="233" type="curve" smooth="yes"/>
      <point x="639" y="688" type="line"/>
      <point x="723" y="688" type="line"/>
    </contour>
    <contour>
      <point x="634" y="864" type="line"/>
      <point x="501" y="747" type="line"/>
      <point x="402" y="747" type="line"/>
      <point x="311" y="864" type="line"/>
      <point x="313" y="874" type="line"/>
      <point x="358" y="874" type="line"/>
      <point x="458" y="806" type="line"/>
      <point x="459" y="806" type="line"/>
      <point x="579" y="874" type="line"/>
      <point x="636" y="874" type="line"/>
    </contour>
  </outline>
</glyph>
<glyph name="napostrophe" format="1">
  <advance width="615"/>
  <unicode hex="0149"/>
  <outline>
    <contour>
      <point x="497" y="0" type="line"/>
      <point x="409" y="0" type="line"/>
      <point x="470" y="315" type="line" smooth="yes"/>
      <point x="476" y="344"/>
      <point x="479" y="368"/>
      <point x="479" y="388" type="curve" smooth="yes"/>
      <point x="479" y="443"/>
      <point x="450" y="470"/>
      <point x="392" y="470" type="curve" smooth="yes"/>
      <point x="309" y="470"/>
      <point x="241" y="403"/>
      <point x="221" y="296" type="curve" smooth="yes"/>
      <point x="163" y="0" type="line"/>
      <point x="75" y="0" type="line"/>
      <point x="156" y="416" type="line" smooth="yes"/>
      <point x="163" y="447"/>
      <point x="169" y="484"/>
      <point x="175" y="528" type="curve"/>
      <point x="258" y="528" type="line" smooth="yes"/>
      <point x="258" y="525"/>
      <point x="256" y="512"/>
      <point x="253" y="490" type="curve" smooth="yes"/>
      <point x="245" y="438" type="line"/>
      <point x="246" y="438" type="line"/>
      <point x="301" y="513"/>
      <point x="349" y="538"/>
      <point x="424" y="538" type="curve" smooth="yes"/>
      <point x="521" y="538"/>
      <point x="569" y="488"/>
      <point x="569" y="399" type="curve" smooth="yes"/>
      <point x="569" y="378"/>
      <point x="566" y="352"/>
      <point x="559" y="319" type="curve" smooth="yes"/>
    </contour>
    <contour>
      <point x="85" y="465" type="curve"/>
      <point x="25" y="465" type="line"/>
      <point x="64" y="509"/>
      <point x="87" y="551"/>
      <point x="96" y="592" type="curve"/>
      <point x="53" y="592" type="line"/>
      <point x="71" y="688" type="line"/>
      <point x="167" y="688" type="line"/>
      <point x="153" y="617" type="line" smooth="yes"/>
      <point x="141" y="556"/>
      <point x="121" y="509"/>
    </contour>
  </outline>
</glyph>
<glyph name="obreve" format="1">
  <advance width="556"/>
  <unicode hex="014F"/>
  <outline>
    <contour>
      <point x="524" y="333" type="curve" smooth="yes"/>
      <point x="524" y="249"/>
      <point x="497" y="149"/>
      <point x="449" y="85" type="curve" smooth="yes"/>
      <point x="401" y="22"/>
      <point x="329" y="-10"/>
      <point x="240" y="-10" type="curve" smooth="yes"/>
      <point x="112" y="-10"/>
      <point x="33" y="72"/>
      <point x="33" y="205" type="curve"/>
      <point x="39" y="404"/>
      <point x="137" y="542"/>
      <point x="313" y="538" type="curve" smooth="yes"/>
      <point x="450" y="538"/>
      <point x="524" y="464"/>
    </contour>
    <contour>
      <point x="434" y="333" type="curve"/>
      <point x="434" y="426"/>
      <point x="394" y="473"/>
      <point x="313" y="473" type="curve" smooth="yes"/>
      <point x="269" y="473"/>
      <point x="234" y="462"/>
      <point x="207" y="439" type="curve" smooth="yes"/>
      <point x="180" y="416"/>
      <point x="160" y="382"/>
      <point x="145" y="336" type="curve" smooth="yes"/>
      <point x="130" y="291"/>
      <point x="123" y="246"/>
      <point x="123" y="203" type="curve" smooth="yes"/>
      <point x="123" y="107"/>
      <point x="166" y="55"/>
      <point x="245" y="55" type="curve" smooth="yes"/>
      <point x="312" y="55"/>
      <point x="348" y="77"/>
      <point x="379" y="125" type="curve" smooth="yes"/>
      <point x="410" y="173"/>
      <point x="430" y="252"/>
    </contour>
    <contour>
      <point x="341" y="586" type="curve" smooth="yes"/>
      <point x="254" y="586"/>
      <point x="197" y="648"/>
      <point x="196" y="737" type="curve"/>
      <point x="253" y="737" type="line"/>
      <point x="254" y="682"/>
      <point x="292" y="658"/>
      <point x="345" y="658" type="curve" smooth="yes"/>
      <point x="404" y="658"/>
      <point x="443" y="684"/>
      <point x="464" y="737" type="curve"/>
      <point x="521" y="737" type="line"/>
      <point x="488" y="641"/>
      <point x="424" y="586"/>
    </contour>
  </outline>
</glyph>
<glyph name="OE" format="1">
  <advance width="1000"/>
  <unicode hex="0152"/>
  <outline>
    <contour>
      <point x="896" y="0" type="line"/>
      <point x="436" y="0" type="line" smooth="yes"/>
      <point x="411" y="-3"/>
      <point x="380" y="-5"/>
      <point x="343" y="-5" type="curve" smooth="yes"/>
      <point x="159" y="-5"/>
      <point x="49" y="103"/>
      <point x="49" y="280" type="curve" smooth="yes"/>
      <point x="46" y="520"/>
      <point x="222" y="698"/>
      <point x="452" y="693" type="curve" smooth="yes"/>
      <point x="491" y="693"/>
      <point x="534" y="691"/>
      <point x="583" y="688" type="curve" smooth="yes"/>
      <point x="1009" y="688" type="line"/>
      <point x="995" y="612" type="line"/>
      <point x="648" y="612" type="line"/>
      <point x="605" y="391" type="line"/>
      <point x="922" y="391" type="line"/>
      <point x="908" y="316" type="line"/>
      <point x="590" y="316" type="line"/>
      <point x="544" y="76" type="line"/>
      <point x="911" y="76" type="line"/>
    </contour>
    <contour>
      <point x="348" y="71" type="curve" smooth="yes"/>
      <point x="390" y="71"/>
      <point x="424" y="73"/>
      <point x="451" y="76" type="curve"/>
      <point x="555" y="613" type="line"/>
      <point x="528" y="616"/>
      <point x="492" y="618"/>
      <point x="447" y="618" type="curve" smooth="yes"/>
      <point x="384" y="618"/>
      <point x="329" y="604"/>
      <point x="283" y="576" type="curve" smooth="yes"/>
      <point x="238" y="548"/>
      <point x="203" y="506"/>
      <point x="179" y="451" type="curve" smooth="yes"/>
      <point x="155" y="396"/>
      <point x="143" y="337"/>
      <point x="143" y="275" type="curve" smooth="yes"/>
      <point x="143" y="143"/>
      <point x="217" y="71"/>
    </contour>
  </outline>
</glyph>
<glyph name="oe" format="1">
  <advance width="944"/>
  <unicode hex="0153"/>
  <outline>
    <contour>
      <point x="895" y="246" type="curve"/>
      <point x="515" y="246" type="line"/>
      <point x="512" y="229"/>
      <point x="510" y="211"/>
      <point x="510" y="190" type="curve" smooth="yes"/>
      <point x="510" y="103"/>
      <point x="553" y="56"/>
      <point x="640" y="56" type="curve" smooth="yes"/>
      <point x="703" y="56"/>
      <point x="756" y="88"/>
      <point x="785" y="144" type="curve"/>
      <point x="852" y="113" type="line"/>
      <point x="804" y="26"/>
      <point x="733" y="-10"/>
      <point x="630" y="-10" type="curve" smooth="yes"/>
      <point x="543" y="-10"/>
      <point x="482" y="21"/>
      <point x="448" y="84" type="curve"/>
      <point x="400" y="23"/>
      <point x="331" y="-7"/>
      <point x="240" y="-7" type="curve" smooth="yes"/>
      <point x="111" y="-7"/>
      <point x="34" y="73"/>
      <point x="34" y="205" type="curve" smooth="yes"/>
      <point x="39" y="403"/>
      <point x="139" y="543"/>
      <point x="313" y="538" type="curve" smooth="yes"/>
      <point x="405" y="538"/>
      <point x="467" y="507"/>
      <point x="500" y="444" type="curve"/>
      <point x="549" y="504"/>
      <point x="618" y="538"/>
      <point x="697" y="538" type="curve" smooth="yes"/>
      <point x="829" y="538"/>
      <point x="907" y="469"/>
      <point x="907" y="346" type="curve" smooth="yes"/>
      <point x="907" y="311"/>
      <point x="903" y="278"/>
    </contour>
    <contour>
      <point x="434" y="333" type="curve" smooth="yes"/>
      <point x="434" y="426"/>
      <point x="394" y="473"/>
      <point x="313" y="473" type="curve" smooth="yes"/>
      <point x="269" y="473"/>
      <point x="234" y="461"/>
      <point x="207" y="438" type="curve" smooth="yes"/>
      <point x="180" y="415"/>
      <point x="160" y="381"/>
      <point x="145" y="335" type="curve" smooth="yes"/>
      <point x="131" y="290"/>
      <point x="124" y="246"/>
      <point x="124" y="203" type="curve" smooth="yes"/>
      <point x="124" y="106"/>
      <point x="164" y="58"/>
      <point x="245" y="58" type="curve" smooth="yes"/>
      <point x="290" y="58"/>
      <point x="324" y="69"/>
      <point x="349" y="90" type="curve" smooth="yes"/>
      <point x="400" y="134"/>
      <point x="430" y="229"/>
    </contour>
    <contour>
      <point x="526" y="313" type="curve"/>
      <point x="817" y="313" type="line"/>
      <point x="819" y="348" type="line"/>
      <point x="819" y="429"/>
      <point x="778" y="473"/>
      <point x="699" y="473" type="curve" smooth="yes"/>
      <point x="611" y="473"/>
      <point x="550" y="416"/>
    </contour>
  </outline>
</glyph>
<glyph name="Rcommaaccent" format="1">
  <advance width="722"/>
  <unicode hex="0156"/>
  <outline>
    <contour>
      <point x="614" y="0" type="line"/>
      <point x="513" y="0" type="line"/>
      <point x="395" y="286" type="line"/>
      <point x="179" y="286" type="line"/>
      <point x="124" y="0" type="line"/>
      <point x="31" y="0" type="line"/>
      <point x="164" y="688" type="line"/>
      <point x="463" y="688" type="line" smooth="yes"/>
      <point x="532" y="688"/>
      <point x="588" y="671"/>
      <point x="629" y="638" type="curve" smooth="yes"/>
      <point x="670" y="605"/>
      <point x="691" y="561"/>
      <point x="691" y="507" type="curve" smooth="yes"/>
      <point x="691" y="386"/>
      <point x="620" y="313"/>
      <point x="483" y="294" type="curve"/>
    </contour>
    <contour>
      <point x="194" y="359" type="line"/>
      <point x="418" y="359" type="line" smooth="yes"/>
      <point x="537" y="359"/>
      <point x="597" y="411"/>
      <point x="597" y="500" type="curve" smooth="yes"/>
      <point x="597" y="573"/>
      <point x="548" y="613"/>
      <point x="452" y="613" type="curve" smooth="yes"/>
      <point x="243" y="613" type="line"/>
    </contour>
    <contour>
      <point x="292" y="-222" type="curve"/>
      <point x="235" y="-222" type="line"/>
      <point x="272" y="-189"/>
      <point x="294" y="-158"/>
      <point x="299" y="-129" type="curve"/>
      <point x="256" y="-129" type="line"/>
      <point x="272" y="-48" type="line"/>
      <point x="367" y="-48" type="line"/>
      <point x="357" y="-100" type="line" smooth="yes"/>
      <point x="346" y="-156"/>
      <point x="324" y="-191"/>
    </contour>
  </outline>
</glyph>
<glyph name="Tcommaaccent" format="1">
  <advance width="611"/>
  <unicode hex="0162"/>
  <outline>
    <contour>
      <point x="655" y="612" type="line"/>
      <point x="419" y="612" type="line"/>
      <point x="300" y="0" type="line"/>
      <point x="207" y="0" type="line"/>
      <point x="326" y="612" type="line"/>
      <point x="90" y="612" type="line"/>
      <point x="104" y="688" type="line"/>
      <point x="670" y="688" type="line"/>
    </contour>
    <contour>
      <point x="282" y="0" type="line"/>
      <point x="253" y="-47" type="line"/>
      <point x="306" y="-50"/>
      <point x="333" y="-74"/>
      <point x="333" y="-113" type="curve" smooth="yes"/>
      <point x="333" y="-176"/>
      <point x="284" y="-208"/>
      <point x="185" y="-208" type="curve" smooth="yes"/>
      <point x="168" y="-208"/>
      <point x="151" y="-207"/>
      <point x="133" y="-204" type="curve"/>
      <point x="143" y="-160" type="line"/>
      <point x="159" y="-162"/>
      <point x="173" y="-163"/>
      <point x="186" y="-163" type="curve" smooth="yes"/>
      <point x="245" y="-163"/>
      <point x="267" y="-148"/>
      <point x="267" y="-119" type="curve" smooth="yes"/>
      <point x="267" y="-96"/>
      <point x="248" y="-84"/>
      <point x="209" y="-84" type="curve" smooth="yes"/>
      <point x="195" y="-84"/>
      <point x="186" y="-84"/>
      <point x="181" y="-85" type="curve" smooth="yes"/>
      <point x="230" y="0" type="line"/>
    </contour>
  </outline>
</glyph>
<glyph name="Tcaron" format="1">
  <advance width="611"/>
  <unicode hex="0164"/>
  <outline>
    <contour>
      <point x="655" y="612" type="line"/>
      <point x="419" y="612" type="line"/>
      <point x="300" y="0" type="line"/>
      <point x="207" y="0" type="line"/>
      <point x="326" y="612" type="line"/>
      <point x="90" y="612" type="line"/>
      <point x="104" y="688" type="line"/>
      <point x="670" y="688" type="line"/>
    </contour>
    <contour>
      <point x="577" y="864" type="line"/>
      <point x="445" y="747" type="line"/>
      <point x="345" y="747" type="line"/>
      <point x="254" y="864" type="line"/>
      <point x="256" y="874" type="line"/>
      <point x="301" y="874" type="line"/>
      <point x="401" y="806" type="line"/>
      <point x="402" y="806" type="line"/>
      <point x="522" y="874" type="line"/>
      <point x="579" y="874" type="line"/>
    </contour>
  </outline>
</glyph>
<glyph name="Tbar" format="1">
  <advance width="611"/>
  <unicode hex="0166"/>
  <outline>
    <contour>
      <point x="655" y="612" type="line"/>
      <point x="419" y="612" type="line"/>
      <point x="376" y="391" type="line"/>
      <point x="513" y="391" type="line"/>
      <point x="499" y="316" type="line"/>
      <point x="361" y="316" type="line"/>
      <point x="300" y="0" type="line"/>
      <point x="208" y="0" type="line"/>
      <point x="269" y="316" type="line"/>
      <point x="132" y="316" type="line"/>
      <point x="147" y="391" type="line"/>
      <point x="283" y="391" type="line"/>
      <point x="326" y="612" type="line"/>
      <point x="90" y="612" type="line"/>
      <point x="104" y="688" type="line"/>
      <point x="670" y="688" type="line"/>
    </contour>
  </outline>
</glyph>
<glyph name="Uring" format="1">
  <advance width="722"/>
  <unicode hex="016E"/>
  <outline>
    <contour>
      <point x="319" y="-10" type="curve" smooth="yes"/>
      <point x="168" y="-10"/>
      <point x="75" y="74"/>
      <point x="75" y="210" type="curve" smooth="yes"/>
      <point x="75" y="239"/>
      <point x="81" y="286"/>
      <point x="86" y="310" type="curve" smooth="yes"/>
      <point x="159" y="688" type="line"/>
      <point x="252" y="688" type="line"/>
      <point x="173" y="276" type="line" smooth="yes"/>
      <point x="168" y="248"/>
      <point x="165" y="225"/>
      <point x="165" y="207" type="curve" smooth="yes"/>
      <point x="165" y="118"/>
      <point x="224" y="66"/>
      <point x="327" y="66" type="curve" smooth="yes"/>
      <point x="452" y="66"/>
      <point x="527" y="132"/>
      <point x="552" y="264" type="curve" smooth="yes"/>
      <point x="634" y="688" type="line"/>
      <point x="727" y="688" type="line"/>
      <point x="644" y="259" type="line" smooth="yes"/>
      <point x="609" y="80"/>
      <point x="499" y="-10"/>
    </contour>
    <contour>
      <point x="567" y="852" type="curve" smooth="yes"/>
      <point x="567" y="819"/>
      <point x="555" y="791"/>
      <point x="532" y="768" type="curve" smooth="yes"/>
      <point x="509" y="745"/>
      <point x="482" y="733"/>
      <point x="449" y="733" type="curve" smooth="yes"/>
      <point x="416" y="733"/>
      <point x="388" y="745"/>
      <point x="365" y="768" type="curve" smooth="yes"/>
      <point x="342" y="791"/>
      <point x="331" y="819"/>
      <point x="331" y="852" type="curve" smooth="yes"/>
      <point x="331" y="917"/>
      <point x="384" y="969"/>
      <point x="449" y="969" type="curve" smooth="yes"/>
      <point x="482" y="969"/>
      <point x="509" y="957"/>
      <point x="532" y="934" type="curve" smooth="yes"/>
      <point x="555" y="911"/>
      <point x="567" y="884"/>
    </contour>
    <contour>
      <point x="515" y="852" type="curve" smooth="yes"/>
      <point x="515" y="889"/>
      <point x="488" y="917"/>
      <point x="449" y="917" type="curve" smooth="yes"/>
      <point x="410" y="917"/>
      <point x="383" y="887"/>
      <point x="383" y="852" type="curve" smooth="yes"/>
      <point x="383" y="816"/>
      <point x="410" y="785"/>
      <point x="449" y="785" type="curve" smooth="yes"/>
      <point x="488" y="785"/>
      <point x="515" y="815"/>
    </contour>
  </outline>
</glyph>
<glyph name="uring" format="1">
  <advance width="556"/>
  <unicode hex="016F"/>
  <outline>
    <contour>
      <point x="114" y="528" type="line"/>
      <point x="203" y="528" type="line"/>
      <point x="141" y="213" type="line" smooth="yes"/>
      <point x="135" y="184"/>
      <point x="132" y="160"/>
      <point x="132" y="140" type="curve" smooth="yes"/>
      <point x="132" y="86"/>
      <point x="161" y="59"/>
      <point x="220" y="59" type="curve" smooth="yes"/>
      <point x="301" y="59"/>
      <point x="370" y="125"/>
      <point x="391" y="232" type="curve" smooth="yes"/>
      <point x="448" y="528" type="line"/>
      <point x="536" y="528" type="line"/>
      <point x="455" y="113" type="line" smooth="yes"/>
      <point x="448" y="82"/>
      <point x="442" y="44"/>
      <point x="436" y="0" type="curve"/>
      <point x="353" y="0" type="line" smooth="yes"/>
      <point x="353" y="3"/>
      <point x="355" y="16"/>
      <point x="358" y="37" type="curve" smooth="yes"/>
      <point x="361" y="59"/>
      <point x="364" y="77"/>
      <point x="367" y="90" type="curve"/>
      <point x="365" y="90" type="line"/>
      <point x="312" y="15"/>
      <point x="262" y="-9"/>
      <point x="187" y="-9" type="curve" smooth="yes"/>
      <point x="91" y="-9"/>
      <point x="42" y="40"/>
      <point x="42" y="129" type="curve" smooth="yes"/>
      <point x="42" y="150"/>
      <point x="45" y="177"/>
      <point x="52" y="209" type="curve" smooth="yes"/>
    </contour>
    <contour>
      <point x="455" y="688" type="curve" smooth="yes"/>
      <point x="455" y="656"/>
      <point x="443" y="628"/>
      <point x="420" y="605" type="curve" smooth="yes"/>
      <point x="397" y="582"/>
      <point x="369" y="570"/>
      <point x="336" y="570" type="curve" smooth="yes"/>
      <point x="304" y="570"/>
      <point x="276" y="582"/>
      <point x="253" y="605" type="curve" smooth="yes"/>
      <point x="230" y="628"/>
      <point x="218" y="656"/>
      <point x="218" y="688" type="curve" smooth="yes"/>
      <point x="218" y="721"/>
      <point x="230" y="749"/>
      <point x="253" y="772" type="curve" smooth="yes"/>
      <point x="276" y="795"/>
      <point x="304" y="806"/>
      <point x="336" y="806" type="curve" smooth="yes"/>
      <point x="369" y="806"/>
      <point x="397" y="794"/>
      <point x="420" y="771" type="curve" smooth="yes"/>
      <point x="443" y="748"/>
      <point x="455" y="721"/>
    </contour>
    <contour>
      <point x="402" y="688" type="curve" smooth="yes"/>
      <point x="402" y="727"/>
      <point x="375" y="754"/>
      <point x="336" y="754" type="curve" smooth="yes"/>
      <point x="299" y="754"/>
      <point x="271" y="724"/>
      <point x="271" y="688" type="curve" smooth="yes"/>
      <point x="271" y="653"/>
      <point x="299" y="622"/>
      <point x="336" y="622" type="curve" smooth="yes"/>
      <point x="375" y="622"/>
      <point x="402" y="652"/>
    </contour>
  </outline>
</glyph>
<glyph name="Uhungarumlaut" format="1">
  <advance width="722"/>
  <unicode hex="0170"/>
  <outline>
    <contour>
      <point x="319" y="-10" type="curve" smooth="yes"/>
      <point x="168" y="-10"/>
      <point x="75" y="74"/>
      <point x="75" y="210" type="curve" smooth="yes"/>
      <point x="75" y="239"/>
      <point x="81" y="286"/>
      <point x="86" y="310" type="curve" smooth="yes"/>
      <point x="159" y="688" type="line"/>
      <point x="252" y="688" type="line"/>
      <point x="173" y="276" type="line" smooth="yes"/>
      <point x="168" y="248"/>
      <point x="165" y="225"/>
      <point x="165" y="207" type="curve" smooth="yes"/>
      <point x="165" y="118"/>
      <point x="224" y="66"/>
      <point x="327" y="66" type="curve" smooth="yes"/>
      <point x="452" y="66"/>
      <point x="527" y="132"/>
      <point x="552" y="264" type="curve" smooth="yes"/>
      <point x="634" y="688" type="line"/>
      <point x="727" y="688" type="line"/>
      <point x="644" y="259" type="line" smooth="yes"/>
      <point x="609" y="80"/>
      <point x="499" y="-10"/>
    </contour>
    <contour>
      <point x="346" y="747" type="line"/>
      <point x="301" y="747" type="line"/>
      <point x="302" y="757" type="line"/>
      <point x="411" y="868" type="line"/>
      <point x="512" y="868" type="line"/>
      <point x="509" y="854" type="line"/>
    </contour>
    <contour>
      <point x="516" y="747" type="line"/>
      <point x="470" y="747" type="line"/>
      <point x="471" y="757" type="line"/>
      <point x="580" y="868" type="line"/>
      <point x="681" y="868" type="line"/>
      <point x="679" y="854" type="line"/>
    </contour>
  </outline>
</glyph>
<glyph name="Uogonek" format="1">
  <advance width="722"/>
  <unicode hex="0172"/>
  <outline>
    <contour>
      <point x="319" y="-10" type="curve" smooth="yes"/>
      <point x="168" y="-10"/>
      <point x="75" y="74"/>
      <point x="75" y="210" type="curve" smooth="yes"/>
      <point x="75" y="239"/>
      <point x="81" y="286"/>
      <point x="86" y="310" type="curve" smooth="yes"/>
      <point x="159" y="688" type="line"/>
      <point x="252" y="688" type="line"/>
      <point x="173" y="276" type="line" smooth="yes"/>
      <point x="168" y="248"/>
      <point x="165" y="225"/>
      <point x="165" y="207" type="curve" smooth="yes"/>
      <point x="165" y="118"/>
      <point x="224" y="66"/>
      <point x="327" y="66" type="curve" smooth="yes"/>
      <point x="452" y="66"/>
      <point x="527" y="132"/>
      <point x="552" y="264" type="curve" smooth="yes"/>
      <point x="634" y="688" type="line"/>
      <point x="727" y="688" type="line"/>
      <point x="644" y="259" type="line" smooth="yes"/>
      <point x="609" y="80"/>
      <point x="499" y="-10"/>
    </contour>
    <contour>
      <point x="333" y="-208" type="curve" smooth="yes"/>
      <point x="277" y="-208"/>
      <point x="247" y="-175"/>
      <point x="247" y="-126" type="curve" smooth="yes"/>
      <point x="247" y="-73"/>
      <point x="287" y="-23"/>
      <point x="347" y="0" type="curve"/>
      <point x="412" y="0" type="line"/>
      <point x="351" y="-31"/>
      <point x="317" y="-74"/>
      <point x="317" y="-115" type="curve" smooth="yes"/>
      <point x="317" y="-138"/>
      <point x="331" y="-155"/>
      <point x="355" y="-155" type="curve" smooth="yes"/>
      <point x="373" y="-155"/>
      <point x="392" y="-151"/>
      <point x="411" y="-144" type="curve"/>
      <point x="404" y="-195" type="line"/>
      <point x="382" y="-204"/>
      <point x="358" y="-208"/>
    </contour>
  </outline>
</glyph>
<glyph name="wcircumflex" format="1">
  <advance width="722"/>
  <unicode hex="0175"/>
  <outline>
    <contour>
      <point x="776" y="528" type="line"/>
      <point x="521" y="0" type="line"/>
      <point x="419" y="0" type="line"/>
      <point x="401" y="341" type="line"/>
      <point x="398" y="456" type="line"/>
      <point x="389" y="431"/>
      <point x="380" y="410"/>
      <point x="372" y="391" type="curve" smooth="yes"/>
      <point x="196" y="0" type="line"/>
      <point x="95" y="0" type="line"/>
      <point x="50" y="528" type="line"/>
      <point x="137" y="528" type="line"/>
      <point x="156" y="169" type="line"/>
      <point x="160" y="73" type="line"/>
      <point x="199" y="166" type="line"/>
      <point x="366" y="528" type="line"/>
      <point x="460" y="528" type="line"/>
      <point x="481" y="166" type="line" smooth="yes"/>
      <point x="483" y="131"/>
      <point x="484" y="100"/>
      <point x="484" y="73" type="curve"/>
      <point x="495" y="98"/>
      <point x="563" y="250"/>
      <point x="690" y="528" type="curve"/>
    </contour>
    <contour>
      <point x="485" y="728" type="line"/>
      <point x="569" y="596" type="line"/>
      <point x="567" y="586" type="line"/>
      <point x="522" y="586" type="line"/>
      <point x="431" y="669" type="line"/>
      <point x="430" y="669" type="line"/>
      <point x="301" y="586" type="line"/>
      <point x="244" y="586" type="line"/>
      <point x="246" y="596" type="line"/>
      <point x="386" y="728" type="line"/>
    </contour>
  </outline>
</glyph>
<glyph name="Ycircumflex" format="1">
  <advance width="667"/>
  <unicode hex="0176"/>
  <outline>
    <contour>
      <point x="383" y="285" type="line"/>
      <point x="328" y="0" type="line"/>
      <point x="235" y="0" type="line"/>
      <point x="292" y="285" type="line"/>
      <point x="104" y="688" type="line"/>
      <point x="200" y="688" type="line"/>
      <point x="349" y="359" type="line"/>
      <point x="623" y="688" type="line"/>
      <point x="727" y="688" type="line"/>
    </contour>
    <contour>
      <point x="498" y="874" type="line"/>
      <point x="584" y="757" type="line"/>
      <point x="582" y="747" type="line"/>
      <point x="536" y="747" type="line"/>
      <point x="442" y="815" type="line"/>
      <point x="441" y="815" type="line"/>
      <point x="314" y="747" type="line"/>
      <point x="259" y="747" type="line"/>
      <point x="261" y="757" type="line"/>
      <point x="398" y="874" type="line"/>
    </contour>
  </outline>
</glyph>
<glyph name="Zacute" format="1">
  <advance width="611"/>
  <unicode hex="0179"/>
  <outline>
    <contour>
      <point x="543" y="76" type="line"/>
      <point x="528" y="0" type="line"/>
      <point x="-20" y="0" type="line"/>
      <point x="-6" y="70" type="line"/>
      <point x="508" y="612" type="line"/>
      <point x="135" y="612" type="line"/>
      <point x="149" y="688" type="line"/>
      <point x="639" y="688" type="line"/>
      <point x="625" y="620" type="line"/>
      <point x="111" y="76" type="line"/>
    </contour>
    <contour>
      <point x="390" y="747" type="line"/>
      <point x="334" y="747" type="line"/>
      <point x="335" y="757" type="line"/>
      <point x="463" y="867" type="line"/>
      <point x="564" y="867" type="line"/>
      <point x="562" y="853" type="line"/>
    </contour>
  </outline>
</glyph>
<glyph name="zacute" format="1">
  <advance width="500"/>
  <unicode hex="017A"/>
  <outline>
    <contour>
      <point x="403" y="0" type="line"/>
      <point x="-6" y="0" type="line"/>
      <point x="5" y="67" type="line"/>
      <point x="368" y="460" type="line"/>
      <point x="91" y="460" type="line"/>
      <point x="104" y="528" type="line"/>
      <point x="486" y="528" type="line"/>
      <point x="475" y="461" type="line"/>
      <point x="112" y="68" type="line"/>
      <point x="416" y="68" type="line"/>
    </contour>
    <contour>
      <point x="282" y="586" type="line"/>
      <point x="236" y="586" type="line"/>
      <point x="238" y="596" type="line"/>
      <point x="361" y="736" type="line"/>
      <point x="467" y="736" type="line"/>
      <point x="465" y="722" type="line"/>
    </contour>
  </outline>
</glyph>
<glyph name="Zdotaccent" format="1">
  <advance width="611"/>
  <unicode hex="017B"/>
  <outline>
    <contour>
      <point x="543" y="76" type="line"/>
      <point x="528" y="0" type="line"/>
      <point x="-20" y="0" type="line"/>
      <point x="-6" y="70" type="line"/>
      <point x="508" y="612" type="line"/>
      <point x="135" y="612" type="line"/>
      <point x="149" y="688" type="line"/>
      <point x="639" y="688" type="line"/>
      <point x="625" y="620" type="line"/>
      <point x="111" y="76" type="line"/>
    </contour>
    <contour>
      <point x="428" y="747" type="line"/>
      <point x="340" y="747" type="line"/>
      <point x="357" y="831" type="line"/>
      <point x="445" y="831" type="line"/>
    </contour>
  </outline>
</glyph>
<glyph name="Zcaron" format="1">
  <advance width="611"/>
  <unicode hex="017D"/>
  <outline>
    <contour>
      <point x="543" y="76" type="line"/>
      <point x="528" y="0" type="line"/>
      <point x="-20" y="0" type="line"/>
      <point x="-6" y="70" type="line"/>
      <point x="508" y="612" type="line"/>
      <point x="135" y="612" type="line"/>
      <point x="149" y="688" type="line"/>
      <point x="639" y="688" type="line"/>
      <point x="625" y="620" type="line"/>
      <point x="111" y="76" type="line"/>
    </contour>
    <contour>
      <point x="571" y="864" type="line"/>
      <point x="439" y="747" type="line"/>
      <point x="339" y="747" type="line"/>
      <point x="248" y="864" type="line"/>
      <point x="250" y="874" type="line"/>
      <point x="295" y="874" type="line"/>
      <point x="396" y="806" type="line"/>
      <point x="517" y="874" type="line"/>
      <point x="573" y="874" type="line"/>
    </contour>
  </outline>
</glyph>
<glyph name="zcaron" format="1">
  <advance width="500"/>
  <unicode hex="017E"/>
  <outline>
    <contour>
      <point x="398" y="0" type="line"/>
      <point x="-11" y="0" type="line"/>
      <point x="0" y="67" type="line"/>
      <point x="362" y="460" type="line"/>
      <point x="86" y="460" type="line"/>
      <point x="98" y="528" type="line"/>
      <point x="481" y="528" type="line"/>
      <point x="469" y="461" type="line"/>
      <point x="107" y="68" type="line"/>
      <point x="410" y="68" type="line"/>
    </contour>
    <contour>
      <point x="487" y="718" type="line"/>
      <point x="352" y="586" type="line"/>
      <point x="252" y="586" type="line"/>
      <point x="164" y="718" type="line"/>
      <point x="166" y="728" type="line"/>
      <point x="213" y="728" type="line"/>
      <point x="311" y="646" type="line"/>
      <point x="312" y="646" type="line"/>
      <point x="435" y="728" type="line"/>
      <point x="489" y="728" type="line"/>
    </contour>
  </outline>
</glyph>
<glyph name="uni0180" format="1">
  <advance width="556"/>
  <unicode hex="0180"/>
  <outline>
    <contour>
      <point x="69" y="589" type="line"/>
      <point x="82" y="653" type="line"/>
      <point x="144" y="653" type="line"/>
      <point x="158" y="725" type="line"/>
      <point x="246" y="725" type="line"/>
      <point x="231" y="653" type="line"/>
      <point x="380" y="653" type="line"/>
      <point x="368" y="589" type="line"/>
      <point x="219" y="589" type="line"/>
      <point x="205" y="518" type="line" smooth="yes"/>
      <point x="201" y="497"/>
      <point x="195" y="475"/>
      <point x="188" y="450" type="curve"/>
      <point x="190" y="450" type="line"/>
      <point x="238" y="511"/>
      <point x="286" y="538"/>
      <point x="363" y="538" type="curve" smooth="yes"/>
      <point x="466" y="538"/>
      <point x="525" y="473"/>
      <point x="525" y="365" type="curve" smooth="yes"/>
      <point x="525" y="299"/>
      <point x="515" y="235"/>
      <point x="495" y="173" type="curve" smooth="yes"/>
      <point x="455" y="49"/>
      <point x="384" y="-10"/>
      <point x="272" y="-10" type="curve" smooth="yes"/>
      <point x="192" y="-10"/>
      <point x="142" y="26"/>
      <point x="121" y="87" type="curve"/>
      <point x="120" y="87" type="line"/>
      <point x="99" y="0" type="line"/>
      <point x="14" y="0" type="line"/>
      <point x="17" y="8"/>
      <point x="25" y="44"/>
      <point x="38" y="109" type="curve" smooth="yes"/>
      <point x="131" y="589" type="line"/>
    </contour>
    <contour>
      <point x="338" y="470" type="curve" smooth="yes"/>
      <point x="274" y="470"/>
      <point x="229" y="444"/>
      <point x="197" y="391" type="curve" smooth="yes"/>
      <point x="181" y="364"/>
      <point x="168" y="331"/>
      <point x="159" y="291" type="curve" smooth="yes"/>
      <point x="150" y="251"/>
      <point x="146" y="215"/>
      <point x="146" y="184" type="curve" smooth="yes"/>
      <point x="146" y="103"/>
      <point x="190" y="55"/>
      <point x="263" y="55" type="curve" smooth="yes"/>
      <point x="302" y="55"/>
      <point x="334" y="67"/>
      <point x="357" y="90" type="curve" smooth="yes"/>
      <point x="380" y="114"/>
      <point x="399" y="153"/>
      <point x="413" y="206" type="curve" smooth="yes"/>
      <point x="427" y="260"/>
      <point x="434" y="308"/>
      <point x="434" y="350" type="curve" smooth="yes"/>
      <point x="434" y="430"/>
      <point x="405" y="470"/>
    </contour>
  </outline>
</glyph>
<glyph name="uni0181" format="1">
  <advance width="730"/>
  <unicode hex="0181"/>
  <outline>
    <contour>
      <point x="94" y="0" type="line"/>
      <point x="214" y="616" type="line"/>
      <point x="206" y="616" type="line" smooth="yes"/>
      <point x="145" y="616"/>
      <point x="115" y="581"/>
      <point x="115" y="521" type="curve"/>
      <point x="117" y="497" type="line"/>
      <point x="44" y="488" type="line"/>
      <point x="42" y="497"/>
      <point x="41" y="507"/>
      <point x="41" y="517" type="curve" smooth="yes"/>
      <point x="41" y="628"/>
      <point x="101" y="688"/>
      <point x="213" y="688" type="curve" smooth="yes"/>
      <point x="477" y="688" type="line" smooth="yes"/>
      <point x="613" y="688"/>
      <point x="696" y="628"/>
      <point x="696" y="531" type="curve" smooth="yes"/>
      <point x="696" y="438"/>
      <point x="641" y="382"/>
      <point x="531" y="363" type="curve"/>
      <point x="620" y="348"/>
      <point x="672" y="291"/>
      <point x="672" y="214" type="curve" smooth="yes"/>
      <point x="672" y="75"/>
      <point x="565" y="0"/>
      <point x="385" y="0" type="curve" smooth="yes"/>
    </contour>
    <contour>
      <point x="250" y="323" type="line"/>
      <point x="202" y="75" type="line"/>
      <point x="381" y="75" type="line" smooth="yes"/>
      <point x="518" y="75"/>
      <point x="579" y="123"/>
      <point x="579" y="216" type="curve" smooth="yes"/>
      <point x="579" y="285"/>
      <point x="525" y="323"/>
      <point x="429" y="323" type="curve" smooth="yes"/>
    </contour>
    <contour>
      <point x="307" y="613" type="line"/>
      <point x="264" y="396" type="line"/>
      <point x="426" y="396" type="line" smooth="yes"/>
      <point x="541" y="396"/>
      <point x="599" y="438"/>
      <point x="599" y="521" type="curve" smooth="yes"/>
      <point x="599" y="582"/>
      <point x="555" y="613"/>
      <point x="468" y="613" type="curve" smooth="yes"/>
    </contour>
  </outline>
</glyph>
<glyph name="uni0186" format="1">
  <advance width="722"/>
  <unicode hex="0186"/>
  <outline>
    <contour>
      <point x="155" y="480" type="curve"/>
      <point x="85" y="524" type="line"/>
      <point x="168" y="647"/>
      <point x="268" y="698"/>
      <point x="407" y="698" type="curve" smooth="yes"/>
      <point x="585" y="698"/>
      <point x="693" y="584"/>
      <point x="693" y="411" type="curve" smooth="yes"/>
      <point x="697" y="170"/>
      <point x="521" y="-16"/>
      <point x="296" y="-10" type="curve" smooth="yes"/>
      <point x="155" y="-10"/>
      <point x="52" y="52"/>
      <point x="21" y="159" type="curve"/>
      <point x="109" y="186" type="line"/>
      <point x="132" y="113"/>
      <point x="204" y="66"/>
      <point x="301" y="66" type="curve" smooth="yes"/>
      <point x="483" y="66"/>
      <point x="601" y="207"/>
      <point x="601" y="412" type="curve" smooth="yes"/>
      <point x="601" y="543"/>
      <point x="527" y="623"/>
      <point x="400" y="623" type="curve" smooth="yes"/>
      <point x="304" y="623"/>
      <point x="219" y="575"/>
    </contour>
  </outline>
</glyph>
<glyph name="uni018B" format="1">
  <advance width="651"/>
  <unicode hex="018B"/>
  <outline>
    <contour>
      <point x="518" y="0" type="line"/>
      <point x="271" y="0" type="line" smooth="yes"/>
      <point x="122" y="0"/>
      <point x="35" y="67"/>
      <point x="35" y="184" type="curve" smooth="yes"/>
      <point x="35" y="319"/>
      <point x="137" y="397"/>
      <point x="305" y="397" type="curve" smooth="yes"/>
      <point x="502" y="397" type="line"/>
      <point x="544" y="612" type="line"/>
      <point x="173" y="612" type="line"/>
      <point x="188" y="688" type="line"/>
      <point x="652" y="688" type="line"/>
    </contour>
    <contour>
      <point x="443" y="74" type="line"/>
      <point x="487" y="323" type="line"/>
      <point x="310" y="323" type="line" smooth="yes"/>
      <point x="189" y="323"/>
      <point x="129" y="278"/>
      <point x="129" y="188" type="curve" smooth="yes"/>
      <point x="129" y="115"/>
      <point x="179" y="74"/>
      <point x="275" y="74" type="curve" smooth="yes"/>
    </contour>
  </outline>
</glyph>
<glyph name="uni018E" format="1">
  <advance width="667"/>
  <unicode hex="018E"/>
  <outline>
    <contour>
      <point x="527" y="0" type="line"/>
      <point x="-15" y="0" type="line"/>
      <point x="1" y="76" type="line"/>
      <point x="450" y="76" type="line"/>
      <point x="501" y="316" type="line"/>
      <point x="102" y="316" type="line"/>
      <point x="118" y="391" type="line"/>
      <point x="517" y="391" type="line"/>
      <point x="564" y="612" type="line"/>
      <point x="135" y="612" type="line"/>
      <point x="151" y="688" type="line"/>
      <point x="673" y="688" type="line"/>
    </contour>
  </outline>
</glyph>
<glyph name="uni0190" format="1">
  <advance width="614"/>
  <unicode hex="0190"/>
  <outline>
    <contour>
      <point x="266" y="-10" type="curve"/>
      <point x="125" y="-10"/>
      <point x="39" y="59"/>
      <point x="39" y="168" type="curve" smooth="yes"/>
      <point x="39" y="276"/>
      <point x="112" y="347"/>
      <point x="231" y="363" type="curve"/>
      <point x="160" y="382"/>
      <point x="121" y="426"/>
      <point x="121" y="493" type="curve" smooth="yes"/>
      <point x="121" y="555"/>
      <point x="145" y="605"/>
      <point x="192" y="642" type="curve" smooth="yes"/>
      <point x="239" y="679"/>
      <point x="302" y="698"/>
      <point x="381" y="698" type="curve" smooth="yes"/>
      <point x="512" y="698"/>
      <point x="584" y="644"/>
      <point x="607" y="531" type="curve"/>
      <point x="522" y="506" type="line"/>
      <point x="498" y="591"/>
      <point x="454" y="622"/>
      <point x="375" y="622" type="curve" smooth="yes"/>
      <point x="278" y="622"/>
      <point x="214" y="570"/>
      <point x="214" y="487" type="curve" smooth="yes"/>
      <point x="214" y="422"/>
      <point x="266" y="392"/>
      <point x="371" y="392" type="curve" smooth="yes"/>
      <point x="401" y="392" type="line"/>
      <point x="387" y="319" type="line"/>
      <point x="352" y="319" type="line" smooth="yes"/>
      <point x="207" y="319"/>
      <point x="134" y="271"/>
      <point x="134" y="174" type="curve" smooth="yes"/>
      <point x="134" y="106"/>
      <point x="187" y="65"/>
      <point x="274" y="65" type="curve" smooth="yes"/>
      <point x="358" y="65"/>
      <point x="428" y="109"/>
      <point x="483" y="198" type="curve"/>
      <point x="554" y="155" type="line"/>
      <point x="473" y="29"/>
      <point x="397" y="-5"/>
    </contour>
  </outline>
</glyph>
<glyph name="uni0193" format="1">
  <advance width="778"/>
  <unicode hex="0193"/>
  <outline>
    <contour>
      <point x="362" y="-10" type="curve" smooth="yes"/>
      <point x="163" y="-10"/>
      <point x="49" y="97"/>
      <point x="49" y="280" type="curve" smooth="yes"/>
      <point x="45" y="522"/>
      <point x="219" y="703"/>
      <point x="461" y="698" type="curve" smooth="yes"/>
      <point x="554" y="698"/>
      <point x="625" y="676"/>
      <point x="674" y="631" type="curve"/>
      <point x="677" y="645" type="line" smooth="yes"/>
      <point x="696" y="738"/>
      <point x="751" y="789"/>
      <point x="832" y="789" type="curve" smooth="yes"/>
      <point x="853" y="789"/>
      <point x="872" y="786"/>
      <point x="890" y="779" type="curve"/>
      <point x="876" y="705" type="line"/>
      <point x="861" y="711"/>
      <point x="847" y="714"/>
      <point x="834" y="714" type="curve" smooth="yes"/>
      <point x="790" y="714"/>
      <point x="764" y="687"/>
      <point x="752" y="627" type="curve" smooth="yes"/>
      <point x="735" y="536" type="line"/>
      <point x="641" y="510" type="line"/>
      <point x="617" y="585"/>
      <point x="552" y="622"/>
      <point x="455" y="622" type="curve" smooth="yes"/>
      <point x="265" y="622"/>
      <point x="145" y="486"/>
      <point x="145" y="282" type="curve" smooth="yes"/>
      <point x="145" y="145"/>
      <point x="225" y="66"/>
      <point x="365" y="66" type="curve" smooth="yes"/>
      <point x="457" y="66"/>
      <point x="546" y="94"/>
      <point x="601" y="142" type="curve"/>
      <point x="626" y="266" type="line"/>
      <point x="420" y="266" type="line"/>
      <point x="436" y="344" type="line"/>
      <point x="728" y="344" type="line"/>
      <point x="679" y="103" type="line"/>
      <point x="587" y="24"/>
      <point x="487" y="-10"/>
    </contour>
  </outline>
</glyph>
<glyph name="uni0196" format="1">
  <advance width="222"/>
  <unicode hex="0196"/>
  <outline>
    <contour>
      <point x="104" y="0" type="line"/>
      <point x="16" y="0" type="line"/>
      <point x="157" y="725" type="line"/>
      <point x="245" y="725" type="line"/>
    </contour>
  </outline>
</glyph>
<glyph name="uni0197" format="1">
  <advance width="278"/>
  <unicode hex="0197"/>
  <outline>
    <contour>
      <point x="127" y="0" type="line"/>
      <point x="40" y="0" type="line"/>
      <point x="104" y="328" type="line"/>
      <point x="23" y="328" type="line"/>
      <point x="37" y="397" type="line"/>
      <point x="117" y="397" type="line"/>
      <point x="181" y="725" type="line"/>
      <point x="269" y="725" type="line"/>
      <point x="205" y="397" type="line"/>
      <point x="288" y="397" type="line"/>
      <point x="274" y="328" type="line"/>
      <point x="191" y="328" type="line"/>
    </contour>
  </outline>
</glyph>
<glyph name="uni0199" format="1">
  <advance width="500"/>
  <unicode hex="0199"/>
  <outline>
    <contour>
      <point x="447" y="0" type="line"/>
      <point x="352" y="0" type="line"/>
      <point x="221" y="245" type="line"/>
      <point x="139" y="185" type="line"/>
      <point x="104" y="0" type="line"/>
      <point x="17" y="0" type="line"/>
      <point x="132" y="596" type="line" smooth="yes"/>
      <point x="149" y="683"/>
      <point x="202" y="731"/>
      <point x="281" y="731" type="curve" smooth="yes"/>
      <point x="304" y="731"/>
      <point x="324" y="728"/>
      <point x="342" y="721" type="curve"/>
      <point x="328" y="647" type="line"/>
      <point x="313" y="654"/>
      <point x="300" y="657"/>
      <point x="289" y="657" type="curve" smooth="yes"/>
      <point x="248" y="657"/>
      <point x="225" y="626"/>
      <point x="213" y="563" type="curve" smooth="yes"/>
      <point x="158" y="277" type="line"/>
      <point x="257" y="370" type="line"/>
      <point x="434" y="528" type="line"/>
      <point x="542" y="528" type="line"/>
      <point x="283" y="301" type="line"/>
    </contour>
  </outline>
</glyph>
<glyph name="uni019C" format="1">
  <advance width="846"/>
  <unicode hex="019C"/>
  <outline>
    <contour>
      <point x="508" y="-10" type="curve" smooth="yes"/>
      <point x="441" y="-10"/>
      <point x="396" y="17"/>
      <point x="373" y="72" type="curve"/>
      <point x="313" y="11"/>
      <point x="265" y="-10"/>
      <point x="204" y="-10" type="curve" smooth="yes"/>
      <point x="96" y="-10"/>
      <point x="38" y="46"/>
      <point x="38" y="151" type="curve" smooth="yes"/>
      <point x="38" y="174"/>
      <point x="41" y="204"/>
      <point x="48" y="239" type="curve" smooth="yes"/>
      <point x="135" y="688" type="line"/>
      <point x="227" y="688" type="line"/>
      <point x="140" y="238" type="line" smooth="yes"/>
      <point x="134" y="208"/>
      <point x="131" y="183"/>
      <point x="131" y="162" type="curve" smooth="yes"/>
      <point x="131" y="94"/>
      <point x="157" y="66"/>
      <point x="221" y="66" type="curve" smooth="yes"/>
      <point x="300" y="66"/>
      <point x="343" y="116"/>
      <point x="362" y="215" type="curve" smooth="yes"/>
      <point x="454" y="688" type="line"/>
      <point x="546" y="688" type="line"/>
      <point x="456" y="223" type="line" smooth="yes"/>
      <point x="451" y="198"/>
      <point x="448" y="176"/>
      <point x="448" y="157" type="curve" smooth="yes"/>
      <point x="448" y="96"/>
      <point x="475" y="66"/>
      <point x="532" y="66" type="curve" smooth="yes"/>
      <point x="613" y="66"/>
      <point x="663" y="119"/>
      <point x="684" y="224" type="curve" smooth="yes"/>
      <point x="774" y="688" type="line"/>
      <point x="866" y="688" type="line"/>
      <point x="754" y="113" type="line" smooth="yes"/>
      <point x="748" y="81"/>
      <point x="742" y="43"/>
      <point x="737" y="0" type="curve"/>
      <point x="655" y="0" type="line"/>
      <point x="665" y="71" type="line"/>
      <point x="626" y="20"/>
      <point x="571" y="-10"/>
    </contour>
  </outline>
</glyph>
<glyph name="uni019D" format="1">
  <advance width="722"/>
  <unicode hex="019D"/>
  <outline>
    <contour>
      <point x="589" y="0" type="line"/>
      <point x="482" y="0" type="line"/>
      <point x="223" y="591" type="line"/>
      <point x="212" y="517"/>
      <point x="205" y="473"/>
      <point x="202" y="460" type="curve" smooth="yes"/>
      <point x="102" y="-63" type="line" smooth="yes"/>
      <point x="82" y="-163"/>
      <point x="35" y="-207"/>
      <point x="-56" y="-207" type="curve" smooth="yes"/>
      <point x="-77" y="-207"/>
      <point x="-97" y="-204"/>
      <point x="-115" y="-197" type="curve"/>
      <point x="-101" y="-121" type="line"/>
      <point x="-86" y="-127"/>
      <point x="-72" y="-130"/>
      <point x="-59" y="-130" type="curve" smooth="yes"/>
      <point x="-15" y="-130"/>
      <point x="11" y="-103"/>
      <point x="22" y="-43" type="curve" smooth="yes"/>
      <point x="164" y="688" type="line"/>
      <point x="268" y="688" type="line"/>
      <point x="528" y="95" type="line"/>
      <point x="537" y="156"/>
      <point x="544" y="202"/>
      <point x="550" y="233" type="curve" smooth="yes"/>
      <point x="639" y="688" type="line"/>
      <point x="723" y="688" type="line"/>
    </contour>
  </outline>
</glyph>
<glyph name="uni019E" format="1">
  <advance width="556"/>
  <unicode hex="019E"/>
  <outline>
    <contour>
      <point x="398" y="-208" type="line"/>
      <point x="310" y="-208" type="line"/>
      <point x="412" y="315" type="line" smooth="yes"/>
      <point x="417" y="344"/>
      <point x="420" y="368"/>
      <point x="420" y="388" type="curve" smooth="yes"/>
      <point x="420" y="443"/>
      <point x="391" y="470"/>
      <point x="333" y="470" type="curve" smooth="yes"/>
      <point x="250" y="470"/>
      <point x="183" y="403"/>
      <point x="162" y="296" type="curve" smooth="yes"/>
      <point x="104" y="0" type="line"/>
      <point x="17" y="0" type="line"/>
      <point x="92" y="385" type="line" smooth="yes"/>
      <point x="97" y="409"/>
      <point x="102" y="450"/>
      <point x="102" y="461" type="curve" smooth="yes"/>
      <point x="102" y="464"/>
      <point x="101" y="476"/>
      <point x="100" y="495" type="curve" smooth="yes"/>
      <point x="99" y="514"/>
      <point x="99" y="525"/>
      <point x="98" y="528" type="curve" smooth="yes"/>
      <point x="179" y="528" type="line"/>
      <point x="184" y="509"/>
      <point x="186" y="479"/>
      <point x="186" y="438" type="curve"/>
      <point x="188" y="438" type="line"/>
      <point x="241" y="513"/>
      <point x="291" y="538"/>
      <point x="366" y="538" type="curve" smooth="yes"/>
      <point x="462" y="538"/>
      <point x="511" y="488"/>
      <point x="511" y="399" type="curve" smooth="yes"/>
      <point x="511" y="378"/>
      <point x="507" y="352"/>
      <point x="500" y="319" type="curve" smooth="yes"/>
    </contour>
  </outline>
</glyph>
<glyph name="uni01A5" format="1">
  <advance width="556"/>
  <unicode hex="01A5"/>
  <outline>
    <contour>
      <point x="271" y="-10" type="curve" smooth="yes"/>
      <point x="190" y="-10"/>
      <point x="140" y="26"/>
      <point x="119" y="87" type="curve"/>
      <point x="117" y="87" type="line"/>
      <point x="116" y="78" type="line"/>
      <point x="108" y="28" type="line"/>
      <point x="63" y="-208" type="line"/>
      <point x="-25" y="-208" type="line"/>
      <point x="131" y="596" type="line" smooth="yes"/>
      <point x="147" y="683"/>
      <point x="200" y="731"/>
      <point x="279" y="731" type="curve" smooth="yes"/>
      <point x="302" y="731"/>
      <point x="322" y="728"/>
      <point x="340" y="721" type="curve"/>
      <point x="326" y="647" type="line"/>
      <point x="311" y="654"/>
      <point x="298" y="657"/>
      <point x="288" y="657" type="curve" smooth="yes"/>
      <point x="247" y="657"/>
      <point x="224" y="626"/>
      <point x="212" y="563" type="curve" smooth="yes"/>
      <point x="190" y="452" type="line"/>
      <point x="191" y="452" type="line"/>
      <point x="240" y="513"/>
      <point x="287" y="538"/>
      <point x="362" y="538" type="curve" smooth="yes"/>
      <point x="463" y="538"/>
      <point x="524" y="473"/>
      <point x="524" y="365" type="curve" smooth="yes"/>
      <point x="524" y="299"/>
      <point x="514" y="235"/>
      <point x="494" y="173" type="curve" smooth="yes"/>
      <point x="454" y="49"/>
      <point x="383" y="-10"/>
    </contour>
    <contour>
      <point x="336" y="470" type="curve" smooth="yes"/>
      <point x="272" y="470"/>
      <point x="227" y="444"/>
      <point x="195" y="391" type="curve" smooth="yes"/>
      <point x="179" y="364"/>
      <point x="166" y="331"/>
      <point x="157" y="291" type="curve" smooth="yes"/>
      <point x="148" y="251"/>
      <point x="144" y="215"/>
      <point x="144" y="184" type="curve" smooth="yes"/>
      <point x="144" y="103"/>
      <point x="188" y="55"/>
      <point x="261" y="55" type="curve" smooth="yes"/>
      <point x="301" y="55"/>
      <point x="332" y="67"/>
      <point x="355" y="90" type="curve" smooth="yes"/>
      <point x="378" y="114"/>
      <point x="397" y="153"/>
      <point x="411" y="206" type="curve" smooth="yes"/>
      <point x="425" y="260"/>
      <point x="432" y="308"/>
      <point x="432" y="350" type="curve" smooth="yes"/>
      <point x="432" y="430"/>
      <point x="403" y="470"/>
    </contour>
  </outline>
</glyph>
<glyph name="uni01A7" format="1">
  <advance width="667"/>
  <unicode hex="01A7"/>
  <outline>
    <contour>
      <point x="560" y="535" type="curve" smooth="yes"/>
      <point x="560" y="595"/>
      <point x="507" y="628"/>
      <point x="414" y="628" type="curve" smooth="yes"/>
      <point x="313" y="628"/>
      <point x="248" y="591"/>
      <point x="212" y="507" type="curve"/>
      <point x="124" y="523" type="line"/>
      <point x="153" y="586"/>
      <point x="190" y="631"/>
      <point x="236" y="658" type="curve" smooth="yes"/>
      <point x="282" y="685"/>
      <point x="344" y="698"/>
      <point x="421" y="698" type="curve" smooth="yes"/>
      <point x="565" y="698"/>
      <point x="650" y="640"/>
      <point x="650" y="537" type="curve" smooth="yes"/>
      <point x="650" y="482"/>
      <point x="634" y="443"/>
      <point x="606" y="414" type="curve" smooth="yes"/>
      <point x="592" y="400"/>
      <point x="575" y="388"/>
      <point x="556" y="377" type="curve" smooth="yes"/>
      <point x="537" y="367"/>
      <point x="517" y="358"/>
      <point x="494" y="351" type="curve" smooth="yes"/>
      <point x="472" y="344"/>
      <point x="431" y="334"/>
      <point x="371" y="323" type="curve" smooth="yes"/>
      <point x="318" y="313" type="line" smooth="yes"/>
      <point x="186" y="286"/>
      <point x="133" y="241"/>
      <point x="133" y="168" type="curve" smooth="yes"/>
      <point x="133" y="100"/>
      <point x="195" y="63"/>
      <point x="295" y="63" type="curve" smooth="yes"/>
      <point x="421" y="67"/>
      <point x="484" y="100"/>
      <point x="536" y="220" type="curve"/>
      <point x="622" y="197" type="line"/>
      <point x="559" y="48"/>
      <point x="457" y="-10"/>
      <point x="290" y="-10" type="curve" smooth="yes"/>
      <point x="131" y="-10"/>
      <point x="41" y="55"/>
      <point x="41" y="168" type="curve" smooth="yes"/>
      <point x="41" y="224"/>
      <point x="58" y="267"/>
      <point x="89" y="298" type="curve" smooth="yes"/>
      <point x="104" y="314"/>
      <point x="122" y="327"/>
      <point x="143" y="338" type="curve" smooth="yes"/>
      <point x="164" y="349"/>
      <point x="187" y="359"/>
      <point x="212" y="367" type="curve" smooth="yes"/>
      <point x="237" y="376"/>
      <point x="281" y="386"/>
      <point x="343" y="398" type="curve" smooth="yes"/>
      <point x="410" y="411"/>
      <point x="457" y="423"/>
      <point x="482" y="434" type="curve" smooth="yes"/>
      <point x="534" y="457"/>
      <point x="560" y="487"/>
    </contour>
  </outline>
</glyph>
<glyph name="uni01AA" format="1">
  <advance width="333"/>
  <unicode hex="01AA"/>
  <outline>
    <contour>
      <point x="86" y="625" type="curve" smooth="yes"/>
      <point x="86" y="688"/>
      <point x="135" y="729"/>
      <point x="204" y="729" type="curve" smooth="yes"/>
      <point x="275" y="729"/>
      <point x="312" y="694"/>
      <point x="312" y="627" type="curve" smooth="yes"/>
      <point x="312" y="614"/>
      <point x="310" y="597"/>
      <point x="306" y="577" type="curve" smooth="yes"/>
      <point x="182" y="-61" type="line" smooth="yes"/>
      <point x="180" y="-70"/>
      <point x="179" y="-78"/>
      <point x="179" y="-85" type="curve" smooth="yes"/>
      <point x="179" y="-115"/>
      <point x="195" y="-130"/>
      <point x="226" y="-130" type="curve" smooth="yes"/>
      <point x="244" y="-130"/>
      <point x="261" y="-128"/>
      <point x="278" y="-124" type="curve"/>
      <point x="264" y="-201" type="line"/>
      <point x="241" y="-206"/>
      <point x="219" y="-208"/>
      <point x="198" y="-208" type="curve" smooth="yes"/>
      <point x="131" y="-208"/>
      <point x="91" y="-167"/>
      <point x="91" y="-99" type="curve" smooth="yes"/>
      <point x="91" y="-86"/>
      <point x="92" y="-71"/>
      <point x="95" y="-56" type="curve" smooth="yes"/>
      <point x="216" y="561" type="line"/>
      <point x="201" y="551"/>
      <point x="184" y="546"/>
      <point x="164" y="546" type="curve" smooth="yes"/>
      <point x="115" y="546"/>
      <point x="86" y="577"/>
    </contour>
    <contour>
      <point x="188" y="691" type="curve" smooth="yes"/>
      <point x="152" y="691"/>
      <point x="125" y="663"/>
      <point x="125" y="627" type="curve" smooth="yes"/>
      <point x="125" y="599"/>
      <point x="141" y="585"/>
      <point x="168" y="585" type="curve" smooth="yes"/>
      <point x="205" y="585"/>
      <point x="232" y="612"/>
      <point x="232" y="647" type="curve" smooth="yes"/>
      <point x="232" y="675"/>
      <point x="216" y="691"/>
    </contour>
  </outline>
</glyph>
<glyph name="uni01AD" format="1">
  <advance width="278"/>
  <unicode hex="01AD"/>
  <outline>
    <contour>
      <point x="134" y="-10" type="curve" smooth="yes"/>
      <point x="79" y="-10"/>
      <point x="45" y="26"/>
      <point x="45" y="81" type="curve" smooth="yes"/>
      <point x="45" y="99"/>
      <point x="48" y="120"/>
      <point x="53" y="145" type="curve" smooth="yes"/>
      <point x="114" y="464" type="line"/>
      <point x="53" y="464" type="line"/>
      <point x="66" y="528" type="line"/>
      <point x="127" y="528" type="line"/>
      <point x="141" y="595" type="line" smooth="yes"/>
      <point x="158" y="679"/>
      <point x="208" y="731"/>
      <point x="289" y="731" type="curve" smooth="yes"/>
      <point x="312" y="731"/>
      <point x="332" y="728"/>
      <point x="350" y="721" type="curve"/>
      <point x="335" y="647" type="line"/>
      <point x="320" y="654"/>
      <point x="308" y="657"/>
      <point x="297" y="657" type="curve" smooth="yes"/>
      <point x="256" y="657"/>
      <point x="234" y="626"/>
      <point x="221" y="561" type="curve" smooth="yes"/>
      <point x="215" y="528" type="line"/>
      <point x="313" y="528" type="line"/>
      <point x="300" y="464" type="line"/>
      <point x="202" y="464" type="line"/>
      <point x="141" y="149" type="line" smooth="yes"/>
      <point x="137" y="130"/>
      <point x="135" y="114"/>
      <point x="135" y="103" type="curve" smooth="yes"/>
      <point x="135" y="74"/>
      <point x="150" y="60"/>
      <point x="179" y="60" type="curve" smooth="yes"/>
      <point x="193" y="60"/>
      <point x="209" y="62"/>
      <point x="228" y="67" type="curve"/>
      <point x="219" y="2" type="line"/>
      <point x="186" y="-6"/>
      <point x="158" y="-10"/>
    </contour>
  </outline>
</glyph>
<glyph name="uni01AE" format="1">
  <advance width="611"/>
  <unicode hex="01AE"/>
  <outline>
    <contour>
      <point x="326" y="612" type="line"/>
      <point x="90" y="612" type="line"/>
      <point x="104" y="688" type="line"/>
      <point x="670" y="688" type="line"/>
      <point x="655" y="612" type="line"/>
      <point x="419" y="612" type="line"/>
      <point x="290" y="-53" type="line" smooth="yes"/>
      <point x="287" y="-66"/>
      <point x="286" y="-78"/>
      <point x="286" y="-87" type="curve" smooth="yes"/>
      <point x="286" y="-116"/>
      <point x="299" y="-130"/>
      <point x="325" y="-130" type="curve" smooth="yes"/>
      <point x="344" y="-130"/>
      <point x="362" y="-127"/>
      <point x="379" y="-122" type="curve"/>
      <point x="364" y="-199" type="line"/>
      <point x="341" y="-205"/>
      <point x="319" y="-208"/>
      <point x="298" y="-208" type="curve" smooth="yes"/>
      <point x="227" y="-208"/>
      <point x="190" y="-169"/>
      <point x="190" y="-105" type="curve" smooth="yes"/>
      <point x="190" y="-92"/>
      <point x="192" y="-76"/>
      <point x="196" y="-57" type="curve" smooth="yes"/>
    </contour>
  </outline>
</glyph>
<glyph name="uni01B4" format="1">
  <advance width="500"/>
  <unicode hex="01B4"/>
  <outline>
    <contour>
      <point x="4" y="-208" type="curve" smooth="yes"/>
      <point x="-16" y="-208"/>
      <point x="-36" y="-206"/>
      <point x="-57" y="-201" type="curve"/>
      <point x="-42" y="-135" type="line"/>
      <point x="-30" y="-138"/>
      <point x="-16" y="-139"/>
      <point x="-1" y="-139" type="curve" smooth="yes"/>
      <point x="55" y="-139"/>
      <point x="99" y="-101"/>
      <point x="148" y="-16" type="curve" smooth="yes"/>
      <point x="161" y="6" type="line"/>
      <point x="55" y="528" type="line"/>
      <point x="144" y="528" type="line"/>
      <point x="199" y="237" type="line"/>
      <point x="204" y="205" type="line" smooth="yes"/>
      <point x="213" y="154"/>
      <point x="218" y="118"/>
      <point x="219" y="96" type="curve"/>
      <point x="249" y="152" type="line"/>
      <point x="497" y="610" type="line" smooth="yes"/>
      <point x="541" y="690"/>
      <point x="586" y="729"/>
      <point x="662" y="729" type="curve" smooth="yes"/>
      <point x="703" y="729"/>
      <point x="738" y="714"/>
      <point x="769" y="683" type="curve"/>
      <point x="721" y="621" type="line"/>
      <point x="703" y="641"/>
      <point x="683" y="651"/>
      <point x="660" y="651" type="curve" smooth="yes"/>
      <point x="629" y="651"/>
      <point x="600" y="629"/>
      <point x="575" y="584" type="curve" smooth="yes"/>
      <point x="246" y="0" type="line" smooth="yes"/>
      <point x="201" y="-81"/>
      <point x="161" y="-135"/>
      <point x="126" y="-164" type="curve" smooth="yes"/>
      <point x="91" y="-193"/>
      <point x="51" y="-208"/>
    </contour>
  </outline>
</glyph>
<glyph name="uni01B5" format="1">
  <advance width="611"/>
  <unicode hex="01B5"/>
  <outline>
    <contour>
      <point x="43" y="333" type="line"/>
      <point x="56" y="397" type="line"/>
      <point x="305" y="397" type="line"/>
      <point x="508" y="612" type="line"/>
      <point x="135" y="612" type="line"/>
      <point x="149" y="688" type="line"/>
      <point x="639" y="688" type="line"/>
      <point x="625" y="620" type="line"/>
      <point x="415" y="397" type="line"/>
      <point x="605" y="397" type="line"/>
      <point x="593" y="333" type="line"/>
      <point x="353" y="333" type="line"/>
      <point x="111" y="76" type="line"/>
      <point x="543" y="76" type="line"/>
      <point x="528" y="0" type="line"/>
      <point x="-20" y="0" type="line"/>
      <point x="-6" y="70" type="line"/>
      <point x="243" y="333" type="line"/>
    </contour>
  </outline>
</glyph>
<glyph name="uni01B6" format="1">
  <advance width="500"/>
  <unicode hex="01B6"/>
  <outline>
    <contour>
      <point x="23" y="236" type="line"/>
      <point x="36" y="301" type="line"/>
      <point x="223" y="301" type="line"/>
      <point x="381" y="460" type="line"/>
      <point x="87" y="460" type="line"/>
      <point x="101" y="528" type="line"/>
      <point x="503" y="528" type="line"/>
      <point x="490" y="461" type="line"/>
      <point x="331" y="301" type="line"/>
      <point x="478" y="301" type="line"/>
      <point x="465" y="236" type="line"/>
      <point x="267" y="236" type="line"/>
      <point x="100" y="68" type="line"/>
      <point x="431" y="68" type="line"/>
      <point x="418" y="0" type="line"/>
      <point x="-21" y="0" type="line"/>
      <point x="-8" y="67" type="line"/>
      <point x="160" y="236" type="line"/>
    </contour>
  </outline>
</glyph>
<glyph name="uni01B7" format="1">
  <advance width="611"/>
  <unicode hex="01B7"/>
  <outline>
    <contour>
      <point x="213" y="371" type="line"/>
      <point x="504" y="612" type="line"/>
      <point x="121" y="612" type="line"/>
      <point x="136" y="688" type="line"/>
      <point x="633" y="688" type="line"/>
      <point x="618" y="609" type="line"/>
      <point x="324" y="370" type="line"/>
      <point x="468" y="354"/>
      <point x="545" y="268"/>
      <point x="545" y="131" type="curve" smooth="yes"/>
      <point x="549" y="-57"/>
      <point x="413" y="-214"/>
      <point x="218" y="-208" type="curve"/>
      <point x="85" y="-208"/>
      <point x="-4" y="-148"/>
      <point x="-35" y="-32" type="curve"/>
      <point x="47" y="-3" type="line"/>
      <point x="75" y="-96"/>
      <point x="132" y="-135"/>
      <point x="219" y="-135" type="curve" smooth="yes"/>
      <point x="288" y="-135"/>
      <point x="347" y="-109"/>
      <point x="390" y="-56" type="curve" smooth="yes"/>
      <point x="433" y="-4"/>
      <point x="452" y="67"/>
      <point x="452" y="131" type="curve" smooth="yes"/>
      <point x="452" y="242"/>
      <point x="378" y="302"/>
      <point x="239" y="302" type="curve" smooth="yes"/>
      <point x="200" y="302" type="line"/>
    </contour>
  </outline>
</glyph>
<glyph name="uni01B8" format="1">
  <advance width="611"/>
  <unicode hex="01B8"/>
  <outline>
    <contour>
      <point x="426" y="371" type="line"/>
      <point x="413" y="302" type="line"/>
      <point x="385" y="302" type="line" smooth="yes"/>
      <point x="292" y="302"/>
      <point x="218" y="277"/>
      <point x="164" y="227" type="curve" smooth="yes"/>
      <point x="110" y="178"/>
      <point x="83" y="110"/>
      <point x="83" y="25" type="curve" smooth="yes"/>
      <point x="83" y="-75"/>
      <point x="143" y="-135"/>
      <point x="235" y="-135" type="curve" smooth="yes"/>
      <point x="326" y="-135"/>
      <point x="400" y="-91"/>
      <point x="456" y="-3" type="curve"/>
      <point x="524" y="-43" type="line"/>
      <point x="445" y="-166"/>
      <point x="360" y="-208"/>
      <point x="229" y="-208" type="curve" smooth="yes"/>
      <point x="156" y="-208"/>
      <point x="98" y="-187"/>
      <point x="55" y="-145" type="curve" smooth="yes"/>
      <point x="12" y="-104"/>
      <point x="-10" y="-47"/>
      <point x="-10" y="24" type="curve" smooth="yes"/>
      <point x="-14" y="216"/>
      <point x="128" y="354"/>
      <point x="326" y="370" type="curve"/>
      <point x="123" y="609" type="line"/>
      <point x="138" y="688" type="line"/>
      <point x="635" y="688" type="line"/>
      <point x="620" y="612" type="line"/>
      <point x="223" y="612" type="line"/>
    </contour>
  </outline>
</glyph>
<glyph name="uni01B9" format="1">
  <advance width="500"/>
  <unicode hex="01B9"/>
  <outline>
    <contour>
      <point x="518" y="529" type="line"/>
      <point x="504" y="460" type="line"/>
      <point x="157" y="460" type="line"/>
      <point x="316" y="268" type="line"/>
      <point x="303" y="201" type="line"/>
      <point x="283" y="201" type="line" smooth="yes"/>
      <point x="154" y="201"/>
      <point x="58" y="117"/>
      <point x="58" y="-1" type="curve" smooth="yes"/>
      <point x="58" y="-85"/>
      <point x="107" y="-140"/>
      <point x="178" y="-140" type="curve" smooth="yes"/>
      <point x="265" y="-140"/>
      <point x="317" y="-105"/>
      <point x="348" y="-18" type="curve"/>
      <point x="429" y="-23" type="line"/>
      <point x="392" y="-146"/>
      <point x="307" y="-208"/>
      <point x="173" y="-208" type="curve" smooth="yes"/>
      <point x="49" y="-208"/>
      <point x="-32" y="-124"/>
      <point x="-32" y="-4" type="curve" smooth="yes"/>
      <point x="-32" y="66"/>
      <point x="-10" y="125"/>
      <point x="34" y="173" type="curve" smooth="yes"/>
      <point x="78" y="222"/>
      <point x="138" y="252"/>
      <point x="215" y="264" type="curve"/>
      <point x="70" y="442" type="line"/>
      <point x="86" y="529" type="line"/>
    </contour>
  </outline>
</glyph>
<glyph name="uni01BB" format="1">
  <advance width="556"/>
  <unicode hex="01BB"/>
  <outline>
    <contour>
      <point x="67" y="300" type="line"/>
      <point x="81" y="366" type="line"/>
      <point x="366" y="366" type="line"/>
      <point x="425" y="414"/>
      <point x="449" y="462"/>
      <point x="449" y="519" type="curve" smooth="yes"/>
      <point x="449" y="583"/>
      <point x="405" y="626"/>
      <point x="336" y="626" type="curve" smooth="yes"/>
      <point x="265" y="626"/>
      <point x="210" y="587"/>
      <point x="186" y="510" type="curve"/>
      <point x="103" y="528" type="line"/>
      <point x="138" y="639"/>
      <point x="219" y="698"/>
      <point x="342" y="698" type="curve" smooth="yes"/>
      <point x="401" y="698"/>
      <point x="449" y="682"/>
      <point x="486" y="650" type="curve" smooth="yes"/>
      <point x="523" y="619"/>
      <point x="542" y="577"/>
      <point x="542" y="526" type="curve" smooth="yes"/>
      <point x="542" y="468"/>
      <point x="519" y="415"/>
      <point x="472" y="366" type="curve"/>
      <point x="541" y="366" type="line"/>
      <point x="527" y="300" type="line"/>
      <point x="396" y="300" type="line"/>
      <point x="290" y="226"/>
      <point x="167" y="164"/>
      <point x="108" y="75" type="curve"/>
      <point x="463" y="75" type="line"/>
      <point x="449" y="0" type="line"/>
      <point x="-6" y="0" type="line"/>
      <point x="6" y="62" type="line"/>
      <point x="23" y="92"/>
      <point x="43" y="119"/>
      <point x="66" y="144" type="curve" smooth="yes"/>
      <point x="89" y="169"/>
      <point x="115" y="192"/>
      <point x="143" y="214" type="curve" smooth="yes"/>
      <point x="171" y="236"/>
      <point x="213" y="265"/>
      <point x="270" y="300" type="curve"/>
    </contour>
  </outline>
</glyph>
<glyph name="uni01BC" format="1">
  <advance width="510"/>
  <unicode hex="01BC"/>
  <outline>
    <contour>
      <point x="203" y="-10" type="curve" smooth="yes"/>
      <point x="75" y="-10"/>
      <point x="2" y="60"/>
      <point x="-2" y="168" type="curve"/>
      <point x="86" y="179" type="line"/>
      <point x="91" y="96"/>
      <point x="135" y="60"/>
      <point x="208" y="60" type="curve" smooth="yes"/>
      <point x="316" y="55"/>
      <point x="396" y="153"/>
      <point x="396" y="267" type="curve" smooth="yes"/>
      <point x="396" y="346"/>
      <point x="343" y="388"/>
      <point x="250" y="388" type="curve" smooth="yes"/>
      <point x="147" y="388" type="line"/>
      <point x="191" y="612" type="line"/>
      <point x="107" y="612" type="line"/>
      <point x="122" y="688" type="line"/>
      <point x="533" y="688" type="line"/>
      <point x="518" y="612" type="line"/>
      <point x="281" y="612" type="line"/>
      <point x="252" y="464" type="line"/>
      <point x="275" y="464" type="line" smooth="yes"/>
      <point x="411" y="464"/>
      <point x="488" y="393"/>
      <point x="488" y="272" type="curve" smooth="yes"/>
      <point x="488" y="220"/>
      <point x="476" y="172"/>
      <point x="453" y="127" type="curve" smooth="yes"/>
      <point x="406" y="38"/>
      <point x="320" y="-10"/>
    </contour>
  </outline>
</glyph>
<glyph name="uni01BD" format="1">
  <advance width="438"/>
  <unicode hex="01BD"/>
  <outline>
    <contour>
      <point x="178" y="55" type="curve" smooth="yes"/>
      <point x="257" y="55"/>
      <point x="309" y="99"/>
      <point x="309" y="174" type="curve" smooth="yes"/>
      <point x="309" y="239"/>
      <point x="265" y="269"/>
      <point x="181" y="269" type="curve" smooth="yes"/>
      <point x="104" y="269" type="line"/>
      <point x="141" y="460" type="line"/>
      <point x="57" y="460" type="line"/>
      <point x="70" y="528" type="line"/>
      <point x="451" y="528" type="line"/>
      <point x="438" y="460" type="line"/>
      <point x="220" y="460" type="line"/>
      <point x="196" y="336" type="line"/>
      <point x="218" y="336" type="line" smooth="yes"/>
      <point x="331" y="336"/>
      <point x="399" y="280"/>
      <point x="399" y="187" type="curve" smooth="yes"/>
      <point x="399" y="64"/>
      <point x="316" y="-10"/>
      <point x="176" y="-10" type="curve" smooth="yes"/>
      <point x="57" y="-10"/>
      <point x="-5" y="47"/>
      <point x="-5" y="152" type="curve"/>
      <point x="78" y="158" type="line"/>
      <point x="79" y="95"/>
      <point x="119" y="55"/>
    </contour>
  </outline>
</glyph>
<glyph name="uni01BE" format="1">
  <advance width="500"/>
  <unicode hex="01BE"/>
  <outline>
    <contour>
      <point x="309" y="464" type="line"/>
      <point x="218" y="464" type="line"/>
      <point x="208" y="412" type="line" smooth="yes"/>
      <point x="205" y="397"/>
      <point x="203" y="383"/>
      <point x="203" y="372" type="curve" smooth="yes"/>
      <point x="203" y="339"/>
      <point x="224" y="323"/>
      <point x="281" y="307" type="curve" smooth="yes"/>
      <point x="325" y="295"/>
      <point x="357" y="283"/>
      <point x="377" y="271" type="curve" smooth="yes"/>
      <point x="417" y="247"/>
      <point x="439" y="213"/>
      <point x="439" y="164" type="curve" smooth="yes"/>
      <point x="439" y="52"/>
      <point x="360" y="-10"/>
      <point x="209" y="-10" type="curve" smooth="yes"/>
      <point x="80" y="-10"/>
      <point x="19" y="33"/>
      <point x="11" y="124" type="curve"/>
      <point x="89" y="139" type="line"/>
      <point x="97" y="80"/>
      <point x="134" y="57"/>
      <point x="213" y="57" type="curve" smooth="yes"/>
      <point x="304" y="57"/>
      <point x="352" y="93"/>
      <point x="352" y="157" type="curve" smooth="yes"/>
      <point x="352" y="189"/>
      <point x="333" y="206"/>
      <point x="282" y="223" type="curve" smooth="yes"/>
      <point x="223" y="241"/>
      <point x="184" y="255"/>
      <point x="167" y="266" type="curve" smooth="yes"/>
      <point x="132" y="289"/>
      <point x="114" y="319"/>
      <point x="114" y="364" type="curve" smooth="yes"/>
      <point x="114" y="369"/>
      <point x="114" y="375"/>
      <point x="115" y="380" type="curve" smooth="yes"/>
      <point x="130" y="464" type="line"/>
      <point x="66" y="464" type="line"/>
      <point x="79" y="528" type="line"/>
      <point x="144" y="528" type="line"/>
      <point x="176" y="698" type="line"/>
      <point x="271" y="736" type="line"/>
      <point x="231" y="528" type="line"/>
      <point x="321" y="528" type="line"/>
    </contour>
  </outline>
</glyph>
<glyph name="uni01BF" format="1">
  <advance width="556"/>
  <unicode hex="01BF"/>
  <outline>
    <contour>
      <point x="91" y="-62" type="curve"/>
      <point x="63" y="-208" type="line"/>
      <point x="-25" y="-208" type="line"/>
      <point x="118" y="529" type="line"/>
      <point x="199" y="529" type="line"/>
      <point x="196" y="501"/>
      <point x="193" y="473"/>
      <point x="188" y="444" type="curve"/>
      <point x="190" y="444" type="line"/>
      <point x="231" y="507"/>
      <point x="294" y="538"/>
      <point x="367" y="538" type="curve" smooth="yes"/>
      <point x="471" y="538"/>
      <point x="528" y="481"/>
      <point x="528" y="373" type="curve" smooth="yes"/>
      <point x="528" y="233"/>
      <point x="454" y="118"/>
      <point x="307" y="29" type="curve" smooth="yes"/>
      <point x="240" y="-11"/>
      <point x="163" y="-37"/>
    </contour>
    <contour>
      <point x="434" y="366" type="curve" smooth="yes"/>
      <point x="434" y="435"/>
      <point x="401" y="470"/>
      <point x="335" y="470" type="curve" smooth="yes"/>
      <point x="242" y="470"/>
      <point x="179" y="400"/>
      <point x="155" y="267" type="curve" smooth="yes"/>
      <point x="105" y="10" type="line"/>
      <point x="188" y="39"/>
      <point x="251" y="71"/>
      <point x="296" y="105" type="curve" smooth="yes"/>
      <point x="387" y="174"/>
      <point x="434" y="267"/>
    </contour>
  </outline>
</glyph>
<glyph name="uni01C0" format="1">
  <advance width="260"/>
  <unicode hex="01C0"/>
  <outline>
    <contour>
      <point x="184" y="0" type="line"/>
      <point x="96" y="0" type="line"/>
      <point x="96" y="725" type="line"/>
      <point x="184" y="725" type="line"/>
    </contour>
  </outline>
</glyph>
<glyph name="uni01C5" format="1">
  <advance width="1222"/>
  <unicode hex="01C5"/>
  <outline>
    <contour>
      <point x="164" y="688" type="line"/>
      <point x="363" y="688" type="line" smooth="yes"/>
      <point x="465" y="688"/>
      <point x="545" y="661"/>
      <point x="603" y="607" type="curve" smooth="yes"/>
      <point x="661" y="554"/>
      <point x="690" y="480"/>
      <point x="690" y="386" type="curve" smooth="yes"/>
      <point x="695" y="158"/>
      <point x="520" y="-1"/>
      <point x="281" y="0" type="curve" smooth="yes"/>
      <point x="31" y="0" type="line"/>
    </contour>
    <contour>
      <point x="243" y="613" type="line"/>
      <point x="138" y="75" type="line"/>
      <point x="277" y="75" type="line" smooth="yes"/>
      <point x="468" y="72"/>
      <point x="598" y="197"/>
      <point x="595" y="387" type="curve" smooth="yes"/>
      <point x="595" y="530"/>
      <point x="509" y="613"/>
      <point x="361" y="613" type="curve" smooth="yes"/>
    </contour>
    <contour>
      <point x="1125" y="0" type="line"/>
      <point x="716" y="0" type="line"/>
      <point x="728" y="67" type="line"/>
      <point x="1090" y="460" type="line"/>
      <point x="813" y="460" type="line"/>
      <point x="826" y="528" type="line"/>
      <point x="1208" y="528" type="line"/>
      <point x="1197" y="461" type="line"/>
      <point x="834" y="68" type="line"/>
      <point x="1138" y="68" type="line"/>
    </contour>
    <contour>
      <point x="1215" y="718" type="line"/>
      <point x="1080" y="586" type="line"/>
      <point x="980" y="586" type="line"/>
      <point x="892" y="718" type="line"/>
      <point x="894" y="728" type="line"/>
      <point x="941" y="728" type="line"/>
      <point x="1039" y="646" type="line"/>
      <point x="1040" y="646" type="line"/>
      <point x="1163" y="728" type="line"/>
      <point x="1217" y="728" type="line"/>
    </contour>
  </outline>
</glyph>
<glyph name="uni01C8" format="1">
  <advance width="778"/>
  <unicode hex="01C8"/>
  <outline>
    <contour>
      <point x="472" y="0" type="line"/>
      <point x="31" y="0" type="line"/>
      <point x="164" y="688" type="line"/>
      <point x="257" y="688" type="line"/>
      <point x="139" y="76" type="line"/>
      <point x="486" y="76" type="line"/>
    </contour>
    <contour>
      <point x="785" y="641" type="line"/>
      <point x="697" y="641" type="line"/>
      <point x="713" y="725" type="line"/>
      <point x="801" y="725" type="line"/>
    </contour>
    <contour>
      <point x="507" y="-208" type="curve" smooth="yes"/>
      <point x="489" y="-208"/>
      <point x="468" y="-206"/>
      <point x="444" y="-201" type="curve"/>
      <point x="456" y="-134" type="line"/>
      <point x="473" y="-137"/>
      <point x="486" y="-138"/>
      <point x="496" y="-138" type="curve" smooth="yes"/>
      <point x="535" y="-138"/>
      <point x="551" y="-112"/>
      <point x="563" y="-52" type="curve" smooth="yes"/>
      <point x="675" y="528" type="line"/>
      <point x="763" y="528" type="line"/>
      <point x="647" y="-65" type="line" smooth="yes"/>
      <point x="627" y="-169"/>
      <point x="583" y="-208"/>
    </contour>
  </outline>
</glyph>
<glyph name="uni01C9" format="1">
  <advance width="444"/>
  <unicode hex="01C9"/>
  <outline>
    <contour>
      <point x="104" y="0" type="line"/>
      <point x="16" y="0" type="line"/>
      <point x="157" y="725" type="line"/>
      <point x="245" y="725" type="line"/>
    </contour>
    <contour>
      <point x="451" y="641" type="line"/>
      <point x="363" y="641" type="line"/>
      <point x="379" y="725" type="line"/>
      <point x="467" y="725" type="line"/>
    </contour>
    <contour>
      <point x="173" y="-208" type="curve" smooth="yes"/>
      <point x="155" y="-208"/>
      <point x="134" y="-206"/>
      <point x="110" y="-201" type="curve"/>
      <point x="122" y="-134" type="line"/>
      <point x="139" y="-137"/>
      <point x="152" y="-138"/>
      <point x="162" y="-138" type="curve" smooth="yes"/>
      <point x="201" y="-138"/>
      <point x="217" y="-112"/>
      <point x="229" y="-52" type="curve" smooth="yes"/>
      <point x="341" y="528" type="line"/>
      <point x="429" y="528" type="line"/>
      <point x="313" y="-65" type="line" smooth="yes"/>
      <point x="293" y="-169"/>
      <point x="249" y="-208"/>
    </contour>
  </outline>
</glyph>
<glyph name="uni01CA" format="1">
  <advance width="1222"/>
  <unicode hex="01CA"/>
  <outline>
    <contour>
      <point x="589" y="0" type="line"/>
      <point x="482" y="0" type="line"/>
      <point x="223" y="591" type="line"/>
      <point x="216" y="535"/>
      <point x="209" y="491"/>
      <point x="202" y="460" type="curve" smooth="yes"/>
      <point x="114" y="0" type="line"/>
      <point x="31" y="0" type="line"/>
      <point x="164" y="688" type="line"/>
      <point x="268" y="688" type="line"/>
      <point x="528" y="95" type="line"/>
      <point x="537" y="156"/>
      <point x="544" y="202"/>
      <point x="550" y="233" type="curve" smooth="yes"/>
      <point x="639" y="688" type="line"/>
      <point x="723" y="688" type="line"/>
    </contour>
    <contour>
      <point x="908" y="-10" type="curve" smooth="yes"/>
      <point x="805" y="-10"/>
      <point x="736" y="52"/>
      <point x="720" y="167" type="curve"/>
      <point x="802" y="184" type="line"/>
      <point x="817" y="107"/>
      <point x="852" y="66"/>
      <point x="917" y="66" type="curve" smooth="yes"/>
      <point x="985" y="66"/>
      <point x="1026" y="111"/>
      <point x="1046" y="215" type="curve" smooth="yes"/>
      <point x="1123" y="612" type="line"/>
      <point x="980" y="612" type="line"/>
      <point x="995" y="688" type="line"/>
      <point x="1230" y="688" type="line"/>
      <point x="1136" y="207" type="line" smooth="yes"/>
      <point x="1108" y="60"/>
      <point x="1035" y="-10"/>
    </contour>
  </outline>
</glyph>
<glyph name="uni01CB" format="1">
  <advance width="944"/>
  <unicode hex="01CB"/>
  <outline>
    <contour>
      <point x="589" y="0" type="line"/>
      <point x="482" y="0" type="line"/>
      <point x="223" y="591" type="line"/>
      <point x="216" y="535"/>
      <point x="209" y="491"/>
      <point x="202" y="460" type="curve" smooth="yes"/>
      <point x="114" y="0" type="line"/>
      <point x="31" y="0" type="line"/>
      <point x="164" y="688" type="line"/>
      <point x="268" y="688" type="line"/>
      <point x="528" y="95" type="line"/>
      <point x="537" y="156"/>
      <point x="544" y="202"/>
      <point x="550" y="233" type="curve" smooth="yes"/>
      <point x="639" y="688" type="line"/>
      <point x="723" y="688" type="line"/>
    </contour>
    <contour>
      <point x="951" y="641" type="line"/>
      <point x="863" y="641" type="line"/>
      <point x="879" y="725" type="line"/>
      <point x="967" y="725" type="line"/>
    </contour>
    <contour>
      <point x="673" y="-208" type="curve" smooth="yes"/>
      <point x="655" y="-208"/>
      <point x="634" y="-206"/>
      <point x="610" y="-201" type="curve"/>
      <point x="622" y="-134" type="line"/>
      <point x="639" y="-137"/>
      <point x="652" y="-138"/>
      <point x="662" y="-138" type="curve" smooth="yes"/>
      <point x="701" y="-138"/>
      <point x="717" y="-112"/>
      <point x="729" y="-52" type="curve" smooth="yes"/>
      <point x="841" y="528" type="line"/>
      <point x="929" y="528" type="line"/>
      <point x="813" y="-65" type="line" smooth="yes"/>
      <point x="793" y="-169"/>
      <point x="749" y="-208"/>
    </contour>
  </outline>
</glyph>
<glyph name="uni01CC" format="1">
  <advance width="778"/>
  <unicode hex="01CC"/>
  <outline>
    <contour>
      <point x="438" y="0" type="line"/>
      <point x="350" y="0" type="line"/>
      <point x="412" y="315" type="line" smooth="yes"/>
      <point x="417" y="344"/>
      <point x="420" y="368"/>
      <point x="420" y="388" type="curve" smooth="yes"/>
      <point x="420" y="443"/>
      <point x="391" y="470"/>
      <point x="333" y="470" type="curve" smooth="yes"/>
      <point x="250" y="470"/>
      <point x="183" y="403"/>
      <point x="162" y="296" type="curve" smooth="yes"/>
      <point x="104" y="0" type="line"/>
      <point x="17" y="0" type="line"/>
      <point x="98" y="416" type="line" smooth="yes"/>
      <point x="104" y="447"/>
      <point x="110" y="484"/>
      <point x="117" y="528" type="curve"/>
      <point x="200" y="528" type="line" smooth="yes"/>
      <point x="200" y="525"/>
      <point x="198" y="512"/>
      <point x="194" y="490" type="curve" smooth="yes"/>
      <point x="186" y="438" type="line"/>
      <point x="188" y="438" type="line"/>
      <point x="241" y="513"/>
      <point x="291" y="538"/>
      <point x="366" y="538" type="curve" smooth="yes"/>
      <point x="462" y="538"/>
      <point x="511" y="488"/>
      <point x="511" y="399" type="curve" smooth="yes"/>
      <point x="511" y="378"/>
      <point x="507" y="352"/>
      <point x="500" y="319" type="curve" smooth="yes"/>
    </contour>
    <contour>
      <point x="785" y="641" type="line"/>
      <point x="697" y="641" type="line"/>
      <point x="713" y="725" type="line"/>
      <point x="801" y="725" type="line"/>
    </contour>
    <contour>
      <point x="507" y="-208" type="curve" smooth="yes"/>
      <point x="489" y="-208"/>
      <point x="468" y="-206"/>
      <point x="444" y="-201" type="curve"/>
      <point x="456" y="-134" type="line"/>
      <point x="473" y="-137"/>
      <point x="486" y="-138"/>
      <point x="496" y="-138" type="curve" smooth="yes"/>
      <point x="535" y="-138"/>
      <point x="551" y="-112"/>
      <point x="563" y="-52" type="curve" smooth="yes"/>
      <point x="675" y="528" type="line"/>
      <point x="763" y="528" type="line"/>
      <point x="647" y="-65" type="line" smooth="yes"/>
      <point x="627" y="-169"/>
      <point x="583" y="-208"/>
    </contour>
  </outline>
</glyph>
<glyph name="uni01CF" format="1">
  <advance width="278"/>
  <unicode hex="01CF"/>
  <outline>
    <contour>
      <point x="133" y="0" type="line"/>
      <point x="40" y="0" type="line"/>
      <point x="173" y="688" type="line"/>
      <point x="267" y="688" type="line"/>
    </contour>
    <contour>
      <point x="411" y="864" type="line"/>
      <point x="279" y="747" type="line"/>
      <point x="179" y="747" type="line"/>
      <point x="88" y="864" type="line"/>
      <point x="90" y="874" type="line"/>
      <point x="135" y="874" type="line"/>
      <point x="235" y="806" type="line"/>
      <point x="236" y="806" type="line"/>
      <point x="356" y="874" type="line"/>
      <point x="413" y="874" type="line"/>
    </contour>
  </outline>
</glyph>
<glyph name="uni01D7" format="1">
  <advance width="722"/>
  <unicode hex="01D7"/>
  <outline>
    <contour>
      <point x="319" y="-10" type="curve" smooth="yes"/>
      <point x="168" y="-10"/>
      <point x="75" y="74"/>
      <point x="75" y="210" type="curve" smooth="yes"/>
      <point x="75" y="239"/>
      <point x="81" y="286"/>
      <point x="86" y="310" type="curve" smooth="yes"/>
      <point x="159" y="688" type="line"/>
      <point x="252" y="688" type="line"/>
      <point x="173" y="276" type="line" smooth="yes"/>
      <point x="168" y="248"/>
      <point x="165" y="225"/>
      <point x="165" y="207" type="curve" smooth="yes"/>
      <point x="165" y="118"/>
      <point x="224" y="66"/>
      <point x="327" y="66" type="curve" smooth="yes"/>
      <point x="452" y="66"/>
      <point x="527" y="132"/>
      <point x="552" y="264" type="curve" smooth="yes"/>
      <point x="634" y="688" type="line"/>
      <point x="727" y="688" type="line"/>
      <point x="644" y="259" type="line" smooth="yes"/>
      <point x="609" y="80"/>
      <point x="499" y="-10"/>
    </contour>
    <contour>
      <point x="412" y="812" type="line"/>
      <point x="508" y="896" type="line"/>
      <point x="619" y="896" type="line"/>
      <point x="618" y="890" type="line"/>
      <point x="474" y="807" type="line"/>
      <point x="411" y="807" type="line"/>
    </contour>
    <contour>
      <point x="587" y="707" type="line"/>
      <point x="508" y="707" type="line"/>
      <point x="525" y="797" type="line"/>
      <point x="605" y="797" type="line"/>
    </contour>
    <contour>
      <point x="376" y="707" type="line"/>
      <point x="296" y="707" type="line"/>
      <point x="314" y="797" type="line"/>
      <point x="394" y="797" type="line"/>
    </contour>
  </outline>
</glyph>
